<ttFont>
    <TTGlyph name=".notdef" xMin="170" yMin="0" xMax="1360" yMax="1307">
      <contour>
        <pt x="170" y="1307" on="1"/>
        <pt x="1360" y="1307" on="1"/>
        <pt x="1360" y="0" on="1"/>
        <pt x="170" y="0" on="1"/>
      </contour>
      <contour>
        <pt x="431" y="214" on="1"/>
        <pt x="762" y="545" on="1"/>
        <pt x="1101" y="205" on="1"/>
        <pt x="1201" y="305" on="1"/>
        <pt x="862" y="645" on="1"/>
        <pt x="1193" y="976" on="1"/>
        <pt x="1096" y="1073" on="1"/>
        <pt x="765" y="742" on="1"/>
        <pt x="426" y="1082" on="1"/>
        <pt x="326" y="982" on="1"/>
        <pt x="665" y="642" on="1"/>
        <pt x="334" y="311" on="1"/>
      </contour>
    </TTGlyph>
    <TTGlyph name="A" xMin="-27" yMin="0" xMax="1735" yMax="1570">
      <contour>
        <pt x="190" y="15" on="1"/>
        <pt x="50" y="0" on="1"/>
        <pt x="10" y="0" on="0"/>
        <pt x="-27" y="27" on="0"/>
        <pt x="-27" y="45" on="1"/>
        <pt x="-27" y="73" on="0"/>
        <pt x="6" y="73" on="1"/>
        <pt x="55" y="66" on="1"/>
        <pt x="101" y="66" on="0"/>
        <pt x="130" y="104" on="1"/>
        <pt x="185" y="174" on="0"/>
        <pt x="267" y="355" on="1"/>
        <pt x="778" y="1463" on="0"/>
        <pt x="811" y="1529" on="0"/>
        <pt x="822" y="1545" on="1"/>
        <pt x="839" y="1570" on="0"/>
        <pt x="857" y="1570" on="1"/>
        <pt x="875" y="1570" on="0"/>
        <pt x="892" y="1546" on="1"/>
        <pt x="918" y="1506" on="0"/>
        <pt x="965" y="1404" on="1"/>
        <pt x="1486" y="265" on="1"/>
        <pt x="1560" y="103" on="0"/>
        <pt x="1616" y="75" on="1"/>
        <pt x="1634" y="66" on="0"/>
        <pt x="1653" y="66" on="1"/>
        <pt x="1702" y="74" on="1"/>
        <pt x="1735" y="74" on="0"/>
        <pt x="1735" y="45" on="1"/>
        <pt x="1735" y="0" on="0"/>
        <pt x="1655" y="0" on="1"/>
        <pt x="1461" y="15" on="1"/>
        <pt x="1216" y="0" on="1"/>
        <pt x="1165" y="0" on="0"/>
        <pt x="1122" y="30" on="0"/>
        <pt x="1122" y="45" on="1"/>
        <pt x="1122" y="73" on="0"/>
        <pt x="1154" y="73" on="1"/>
        <pt x="1225" y="63" on="1"/>
        <pt x="1254" y="63" on="0"/>
        <pt x="1280" y="80" on="0"/>
        <pt x="1280" y="116" on="0"/>
        <pt x="1276" y="142" on="0"/>
        <pt x="1272" y="158" on="1"/>
        <pt x="1263" y="188" on="0"/>
        <pt x="1239" y="240" on="1"/>
        <pt x="1162" y="401" on="1"/>
        <pt x="1147" y="433" on="0"/>
        <pt x="1130" y="443" on="1"/>
        <pt x="1102" y="460" on="0"/>
        <pt x="1050" y="460" on="1"/>
        <pt x="533" y="460" on="1"/>
        <pt x="459" y="460" on="0"/>
        <pt x="435" y="424" on="1"/>
        <pt x="427" y="412" on="0"/>
        <pt x="420" y="395" on="1"/>
        <pt x="371" y="279" on="1"/>
        <pt x="316" y="147" on="0"/>
        <pt x="316" y="116" on="1"/>
        <pt x="316" y="66" on="0"/>
        <pt x="393" y="66" on="1"/>
        <pt x="442" y="74" on="1"/>
        <pt x="474" y="74" on="0"/>
        <pt x="474" y="45" on="1"/>
        <pt x="474" y="0" on="0"/>
        <pt x="379" y="0" on="1"/>
        <pt x="323" y="0" on="0"/>
        <pt x="289" y="5" on="1"/>
        <pt x="221" y="15" on="0"/>
      </contour>
      <contour>
        <pt x="504" y="578" on="1"/>
        <pt x="504" y="547" on="0"/>
        <pt x="617" y="547" on="1"/>
        <pt x="960" y="547" on="1"/>
        <pt x="1056" y="547" on="0"/>
        <pt x="1070" y="564" on="1"/>
        <pt x="1075" y="570" on="0"/>
        <pt x="1075" y="578" on="1"/>
        <pt x="1075" y="586" on="0"/>
        <pt x="1068" y="604" on="1"/>
        <pt x="846" y="1141" on="1"/>
        <pt x="807" y="1237" on="0"/>
        <pt x="787" y="1237" on="1"/>
        <pt x="771" y="1237" on="0"/>
        <pt x="746" y="1176" on="1"/>
        <pt x="517" y="623" on="1"/>
        <pt x="504" y="594" on="0"/>
      </contour>
    </TTGlyph>
    <TTGlyph name="AE" xMin="-30" yMin="-15" xMax="2229" yMax="1528">
      <contour>
        <pt x="522" y="51" on="1"/>
        <pt x="522" y="0" on="0"/>
        <pt x="418" y="0" on="1"/>
        <pt x="364" y="0" on="0"/>
        <pt x="330" y="5" on="1"/>
        <pt x="262" y="15" on="0"/>
        <pt x="204" y="15" on="0"/>
        <pt x="175" y="14" on="0"/>
        <pt x="144" y="12" on="0"/>
        <pt x="130" y="10" on="1"/>
        <pt x="107" y="8" on="1"/>
        <pt x="17" y="-10" on="0"/>
        <pt x="-30" y="24" on="0"/>
        <pt x="-30" y="40" on="1"/>
        <pt x="-30" y="73" on="0"/>
        <pt x="9" y="73" on="1"/>
        <pt x="56" y="66" on="1"/>
        <pt x="105" y="66" on="0"/>
        <pt x="153" y="106" on="1"/>
        <pt x="245" y="181" on="0"/>
        <pt x="368" y="355" on="1"/>
        <pt x="1027" y="1285" on="1"/>
        <pt x="1096" y="1382" on="0"/>
        <pt x="1096" y="1426" on="1"/>
        <pt x="1096" y="1460" on="0"/>
        <pt x="1044" y="1462" on="1"/>
        <pt x="1029" y="1462" on="0"/>
        <pt x="1013" y="1462" on="1"/>
        <pt x="964" y="1455" on="1"/>
        <pt x="931" y="1455" on="0"/>
        <pt x="931" y="1483" on="1"/>
        <pt x="931" y="1499" on="0"/>
        <pt x="968" y="1528" on="0"/>
        <pt x="1056" y="1528" on="0"/>
        <pt x="1081" y="1526" on="1"/>
        <pt x="1129" y="1522" on="1"/>
        <pt x="1153" y="1518" on="0"/>
        <pt x="1194" y="1517" on="1"/>
        <pt x="1262" y="1514" on="1"/>
        <pt x="1288" y="1513" on="0"/>
        <pt x="1311" y="1513" on="1"/>
        <pt x="2054" y="1513" on="1"/>
        <pt x="2062" y="1442" on="0"/>
        <pt x="2088" y="1356" on="1"/>
        <pt x="2134" y="1209" on="0"/>
        <pt x="2134" y="1161" on="0"/>
        <pt x="2118" y="1161" on="1"/>
        <pt x="2104" y="1161" on="0"/>
        <pt x="2089" y="1179" on="1"/>
        <pt x="1970" y="1314" on="0"/>
        <pt x="1916" y="1358" on="0"/>
        <pt x="1872" y="1385" on="0"/>
        <pt x="1846" y="1395" on="1"/>
        <pt x="1792" y="1415" on="0"/>
        <pt x="1711" y="1415" on="1"/>
        <pt x="1444" y="1415" on="1"/>
        <pt x="1388" y="1415" on="0"/>
        <pt x="1347" y="1368" on="0"/>
        <pt x="1347" y="1323" on="1"/>
        <pt x="1347" y="899" on="1"/>
        <pt x="1347" y="842" on="0"/>
        <pt x="1438" y="842" on="1"/>
        <pt x="1683" y="842" on="1"/>
        <pt x="1755" y="842" on="0"/>
        <pt x="1814" y="912" on="1"/>
        <pt x="1834" y="937" on="0"/>
        <pt x="1853" y="981" on="0"/>
        <pt x="1864" y="997" on="0"/>
        <pt x="1873" y="997" on="1"/>
        <pt x="1899" y="997" on="0"/>
        <pt x="1899" y="946" on="1"/>
        <pt x="1891" y="787" on="1"/>
        <pt x="1899" y="631" on="1"/>
        <pt x="1899" y="581" on="0"/>
        <pt x="1873" y="581" on="1"/>
        <pt x="1859" y="581" on="0"/>
        <pt x="1834" y="641" on="0"/>
        <pt x="1793" y="693" on="0"/>
        <pt x="1770" y="710" on="1"/>
        <pt x="1724" y="745" on="0"/>
        <pt x="1683" y="745" on="1"/>
        <pt x="1437" y="745" on="1"/>
        <pt x="1394" y="745" on="0"/>
        <pt x="1347" y="706" on="0"/>
        <pt x="1347" y="678" on="1"/>
        <pt x="1347" y="236" on="1"/>
        <pt x="1347" y="97" on="0"/>
        <pt x="1444" y="97" on="1"/>
        <pt x="1651" y="97" on="1"/>
        <pt x="1894" y="97" on="0"/>
        <pt x="2049" y="232" on="1"/>
        <pt x="2077" y="257" on="0"/>
        <pt x="2102" y="282" on="1"/>
        <pt x="2151" y="332" on="1"/>
        <pt x="2187" y="368" on="0"/>
        <pt x="2229" y="368" on="0"/>
        <pt x="2229" y="354" on="1"/>
        <pt x="2229" y="327" on="0"/>
        <pt x="2172" y="231" on="0"/>
        <pt x="2138" y="168" on="0"/>
        <pt x="2110" y="105" on="0"/>
        <pt x="2098" y="72" on="1"/>
        <pt x="2073" y="0" on="1"/>
        <pt x="1253" y="0" on="1"/>
        <pt x="1158" y="0" on="0"/>
        <pt x="1125" y="-5" on="1"/>
        <pt x="1059" y="-15" on="0"/>
        <pt x="949" y="-15" on="0"/>
        <pt x="912" y="15" on="0"/>
        <pt x="912" y="31" on="1"/>
        <pt x="912" y="58" on="0"/>
        <pt x="945" y="58" on="1"/>
        <pt x="1009" y="51" on="1"/>
        <pt x="1066" y="51" on="0"/>
        <pt x="1087" y="87" on="1"/>
        <pt x="1125" y="155" on="0"/>
        <pt x="1125" y="371" on="1"/>
        <pt x="1125" y="460" on="1"/>
        <pt x="673" y="460" on="1"/>
        <pt x="601" y="460" on="0"/>
        <pt x="570" y="423" on="1"/>
        <pt x="560" y="411" on="0"/>
        <pt x="549" y="395" on="1"/>
        <pt x="469" y="279" on="1"/>
        <pt x="375" y="142" on="0"/>
        <pt x="375" y="108" on="1"/>
        <pt x="375" y="66" on="0"/>
        <pt x="444" y="66" on="1"/>
        <pt x="495" y="74" on="1"/>
        <pt x="522" y="74" on="0"/>
      </contour>
      <contour>
        <pt x="665" y="574" on="1"/>
        <pt x="665" y="547" on="0"/>
        <pt x="717" y="547" on="1"/>
        <pt x="1125" y="547" on="1"/>
        <pt x="1125" y="1258" on="1"/>
        <pt x="686" y="623" on="1"/>
        <pt x="665" y="592" on="0"/>
      </contour>
    </TTGlyph>
    <TTGlyph name="AEacute" xMin="-30" yMin="-15" xMax="2229" yMax="2026">
      <component glyphName="AE" x="0" y="0" flags="0x1204"/>
      <component glyphName="acute.cap" x="896" y="0" flags="0x1004"/>
    </TTGlyph>
    <TTGlyph name="Aacute" xMin="-27" yMin="0" xMax="1735" yMax="2026">
      <component glyphName="A" x="0" y="0" flags="0x1204"/>
      <component glyphName="acute.cap" x="532" y="0" flags="0x1004"/>
    </TTGlyph>
    <TTGlyph name="Abreve" xMin="-27" yMin="0" xMax="1735" yMax="2017">
      <component glyphName="A" x="0" y="0" flags="0x1204"/>
      <component glyphName="breve.cap" x="344" y="0" flags="0x1004"/>
    </TTGlyph>
    <TTGlyph name="Acircumflex" xMin="-27" yMin="0" xMax="1735" yMax="2030">
      <component glyphName="A" x="0" y="0" flags="0x1204"/>
      <component glyphName="circumflex.cap" x="412" y="0" flags="0x1004"/>
    </TTGlyph>
    <TTGlyph name="Adieresis" xMin="-27" yMin="0" xMax="1735" yMax="1982">
      <component glyphName="A" x="0" y="0" flags="0x1204"/>
      <component glyphName="dieresis.cap" x="319" y="0" flags="0x1004"/>
    </TTGlyph>
    <TTGlyph name="Agrave" xMin="-27" yMin="0" xMax="1735" yMax="2026">
      <component glyphName="A" x="0" y="0" flags="0x1204"/>
      <component glyphName="grave.cap" x="532" y="0" flags="0x1004"/>
    </TTGlyph>
    <TTGlyph name="Amacron" xMin="-27" yMin="0" xMax="1735" yMax="1938">
      <component glyphName="A" x="0" y="0" flags="0x1204"/>
      <component glyphName="macron.cap" x="1365" y="0" flags="0x1004"/>
    </TTGlyph>
    <TTGlyph name="Aogonek" xMin="-27" yMin="-468" xMax="1735" yMax="1570">
      <contour>
        <pt x="190" y="15" on="1"/>
        <pt x="50" y="0" on="1"/>
        <pt x="10" y="0" on="0"/>
        <pt x="-27" y="27" on="0"/>
        <pt x="-27" y="45" on="1"/>
        <pt x="-27" y="73" on="0"/>
        <pt x="6" y="73" on="1"/>
        <pt x="55" y="66" on="1"/>
        <pt x="101" y="66" on="0"/>
        <pt x="130" y="104" on="1"/>
        <pt x="185" y="174" on="0"/>
        <pt x="267" y="355" on="1"/>
        <pt x="778" y="1463" on="0"/>
        <pt x="811" y="1529" on="0"/>
        <pt x="822" y="1545" on="1"/>
        <pt x="839" y="1570" on="0"/>
        <pt x="857" y="1570" on="1"/>
        <pt x="875" y="1570" on="0"/>
        <pt x="892" y="1546" on="1"/>
        <pt x="918" y="1506" on="0"/>
        <pt x="965" y="1404" on="1"/>
        <pt x="1486" y="265" on="1"/>
        <pt x="1560" y="103" on="0"/>
        <pt x="1616" y="75" on="1"/>
        <pt x="1634" y="66" on="0"/>
        <pt x="1653" y="66" on="1"/>
        <pt x="1702" y="74" on="1"/>
        <pt x="1735" y="74" on="0"/>
        <pt x="1735" y="45" on="1"/>
        <pt x="1735" y="0" on="0"/>
        <pt x="1655" y="0" on="1"/>
        <pt x="1635" y="0" on="0"/>
        <pt x="1614" y="2" on="1"/>
        <pt x="1572" y="6" on="1"/>
        <pt x="1499" y="-65" on="0"/>
        <pt x="1499" y="-198" on="1"/>
        <pt x="1499" y="-313" on="0"/>
        <pt x="1602" y="-376" on="1"/>
        <pt x="1639" y="-399" on="0"/>
        <pt x="1713" y="-418" on="0"/>
        <pt x="1727" y="-434" on="0"/>
        <pt x="1727" y="-443" on="1"/>
        <pt x="1727" y="-452" on="0"/>
        <pt x="1711" y="-466" on="0"/>
        <pt x="1698" y="-466" on="1"/>
        <pt x="1476" y="-468" on="1"/>
        <pt x="1342" y="-468" on="0"/>
        <pt x="1342" y="-100" on="0"/>
        <pt x="1476" y="15" on="1"/>
        <pt x="1461" y="15" on="1"/>
        <pt x="1216" y="0" on="1"/>
        <pt x="1165" y="0" on="0"/>
        <pt x="1122" y="30" on="0"/>
        <pt x="1122" y="45" on="1"/>
        <pt x="1122" y="73" on="0"/>
        <pt x="1154" y="73" on="1"/>
        <pt x="1225" y="63" on="1"/>
        <pt x="1254" y="63" on="0"/>
        <pt x="1280" y="80" on="0"/>
        <pt x="1280" y="116" on="0"/>
        <pt x="1276" y="142" on="0"/>
        <pt x="1272" y="158" on="1"/>
        <pt x="1263" y="188" on="0"/>
        <pt x="1239" y="240" on="1"/>
        <pt x="1162" y="401" on="1"/>
        <pt x="1147" y="433" on="0"/>
        <pt x="1130" y="443" on="1"/>
        <pt x="1102" y="460" on="0"/>
        <pt x="1050" y="460" on="1"/>
        <pt x="533" y="460" on="1"/>
        <pt x="459" y="460" on="0"/>
        <pt x="435" y="424" on="1"/>
        <pt x="427" y="412" on="0"/>
        <pt x="420" y="395" on="1"/>
        <pt x="371" y="279" on="1"/>
        <pt x="316" y="147" on="0"/>
        <pt x="316" y="116" on="1"/>
        <pt x="316" y="66" on="0"/>
        <pt x="393" y="66" on="1"/>
        <pt x="442" y="74" on="1"/>
        <pt x="474" y="74" on="0"/>
        <pt x="474" y="45" on="1"/>
        <pt x="474" y="0" on="0"/>
        <pt x="379" y="0" on="1"/>
        <pt x="323" y="0" on="0"/>
        <pt x="289" y="5" on="1"/>
        <pt x="221" y="15" on="0"/>
      </contour>
      <contour>
        <pt x="504" y="578" on="1"/>
        <pt x="504" y="547" on="0"/>
        <pt x="617" y="547" on="1"/>
        <pt x="960" y="547" on="1"/>
        <pt x="1056" y="547" on="0"/>
        <pt x="1070" y="564" on="1"/>
        <pt x="1075" y="570" on="0"/>
        <pt x="1075" y="578" on="1"/>
        <pt x="1075" y="586" on="0"/>
        <pt x="1068" y="604" on="1"/>
        <pt x="846" y="1141" on="1"/>
        <pt x="807" y="1237" on="0"/>
        <pt x="787" y="1237" on="1"/>
        <pt x="771" y="1237" on="0"/>
        <pt x="746" y="1176" on="1"/>
        <pt x="517" y="623" on="1"/>
        <pt x="504" y="594" on="0"/>
      </contour>
    </TTGlyph>
    <TTGlyph name="Aring" xMin="-27" yMin="0" xMax="1735" yMax="2020">
      <component glyphName="A" x="0" y="0" flags="0x1204"/>
      <component glyphName="ring.cap" x="525" y="0" flags="0x1004"/>
    </TTGlyph>
    <TTGlyph name="Atilde" xMin="-27" yMin="0" xMax="1735" yMax="1949">
      <component glyphName="A" x="0" y="0" flags="0x1204"/>
      <component glyphName="tilde.cap" x="375" y="0" flags="0x1004"/>
    </TTGlyph>
    <TTGlyph name="B" xMin="98" yMin="-24" xMax="1451" yMax="1539">
      <contour>
        <pt x="180" y="1462" on="1"/>
        <pt x="131" y="1455" on="1"/>
        <pt x="98" y="1455" on="0"/>
        <pt x="98" y="1483" on="1"/>
        <pt x="98" y="1499" on="0"/>
        <pt x="135" y="1528" on="0"/>
        <pt x="223" y="1528" on="0"/>
        <pt x="248" y="1526" on="1"/>
        <pt x="296" y="1522" on="1"/>
        <pt x="365" y="1514" on="0"/>
        <pt x="421" y="1514" on="1"/>
        <pt x="514" y="1514" on="0"/>
        <pt x="594" y="1523" on="1"/>
        <pt x="735" y="1539" on="0"/>
        <pt x="949" y="1539" on="0"/>
        <pt x="1133" y="1486" on="0"/>
        <pt x="1194" y="1442" on="1"/>
        <pt x="1317" y="1353" on="0"/>
        <pt x="1317" y="1220" on="1"/>
        <pt x="1317" y="1052" on="0"/>
        <pt x="1152" y="944" on="1"/>
        <pt x="1099" y="910" on="0"/>
        <pt x="1033" y="886" on="1"/>
        <pt x="1218" y="844" on="0"/>
        <pt x="1334" y="728" on="1"/>
        <pt x="1451" y="611" on="0"/>
        <pt x="1451" y="459" on="1"/>
        <pt x="1451" y="250" on="0"/>
        <pt x="1298" y="118" on="1"/>
        <pt x="1133" y="-24" on="0"/>
        <pt x="849" y="-24" on="1"/>
        <pt x="766" y="-24" on="0"/>
        <pt x="674" y="-9" on="1"/>
        <pt x="511" y="18" on="0"/>
        <pt x="380" y="14" on="0"/>
        <pt x="361" y="13" on="1"/>
        <pt x="319" y="11" on="0"/>
        <pt x="298" y="8" on="1"/>
        <pt x="151" y="-13" on="0"/>
        <pt x="116" y="15" on="1"/>
        <pt x="98" y="30" on="0"/>
        <pt x="98" y="46" on="1"/>
        <pt x="98" y="73" on="0"/>
        <pt x="131" y="73" on="1"/>
        <pt x="195" y="66" on="1"/>
        <pt x="252" y="66" on="0"/>
        <pt x="273" y="102" on="1"/>
        <pt x="304" y="157" on="0"/>
        <pt x="311" y="279" on="0"/>
        <pt x="311" y="321" on="1"/>
        <pt x="311" y="1195" on="1"/>
        <pt x="311" y="1318" on="0"/>
        <pt x="283" y="1396" on="0"/>
        <pt x="272" y="1418" on="1"/>
        <pt x="248" y="1462" on="0"/>
      </contour>
      <contour>
        <pt x="531" y="934" on="1"/>
        <pt x="627" y="914" on="0"/>
        <pt x="826" y="914" on="0"/>
        <pt x="944" y="945" on="0"/>
        <pt x="987" y="978" on="1"/>
        <pt x="1078" y="1046" on="0"/>
        <pt x="1078" y="1181" on="1"/>
        <pt x="1078" y="1299" on="0"/>
        <pt x="996" y="1373" on="1"/>
        <pt x="914" y="1447" on="0"/>
        <pt x="650" y="1447" on="0"/>
        <pt x="531" y="1392" on="0"/>
        <pt x="531" y="1331" on="1"/>
      </contour>
      <contour>
        <pt x="1015" y="778" on="0"/>
        <pt x="835" y="829" on="0"/>
        <pt x="621" y="829" on="0"/>
        <pt x="531" y="814" on="1"/>
        <pt x="531" y="231" on="1"/>
        <pt x="531" y="76" on="0"/>
        <pt x="838" y="76" on="1"/>
        <pt x="1097" y="76" on="0"/>
        <pt x="1179" y="281" on="1"/>
        <pt x="1207" y="351" on="0"/>
        <pt x="1207" y="539" on="0"/>
        <pt x="1140" y="680" on="0"/>
      </contour>
    </TTGlyph>
    <TTGlyph name="C" xMin="149" yMin="-23" xMax="1564" yMax="1576">
      <contour>
        <pt x="1557" y="202" on="1"/>
        <pt x="1320" y="-23" on="0"/>
        <pt x="957" y="-23" on="1"/>
        <pt x="593" y="-23" on="0"/>
        <pt x="367" y="196" on="1"/>
        <pt x="149" y="406" on="0"/>
        <pt x="149" y="729" on="1"/>
        <pt x="149" y="1095" on="0"/>
        <pt x="382" y="1332" on="1"/>
        <pt x="528" y="1479" on="0"/>
        <pt x="732" y="1534" on="1"/>
        <pt x="832" y="1561" on="0"/>
        <pt x="999" y="1561" on="0"/>
        <pt x="1098" y="1546" on="0"/>
        <pt x="1138" y="1535" on="1"/>
        <pt x="1200" y="1518" on="0"/>
        <pt x="1244" y="1500" on="1"/>
        <pt x="1309" y="1473" on="0"/>
        <pt x="1325" y="1473" on="1"/>
        <pt x="1357" y="1473" on="0"/>
        <pt x="1389" y="1505" on="1"/>
        <pt x="1432" y="1548" on="1"/>
        <pt x="1460" y="1576" on="0"/>
        <pt x="1473" y="1576" on="1"/>
        <pt x="1498" y="1576" on="0"/>
        <pt x="1498" y="1493" on="0"/>
        <pt x="1501" y="1434" on="0"/>
        <pt x="1505" y="1406" on="1"/>
        <pt x="1514" y="1341" on="0"/>
        <pt x="1530" y="1282" on="1"/>
        <pt x="1554" y="1189" on="1"/>
        <pt x="1564" y="1154" on="0"/>
        <pt x="1564" y="1131" on="1"/>
        <pt x="1564" y="1089" on="0"/>
        <pt x="1540" y="1089" on="1"/>
        <pt x="1520" y="1089" on="0"/>
        <pt x="1509" y="1112" on="1"/>
        <pt x="1426" y="1272" on="0"/>
        <pt x="1264" y="1368" on="1"/>
        <pt x="1105" y="1463" on="0"/>
        <pt x="934" y="1463" on="1"/>
        <pt x="693" y="1463" on="0"/>
        <pt x="530" y="1300" on="1"/>
        <pt x="364" y="1134" on="0"/>
        <pt x="364" y="877" on="1"/>
        <pt x="364" y="709" on="0"/>
        <pt x="473" y="422" on="0"/>
        <pt x="660" y="211" on="0"/>
        <pt x="909" y="92" on="0"/>
        <pt x="1050" y="92" on="1"/>
        <pt x="1286" y="92" on="0"/>
        <pt x="1420" y="298" on="1"/>
        <pt x="1469" y="374" on="0"/>
        <pt x="1497" y="485" on="1"/>
        <pt x="1504" y="511" on="0"/>
        <pt x="1519" y="544" on="0"/>
        <pt x="1557" y="544" on="0"/>
        <pt x="1557" y="485" on="1"/>
      </contour>
    </TTGlyph>
    <TTGlyph name="Cacute" xMin="149" yMin="-23" xMax="1564" yMax="2026">
      <component glyphName="C" x="0" y="0" flags="0x1204"/>
      <component glyphName="acute.cap" x="616" y="0" flags="0x1004"/>
    </TTGlyph>
    <TTGlyph name="Ccaron" xMin="149" yMin="-23" xMax="1564" yMax="2030">
      <component glyphName="C" x="0" y="0" flags="0x1204"/>
      <component glyphName="caron.cap" x="496" y="0" flags="0x1004"/>
    </TTGlyph>
    <TTGlyph name="Ccedilla" xMin="149" yMin="-530" xMax="1564" yMax="1576">
      <contour>
        <pt x="957" y="-23" on="1"/>
        <pt x="915" y="-23" on="0"/>
        <pt x="873" y="-19" on="1"/>
        <pt x="833" y="-197" on="1"/>
        <pt x="839" y="-196" on="0"/>
        <pt x="844" y="-196" on="1"/>
        <pt x="855" y="-196" on="1"/>
        <pt x="950" y="-196" on="0"/>
        <pt x="1017" y="-238" on="1"/>
        <pt x="1088" y="-282" on="0"/>
        <pt x="1088" y="-350" on="1"/>
        <pt x="1088" y="-424" on="0"/>
        <pt x="1006" y="-478" on="1"/>
        <pt x="925" y="-530" on="0"/>
        <pt x="823" y="-530" on="1"/>
        <pt x="702" y="-530" on="0"/>
        <pt x="640" y="-474" on="1"/>
        <pt x="618" y="-454" on="0"/>
        <pt x="618" y="-407" on="0"/>
        <pt x="645" y="-374" on="0"/>
        <pt x="668" y="-374" on="1"/>
        <pt x="705" y="-374" on="0"/>
        <pt x="743" y="-408" on="1"/>
        <pt x="804" y="-463" on="0"/>
        <pt x="908" y="-463" on="0"/>
        <pt x="954" y="-417" on="0"/>
        <pt x="954" y="-326" on="0"/>
        <pt x="885" y="-265" on="0"/>
        <pt x="839" y="-265" on="1"/>
        <pt x="769" y="-265" on="0"/>
        <pt x="726" y="-281" on="1"/>
        <pt x="779" y="-8" on="1"/>
        <pt x="488" y="44" on="0"/>
        <pt x="317" y="248" on="1"/>
        <pt x="149" y="449" on="0"/>
        <pt x="149" y="729" on="1"/>
        <pt x="149" y="1095" on="0"/>
        <pt x="382" y="1332" on="1"/>
        <pt x="528" y="1479" on="0"/>
        <pt x="732" y="1534" on="1"/>
        <pt x="832" y="1561" on="0"/>
        <pt x="999" y="1561" on="0"/>
        <pt x="1098" y="1546" on="0"/>
        <pt x="1138" y="1535" on="1"/>
        <pt x="1200" y="1518" on="0"/>
        <pt x="1244" y="1500" on="1"/>
        <pt x="1309" y="1473" on="0"/>
        <pt x="1325" y="1473" on="1"/>
        <pt x="1357" y="1473" on="0"/>
        <pt x="1389" y="1505" on="1"/>
        <pt x="1432" y="1548" on="1"/>
        <pt x="1460" y="1576" on="0"/>
        <pt x="1473" y="1576" on="1"/>
        <pt x="1498" y="1576" on="0"/>
        <pt x="1498" y="1493" on="0"/>
        <pt x="1501" y="1434" on="0"/>
        <pt x="1505" y="1406" on="1"/>
        <pt x="1514" y="1341" on="0"/>
        <pt x="1530" y="1282" on="1"/>
        <pt x="1554" y="1189" on="1"/>
        <pt x="1564" y="1154" on="0"/>
        <pt x="1564" y="1131" on="1"/>
        <pt x="1564" y="1089" on="0"/>
        <pt x="1540" y="1089" on="1"/>
        <pt x="1520" y="1089" on="0"/>
        <pt x="1509" y="1112" on="1"/>
        <pt x="1426" y="1272" on="0"/>
        <pt x="1264" y="1368" on="1"/>
        <pt x="1105" y="1463" on="0"/>
        <pt x="934" y="1463" on="1"/>
        <pt x="693" y="1463" on="0"/>
        <pt x="530" y="1300" on="1"/>
        <pt x="364" y="1134" on="0"/>
        <pt x="364" y="877" on="1"/>
        <pt x="364" y="709" on="0"/>
        <pt x="473" y="422" on="0"/>
        <pt x="660" y="211" on="0"/>
        <pt x="909" y="92" on="0"/>
        <pt x="1050" y="92" on="1"/>
        <pt x="1286" y="92" on="0"/>
        <pt x="1420" y="298" on="1"/>
        <pt x="1469" y="374" on="0"/>
        <pt x="1497" y="485" on="1"/>
        <pt x="1504" y="511" on="0"/>
        <pt x="1519" y="544" on="0"/>
        <pt x="1557" y="544" on="0"/>
        <pt x="1557" y="485" on="1"/>
        <pt x="1557" y="202" on="1"/>
        <pt x="1320" y="-23" on="0"/>
      </contour>
    </TTGlyph>
    <TTGlyph name="Ccircumflex" xMin="149" yMin="-23" xMax="1564" yMax="2030">
      <component glyphName="C" x="0" y="0" flags="0x1204"/>
      <component glyphName="circumflex.cap" x="496" y="0" flags="0x1004"/>
    </TTGlyph>
    <TTGlyph name="Cdotaccent" xMin="149" yMin="-23" xMax="1564" yMax="2030">
      <component glyphName="C" x="0" y="0" flags="0x1204"/>
      <component glyphName="dotaccent.cap" x="663" y="0" flags="0x1004"/>
    </TTGlyph>
    <TTGlyph name="D" xMin="100" yMin="-24" xMax="1765" yMax="1542">
      <contour>
        <pt x="182" y="1462" on="1"/>
        <pt x="133" y="1455" on="1"/>
        <pt x="100" y="1455" on="0"/>
        <pt x="100" y="1483" on="1"/>
        <pt x="100" y="1499" on="0"/>
        <pt x="137" y="1528" on="0"/>
        <pt x="225" y="1528" on="0"/>
        <pt x="250" y="1526" on="1"/>
        <pt x="298" y="1522" on="1"/>
        <pt x="367" y="1514" on="0"/>
        <pt x="433" y="1514" on="1"/>
        <pt x="534" y="1514" on="0"/>
        <pt x="632" y="1524" on="1"/>
        <pt x="810" y="1542" on="0"/>
        <pt x="905" y="1542" on="1"/>
        <pt x="1295" y="1542" on="0"/>
        <pt x="1530" y="1332" on="1"/>
        <pt x="1765" y="1122" on="0"/>
        <pt x="1765" y="770" on="1"/>
        <pt x="1765" y="428" on="0"/>
        <pt x="1505" y="200" on="1"/>
        <pt x="1249" y="-24" on="0"/>
        <pt x="872" y="-24" on="1"/>
        <pt x="789" y="-24" on="0"/>
        <pt x="730" y="-16" on="1"/>
        <pt x="623" y="-1" on="1"/>
        <pt x="513" y="15" on="0"/>
        <pt x="418" y="15" on="0"/>
        <pt x="382" y="14" on="0"/>
        <pt x="364" y="13" on="1"/>
        <pt x="320" y="11" on="0"/>
        <pt x="300" y="8" on="1"/>
        <pt x="153" y="-13" on="0"/>
        <pt x="118" y="15" on="1"/>
        <pt x="100" y="30" on="0"/>
        <pt x="100" y="46" on="1"/>
        <pt x="100" y="73" on="0"/>
        <pt x="133" y="73" on="1"/>
        <pt x="197" y="66" on="1"/>
        <pt x="254" y="66" on="0"/>
        <pt x="275" y="102" on="1"/>
        <pt x="306" y="157" on="0"/>
        <pt x="313" y="279" on="0"/>
        <pt x="313" y="321" on="1"/>
        <pt x="313" y="1195" on="1"/>
        <pt x="313" y="1318" on="0"/>
        <pt x="285" y="1396" on="0"/>
        <pt x="274" y="1418" on="1"/>
        <pt x="250" y="1462" on="0"/>
      </contour>
      <contour>
        <pt x="539" y="1311" on="1"/>
        <pt x="539" y="239" on="1"/>
        <pt x="539" y="149" on="0"/>
        <pt x="604" y="114" on="1"/>
        <pt x="676" y="76" on="0"/>
        <pt x="1017" y="76" on="0"/>
        <pt x="1261" y="150" on="0"/>
        <pt x="1345" y="230" on="1"/>
        <pt x="1518" y="396" on="0"/>
        <pt x="1518" y="748" on="1"/>
        <pt x="1518" y="1091" on="0"/>
        <pt x="1334" y="1271" on="1"/>
        <pt x="1156" y="1445" on="0"/>
        <pt x="539" y="1445" on="0"/>
      </contour>
    </TTGlyph>
    <TTGlyph name="Dcaron" xMin="100" yMin="-24" xMax="1765" yMax="2030">
      <component glyphName="D" x="0" y="0" flags="0x1204"/>
      <component glyphName="caron.cap" x="490" y="0" flags="0x1004"/>
    </TTGlyph>
    <TTGlyph name="Dcroat" xMin="100" yMin="-24" xMax="1765" yMax="1542">
      <contour>
        <pt x="182" y="1462" on="1"/>
        <pt x="133" y="1455" on="1"/>
        <pt x="100" y="1455" on="0"/>
        <pt x="100" y="1483" on="1"/>
        <pt x="100" y="1499" on="0"/>
        <pt x="137" y="1528" on="0"/>
        <pt x="225" y="1528" on="0"/>
        <pt x="250" y="1526" on="1"/>
        <pt x="298" y="1522" on="1"/>
        <pt x="367" y="1514" on="0"/>
        <pt x="433" y="1514" on="1"/>
        <pt x="534" y="1514" on="0"/>
        <pt x="632" y="1524" on="1"/>
        <pt x="810" y="1542" on="0"/>
        <pt x="905" y="1542" on="1"/>
        <pt x="1295" y="1542" on="0"/>
        <pt x="1530" y="1332" on="1"/>
        <pt x="1765" y="1122" on="0"/>
        <pt x="1765" y="770" on="1"/>
        <pt x="1765" y="428" on="0"/>
        <pt x="1505" y="200" on="1"/>
        <pt x="1249" y="-24" on="0"/>
        <pt x="872" y="-24" on="1"/>
        <pt x="789" y="-24" on="0"/>
        <pt x="730" y="-16" on="1"/>
        <pt x="623" y="-1" on="1"/>
        <pt x="513" y="15" on="0"/>
        <pt x="418" y="15" on="0"/>
        <pt x="382" y="14" on="0"/>
        <pt x="364" y="13" on="1"/>
        <pt x="320" y="11" on="0"/>
        <pt x="300" y="8" on="1"/>
        <pt x="153" y="-13" on="0"/>
        <pt x="118" y="15" on="1"/>
        <pt x="100" y="30" on="0"/>
        <pt x="100" y="46" on="1"/>
        <pt x="100" y="73" on="0"/>
        <pt x="133" y="73" on="1"/>
        <pt x="197" y="66" on="1"/>
        <pt x="254" y="66" on="0"/>
        <pt x="275" y="102" on="1"/>
        <pt x="306" y="157" on="0"/>
        <pt x="313" y="279" on="0"/>
        <pt x="313" y="321" on="1"/>
        <pt x="313" y="721" on="1"/>
        <pt x="190" y="721" on="1"/>
        <pt x="158" y="721" on="0"/>
        <pt x="118" y="739" on="0"/>
        <pt x="118" y="805" on="0"/>
        <pt x="159" y="818" on="0"/>
        <pt x="193" y="818" on="1"/>
        <pt x="313" y="818" on="1"/>
        <pt x="313" y="1195" on="1"/>
        <pt x="313" y="1318" on="0"/>
        <pt x="285" y="1396" on="0"/>
        <pt x="274" y="1418" on="1"/>
        <pt x="250" y="1462" on="0"/>
      </contour>
      <contour>
        <pt x="539" y="1311" on="1"/>
        <pt x="539" y="818" on="1"/>
        <pt x="893" y="818" on="1"/>
        <pt x="950" y="818" on="0"/>
        <pt x="962" y="794" on="1"/>
        <pt x="968" y="784" on="0"/>
        <pt x="968" y="760" on="1"/>
        <pt x="968" y="721" on="0"/>
        <pt x="894" y="721" on="1"/>
        <pt x="539" y="721" on="1"/>
        <pt x="539" y="239" on="1"/>
        <pt x="539" y="149" on="0"/>
        <pt x="604" y="114" on="1"/>
        <pt x="676" y="76" on="0"/>
        <pt x="1017" y="76" on="0"/>
        <pt x="1261" y="150" on="0"/>
        <pt x="1345" y="230" on="1"/>
        <pt x="1518" y="396" on="0"/>
        <pt x="1518" y="748" on="1"/>
        <pt x="1518" y="1091" on="0"/>
        <pt x="1334" y="1271" on="1"/>
        <pt x="1156" y="1445" on="0"/>
        <pt x="539" y="1445" on="0"/>
      </contour>
    </TTGlyph>
    <TTGlyph name="Delta" xMin="153" yMin="0" xMax="1606" yMax="1499">
      <contour>
        <pt x="153" y="25" on="1"/>
        <pt x="153" y="36" on="0"/>
        <pt x="160" y="49" on="1"/>
        <pt x="817" y="1475" on="1"/>
        <pt x="827" y="1499" on="0"/>
        <pt x="876" y="1499" on="0"/>
        <pt x="889" y="1474" on="1"/>
        <pt x="1599" y="72" on="1"/>
        <pt x="1606" y="56" on="0"/>
        <pt x="1606" y="26" on="0"/>
        <pt x="1579" y="0" on="0"/>
        <pt x="1551" y="0" on="1"/>
        <pt x="187" y="0" on="1"/>
        <pt x="153" y="0" on="0"/>
      </contour>
      <contour>
        <pt x="1355" y="120" on="1"/>
        <pt x="815" y="1213" on="1"/>
        <pt x="317" y="120" on="1"/>
      </contour>
    </TTGlyph>
    <TTGlyph name="E" xMin="52" yMin="-15" xMax="1369" yMax="1528">
      <contour>
        <pt x="487" y="236" on="1"/>
        <pt x="487" y="97" on="0"/>
        <pt x="584" y="97" on="1"/>
        <pt x="791" y="97" on="1"/>
        <pt x="1034" y="97" on="0"/>
        <pt x="1189" y="232" on="1"/>
        <pt x="1217" y="257" on="0"/>
        <pt x="1242" y="282" on="1"/>
        <pt x="1291" y="332" on="1"/>
        <pt x="1327" y="368" on="0"/>
        <pt x="1369" y="368" on="0"/>
        <pt x="1369" y="354" on="1"/>
        <pt x="1369" y="327" on="0"/>
        <pt x="1312" y="231" on="0"/>
        <pt x="1278" y="168" on="0"/>
        <pt x="1250" y="105" on="0"/>
        <pt x="1238" y="72" on="1"/>
        <pt x="1213" y="0" on="1"/>
        <pt x="393" y="0" on="1"/>
        <pt x="298" y="0" on="0"/>
        <pt x="265" y="-5" on="1"/>
        <pt x="199" y="-15" on="0"/>
        <pt x="89" y="-15" on="0"/>
        <pt x="52" y="15" on="0"/>
        <pt x="52" y="31" on="1"/>
        <pt x="52" y="58" on="0"/>
        <pt x="85" y="58" on="1"/>
        <pt x="149" y="51" on="1"/>
        <pt x="206" y="51" on="0"/>
        <pt x="227" y="86" on="1"/>
        <pt x="265" y="153" on="0"/>
        <pt x="265" y="321" on="1"/>
        <pt x="265" y="1195" on="1"/>
        <pt x="265" y="1318" on="0"/>
        <pt x="237" y="1396" on="0"/>
        <pt x="226" y="1418" on="1"/>
        <pt x="202" y="1462" on="0"/>
        <pt x="134" y="1462" on="1"/>
        <pt x="85" y="1455" on="1"/>
        <pt x="52" y="1455" on="0"/>
        <pt x="52" y="1483" on="1"/>
        <pt x="52" y="1499" on="0"/>
        <pt x="89" y="1528" on="0"/>
        <pt x="177" y="1528" on="0"/>
        <pt x="202" y="1526" on="1"/>
        <pt x="250" y="1522" on="1"/>
        <pt x="328" y="1513" on="0"/>
        <pt x="382" y="1513" on="1"/>
        <pt x="1194" y="1513" on="1"/>
        <pt x="1202" y="1442" on="0"/>
        <pt x="1228" y="1356" on="1"/>
        <pt x="1274" y="1209" on="0"/>
        <pt x="1274" y="1161" on="0"/>
        <pt x="1258" y="1161" on="1"/>
        <pt x="1244" y="1161" on="0"/>
        <pt x="1229" y="1179" on="1"/>
        <pt x="1110" y="1314" on="0"/>
        <pt x="1056" y="1358" on="0"/>
        <pt x="1012" y="1385" on="0"/>
        <pt x="986" y="1395" on="1"/>
        <pt x="932" y="1415" on="0"/>
        <pt x="851" y="1415" on="1"/>
        <pt x="584" y="1415" on="1"/>
        <pt x="528" y="1415" on="0"/>
        <pt x="487" y="1368" on="0"/>
        <pt x="487" y="1323" on="1"/>
        <pt x="487" y="899" on="1"/>
        <pt x="487" y="842" on="0"/>
        <pt x="578" y="842" on="1"/>
        <pt x="823" y="842" on="1"/>
        <pt x="895" y="842" on="0"/>
        <pt x="954" y="912" on="1"/>
        <pt x="974" y="937" on="0"/>
        <pt x="993" y="981" on="0"/>
        <pt x="1004" y="997" on="0"/>
        <pt x="1013" y="997" on="1"/>
        <pt x="1039" y="997" on="0"/>
        <pt x="1039" y="946" on="1"/>
        <pt x="1031" y="787" on="1"/>
        <pt x="1039" y="631" on="1"/>
        <pt x="1039" y="581" on="0"/>
        <pt x="1013" y="581" on="1"/>
        <pt x="999" y="581" on="0"/>
        <pt x="974" y="641" on="0"/>
        <pt x="933" y="693" on="0"/>
        <pt x="910" y="710" on="1"/>
        <pt x="864" y="745" on="0"/>
        <pt x="823" y="745" on="1"/>
        <pt x="577" y="745" on="1"/>
        <pt x="534" y="745" on="0"/>
        <pt x="487" y="706" on="0"/>
        <pt x="487" y="678" on="1"/>
      </contour>
    </TTGlyph>
    <TTGlyph name="Eacute" xMin="52" yMin="-15" xMax="1369" yMax="2026">
      <component glyphName="E" x="0" y="0" flags="0x1204"/>
      <component glyphName="acute.cap" x="388" y="0" flags="0x1004"/>
    </TTGlyph>
    <TTGlyph name="Ebreve" xMin="52" yMin="-15" xMax="1369" yMax="2017">
      <component glyphName="E" x="0" y="0" flags="0x1204"/>
      <component glyphName="breve.cap" x="200" y="0" flags="0x1004"/>
    </TTGlyph>
    <TTGlyph name="Ecaron" xMin="52" yMin="-15" xMax="1369" yMax="2030">
      <component glyphName="E" x="0" y="0" flags="0x1204"/>
      <component glyphName="caron.cap" x="268" y="0" flags="0x1004"/>
    </TTGlyph>
    <TTGlyph name="Ecircumflex" xMin="52" yMin="-15" xMax="1369" yMax="2030">
      <component glyphName="E" x="0" y="0" flags="0x1204"/>
      <component glyphName="circumflex.cap" x="268" y="0" flags="0x1004"/>
    </TTGlyph>
    <TTGlyph name="Edieresis" xMin="52" yMin="-15" xMax="1369" yMax="1982">
      <component glyphName="E" x="0" y="0" flags="0x1204"/>
      <component glyphName="dieresis.cap" x="175" y="0" flags="0x1004"/>
    </TTGlyph>
    <TTGlyph name="Edotaccent" xMin="52" yMin="-15" xMax="1369" yMax="2030">
      <component glyphName="E" x="0" y="0" flags="0x1204"/>
      <component glyphName="dotaccent.cap" x="435" y="0" flags="0x1004"/>
    </TTGlyph>
    <TTGlyph name="Egrave" xMin="52" yMin="-15" xMax="1369" yMax="2026">
      <component glyphName="E" x="0" y="0" flags="0x1204"/>
      <component glyphName="grave.cap" x="388" y="0" flags="0x1004"/>
    </TTGlyph>
    <TTGlyph name="Emacron" xMin="52" yMin="-15" xMax="1369" yMax="1938">
      <component glyphName="E" x="0" y="0" flags="0x1204"/>
      <component glyphName="macron.cap" x="1221" y="0" flags="0x1004"/>
    </TTGlyph>
    <TTGlyph name="Eng" xMin="82" yMin="-530" xMax="1809" yMax="1528">
      <contour>
        <pt x="603" y="0" on="1"/>
        <pt x="415" y="15" on="1"/>
        <pt x="388" y="15" on="0"/>
        <pt x="348" y="10" on="1"/>
        <pt x="146" y="-18" on="0"/>
        <pt x="146" y="46" on="1"/>
        <pt x="146" y="73" on="0"/>
        <pt x="179" y="73" on="1"/>
        <pt x="243" y="66" on="1"/>
        <pt x="300" y="66" on="0"/>
        <pt x="321" y="102" on="1"/>
        <pt x="352" y="157" on="0"/>
        <pt x="359" y="279" on="0"/>
        <pt x="359" y="321" on="1"/>
        <pt x="360" y="1153" on="1"/>
        <pt x="360" y="1202" on="0"/>
        <pt x="310" y="1308" on="0"/>
        <pt x="278" y="1352" on="0"/>
        <pt x="240" y="1393" on="0"/>
        <pt x="218" y="1412" on="1"/>
        <pt x="168" y="1454" on="0"/>
        <pt x="135" y="1466" on="1"/>
        <pt x="82" y="1485" on="0"/>
        <pt x="82" y="1528" on="0"/>
        <pt x="135" y="1528" on="1"/>
        <pt x="444" y="1517" on="1"/>
        <pt x="1484" y="418" on="1"/>
        <pt x="1484" y="1200" on="1"/>
        <pt x="1484" y="1324" on="0"/>
        <pt x="1456" y="1401" on="0"/>
        <pt x="1446" y="1420" on="1"/>
        <pt x="1425" y="1455" on="0"/>
        <pt x="1368" y="1455" on="1"/>
        <pt x="1295" y="1448" on="1"/>
        <pt x="1262" y="1448" on="0"/>
        <pt x="1262" y="1475" on="1"/>
        <pt x="1262" y="1491" on="0"/>
        <pt x="1301" y="1521" on="0"/>
        <pt x="1352" y="1521" on="1"/>
        <pt x="1540" y="1506" on="1"/>
        <pt x="1567" y="1506" on="0"/>
        <pt x="1607" y="1512" on="1"/>
        <pt x="1676" y="1521" on="0"/>
        <pt x="1772" y="1521" on="0"/>
        <pt x="1809" y="1491" on="0"/>
        <pt x="1809" y="1475" on="1"/>
        <pt x="1809" y="1448" on="0"/>
        <pt x="1776" y="1448" on="1"/>
        <pt x="1712" y="1455" on="1"/>
        <pt x="1655" y="1455" on="0"/>
        <pt x="1634" y="1419" on="1"/>
        <pt x="1603" y="1364" on="0"/>
        <pt x="1596" y="1242" on="0"/>
        <pt x="1596" y="1200" on="1"/>
        <pt x="1596" y="181" on="1"/>
        <pt x="1595" y="178" on="1"/>
        <pt x="1595" y="-30" on="1"/>
        <pt x="1595" y="-270" on="0"/>
        <pt x="1412" y="-408" on="1"/>
        <pt x="1248" y="-530" on="0"/>
        <pt x="1020" y="-530" on="1"/>
        <pt x="873" y="-530" on="0"/>
        <pt x="714" y="-463" on="1"/>
        <pt x="657" y="-439" on="0"/>
        <pt x="604" y="-404" on="1"/>
        <pt x="604" y="-227" on="1"/>
        <pt x="604" y="-132" on="0"/>
        <pt x="622" y="-117" on="1"/>
        <pt x="628" y="-112" on="0"/>
        <pt x="649" y="-112" on="0"/>
        <pt x="661" y="-136" on="0"/>
        <pt x="669" y="-168" on="1"/>
        <pt x="780" y="-432" on="0"/>
        <pt x="1069" y="-432" on="1"/>
        <pt x="1209" y="-432" on="0"/>
        <pt x="1302" y="-339" on="1"/>
        <pt x="1413" y="-230" on="0"/>
        <pt x="1413" y="-25" on="1"/>
        <pt x="1413" y="127" on="1"/>
        <pt x="471" y="1134" on="1"/>
        <pt x="471" y="321" on="1"/>
        <pt x="471" y="197" on="0"/>
        <pt x="499" y="120" on="0"/>
        <pt x="510" y="102" on="1"/>
        <pt x="530" y="66" on="0"/>
        <pt x="587" y="66" on="1"/>
        <pt x="660" y="73" on="1"/>
        <pt x="693" y="73" on="0"/>
        <pt x="693" y="46" on="1"/>
        <pt x="693" y="30" on="0"/>
        <pt x="654" y="0" on="0"/>
      </contour>
    </TTGlyph>
    <TTGlyph name="Eogonek" xMin="52" yMin="-468" xMax="1369" yMax="1528">
      <contour>
        <pt x="908" y="-289" on="1"/>
        <pt x="908" y="-125" on="0"/>
        <pt x="1003" y="0" on="1"/>
        <pt x="393" y="0" on="1"/>
        <pt x="298" y="0" on="0"/>
        <pt x="265" y="-5" on="1"/>
        <pt x="199" y="-15" on="0"/>
        <pt x="89" y="-15" on="0"/>
        <pt x="52" y="15" on="0"/>
        <pt x="52" y="31" on="1"/>
        <pt x="52" y="58" on="0"/>
        <pt x="85" y="58" on="1"/>
        <pt x="149" y="51" on="1"/>
        <pt x="206" y="51" on="0"/>
        <pt x="227" y="86" on="1"/>
        <pt x="265" y="153" on="0"/>
        <pt x="265" y="321" on="1"/>
        <pt x="265" y="1195" on="1"/>
        <pt x="265" y="1318" on="0"/>
        <pt x="237" y="1396" on="0"/>
        <pt x="226" y="1418" on="1"/>
        <pt x="202" y="1462" on="0"/>
        <pt x="134" y="1462" on="1"/>
        <pt x="85" y="1455" on="1"/>
        <pt x="52" y="1455" on="0"/>
        <pt x="52" y="1483" on="1"/>
        <pt x="52" y="1499" on="0"/>
        <pt x="89" y="1528" on="0"/>
        <pt x="177" y="1528" on="0"/>
        <pt x="202" y="1526" on="1"/>
        <pt x="250" y="1522" on="1"/>
        <pt x="328" y="1513" on="0"/>
        <pt x="382" y="1513" on="1"/>
        <pt x="1194" y="1513" on="1"/>
        <pt x="1202" y="1442" on="0"/>
        <pt x="1228" y="1356" on="1"/>
        <pt x="1274" y="1209" on="0"/>
        <pt x="1274" y="1161" on="0"/>
        <pt x="1258" y="1161" on="1"/>
        <pt x="1244" y="1161" on="0"/>
        <pt x="1229" y="1179" on="1"/>
        <pt x="1110" y="1314" on="0"/>
        <pt x="1056" y="1358" on="0"/>
        <pt x="1012" y="1385" on="0"/>
        <pt x="986" y="1395" on="1"/>
        <pt x="932" y="1415" on="0"/>
        <pt x="851" y="1415" on="1"/>
        <pt x="584" y="1415" on="1"/>
        <pt x="528" y="1415" on="0"/>
        <pt x="487" y="1368" on="0"/>
        <pt x="487" y="1323" on="1"/>
        <pt x="487" y="899" on="1"/>
        <pt x="487" y="842" on="0"/>
        <pt x="578" y="842" on="1"/>
        <pt x="823" y="842" on="1"/>
        <pt x="895" y="842" on="0"/>
        <pt x="954" y="912" on="1"/>
        <pt x="974" y="937" on="0"/>
        <pt x="993" y="981" on="0"/>
        <pt x="1004" y="997" on="0"/>
        <pt x="1013" y="997" on="1"/>
        <pt x="1039" y="997" on="0"/>
        <pt x="1039" y="946" on="1"/>
        <pt x="1031" y="787" on="1"/>
        <pt x="1039" y="631" on="1"/>
        <pt x="1039" y="581" on="0"/>
        <pt x="1013" y="581" on="1"/>
        <pt x="999" y="581" on="0"/>
        <pt x="974" y="641" on="0"/>
        <pt x="933" y="693" on="0"/>
        <pt x="910" y="710" on="1"/>
        <pt x="864" y="745" on="0"/>
        <pt x="823" y="745" on="1"/>
        <pt x="577" y="745" on="1"/>
        <pt x="534" y="745" on="0"/>
        <pt x="487" y="706" on="0"/>
        <pt x="487" y="678" on="1"/>
        <pt x="487" y="236" on="1"/>
        <pt x="487" y="97" on="0"/>
        <pt x="584" y="97" on="1"/>
        <pt x="791" y="97" on="1"/>
        <pt x="1034" y="97" on="0"/>
        <pt x="1189" y="232" on="1"/>
        <pt x="1217" y="257" on="0"/>
        <pt x="1242" y="282" on="1"/>
        <pt x="1291" y="332" on="1"/>
        <pt x="1327" y="368" on="0"/>
        <pt x="1369" y="368" on="0"/>
        <pt x="1369" y="354" on="1"/>
        <pt x="1369" y="327" on="0"/>
        <pt x="1312" y="231" on="0"/>
        <pt x="1278" y="168" on="0"/>
        <pt x="1250" y="105" on="0"/>
        <pt x="1238" y="72" on="1"/>
        <pt x="1213" y="0" on="1"/>
        <pt x="1121" y="0" on="1"/>
        <pt x="1065" y="-97" on="0"/>
        <pt x="1065" y="-198" on="1"/>
        <pt x="1065" y="-312" on="0"/>
        <pt x="1202" y="-376" on="1"/>
        <pt x="1249" y="-399" on="0"/>
        <pt x="1339" y="-418" on="0"/>
        <pt x="1353" y="-434" on="0"/>
        <pt x="1353" y="-443" on="1"/>
        <pt x="1353" y="-452" on="0"/>
        <pt x="1337" y="-466" on="0"/>
        <pt x="1324" y="-466" on="1"/>
        <pt x="1102" y="-468" on="1"/>
        <pt x="968" y="-468" on="0"/>
        <pt x="924" y="-372" on="1"/>
        <pt x="908" y="-338" on="0"/>
      </contour>
    </TTGlyph>
    <TTGlyph name="Eth" xMin="100" yMin="-24" xMax="1765" yMax="1542">
      <contour>
        <pt x="182" y="1462" on="1"/>
        <pt x="133" y="1455" on="1"/>
        <pt x="100" y="1455" on="0"/>
        <pt x="100" y="1483" on="1"/>
        <pt x="100" y="1499" on="0"/>
        <pt x="137" y="1528" on="0"/>
        <pt x="225" y="1528" on="0"/>
        <pt x="250" y="1526" on="1"/>
        <pt x="298" y="1522" on="1"/>
        <pt x="367" y="1514" on="0"/>
        <pt x="433" y="1514" on="1"/>
        <pt x="534" y="1514" on="0"/>
        <pt x="632" y="1524" on="1"/>
        <pt x="810" y="1542" on="0"/>
        <pt x="905" y="1542" on="1"/>
        <pt x="1295" y="1542" on="0"/>
        <pt x="1530" y="1332" on="1"/>
        <pt x="1765" y="1122" on="0"/>
        <pt x="1765" y="770" on="1"/>
        <pt x="1765" y="428" on="0"/>
        <pt x="1505" y="200" on="1"/>
        <pt x="1249" y="-24" on="0"/>
        <pt x="872" y="-24" on="1"/>
        <pt x="789" y="-24" on="0"/>
        <pt x="730" y="-16" on="1"/>
        <pt x="623" y="-1" on="1"/>
        <pt x="513" y="15" on="0"/>
        <pt x="418" y="15" on="0"/>
        <pt x="382" y="14" on="0"/>
        <pt x="364" y="13" on="1"/>
        <pt x="320" y="11" on="0"/>
        <pt x="300" y="8" on="1"/>
        <pt x="153" y="-13" on="0"/>
        <pt x="118" y="15" on="1"/>
        <pt x="100" y="30" on="0"/>
        <pt x="100" y="46" on="1"/>
        <pt x="100" y="73" on="0"/>
        <pt x="133" y="73" on="1"/>
        <pt x="197" y="66" on="1"/>
        <pt x="254" y="66" on="0"/>
        <pt x="275" y="102" on="1"/>
        <pt x="306" y="157" on="0"/>
        <pt x="313" y="279" on="0"/>
        <pt x="313" y="321" on="1"/>
        <pt x="313" y="721" on="1"/>
        <pt x="190" y="721" on="1"/>
        <pt x="158" y="721" on="0"/>
        <pt x="118" y="739" on="0"/>
        <pt x="118" y="805" on="0"/>
        <pt x="159" y="818" on="0"/>
        <pt x="193" y="818" on="1"/>
        <pt x="313" y="818" on="1"/>
        <pt x="313" y="1195" on="1"/>
        <pt x="313" y="1318" on="0"/>
        <pt x="285" y="1396" on="0"/>
        <pt x="274" y="1418" on="1"/>
        <pt x="250" y="1462" on="0"/>
      </contour>
      <contour>
        <pt x="539" y="1311" on="1"/>
        <pt x="539" y="818" on="1"/>
        <pt x="893" y="818" on="1"/>
        <pt x="950" y="818" on="0"/>
        <pt x="962" y="794" on="1"/>
        <pt x="968" y="784" on="0"/>
        <pt x="968" y="760" on="1"/>
        <pt x="968" y="721" on="0"/>
        <pt x="894" y="721" on="1"/>
        <pt x="539" y="721" on="1"/>
        <pt x="539" y="239" on="1"/>
        <pt x="539" y="149" on="0"/>
        <pt x="604" y="114" on="1"/>
        <pt x="676" y="76" on="0"/>
        <pt x="1017" y="76" on="0"/>
        <pt x="1261" y="150" on="0"/>
        <pt x="1345" y="230" on="1"/>
        <pt x="1518" y="396" on="0"/>
        <pt x="1518" y="748" on="1"/>
        <pt x="1518" y="1091" on="0"/>
        <pt x="1334" y="1271" on="1"/>
        <pt x="1156" y="1445" on="0"/>
        <pt x="539" y="1445" on="0"/>
      </contour>
    </TTGlyph>
    <TTGlyph name="Euro" xMin="-50" yMin="-23" xMax="1557" yMax="1576">
      <contour>
        <pt x="374" y="863" on="1"/>
        <pt x="376" y="766" on="0"/>
        <pt x="393" y="670" on="1"/>
        <pt x="1085" y="670" on="1"/>
        <pt x="1113" y="670" on="0"/>
        <pt x="1150" y="660" on="0"/>
        <pt x="1150" y="615" on="0"/>
        <pt x="1139" y="590" on="0"/>
        <pt x="1128" y="584" on="1"/>
        <pt x="1110" y="573" on="0"/>
        <pt x="1066" y="573" on="1"/>
        <pt x="417" y="573" on="1"/>
        <pt x="489" y="345" on="0"/>
        <pt x="658" y="215" on="1"/>
        <pt x="819" y="92" on="0"/>
        <pt x="1020" y="92" on="1"/>
        <pt x="1169" y="92" on="0"/>
        <pt x="1299" y="174" on="1"/>
        <pt x="1434" y="258" on="0"/>
        <pt x="1487" y="395" on="1"/>
        <pt x="1497" y="421" on="0"/>
        <pt x="1513" y="454" on="0"/>
        <pt x="1530" y="454" on="1"/>
        <pt x="1557" y="454" on="0"/>
        <pt x="1557" y="367" on="0"/>
        <pt x="1512" y="260" on="0"/>
        <pt x="1431" y="161" on="0"/>
        <pt x="1320" y="76" on="0"/>
        <pt x="1253" y="44" on="1"/>
        <pt x="1109" y="-23" on="0"/>
        <pt x="798" y="-23" on="0"/>
        <pt x="532" y="64" on="0"/>
        <pt x="431" y="142" on="1"/>
        <pt x="225" y="303" on="0"/>
        <pt x="168" y="573" on="1"/>
        <pt x="12" y="573" on="1"/>
        <pt x="-16" y="573" on="0"/>
        <pt x="-50" y="586" on="0"/>
        <pt x="-50" y="631" on="0"/>
        <pt x="-38" y="655" on="0"/>
        <pt x="-27" y="661" on="1"/>
        <pt x="-10" y="670" on="0"/>
        <pt x="35" y="670" on="1"/>
        <pt x="153" y="670" on="1"/>
        <pt x="149" y="716" on="0"/>
        <pt x="149" y="813" on="0"/>
        <pt x="155" y="863" on="1"/>
        <pt x="12" y="863" on="1"/>
        <pt x="-16" y="863" on="0"/>
        <pt x="-50" y="876" on="0"/>
        <pt x="-50" y="921" on="0"/>
        <pt x="-38" y="945" on="0"/>
        <pt x="-27" y="951" on="1"/>
        <pt x="-10" y="960" on="0"/>
        <pt x="35" y="960" on="1"/>
        <pt x="172" y="960" on="1"/>
        <pt x="236" y="1229" on="0"/>
        <pt x="663" y="1561" on="0"/>
        <pt x="940" y="1561" on="1"/>
        <pt x="1132" y="1561" on="0"/>
        <pt x="1278" y="1500" on="1"/>
        <pt x="1318" y="1483" on="0"/>
        <pt x="1344" y="1483" on="0"/>
        <pt x="1357" y="1484" on="0"/>
        <pt x="1364" y="1488" on="1"/>
        <pt x="1378" y="1494" on="0"/>
        <pt x="1399" y="1515" on="1"/>
        <pt x="1432" y="1548" on="1"/>
        <pt x="1460" y="1576" on="0"/>
        <pt x="1473" y="1576" on="1"/>
        <pt x="1498" y="1576" on="0"/>
        <pt x="1498" y="1523" on="1"/>
        <pt x="1498" y="1402" on="0"/>
        <pt x="1514" y="1342" on="1"/>
        <pt x="1540" y="1248" on="1"/>
        <pt x="1549" y="1213" on="0"/>
        <pt x="1549" y="1190" on="1"/>
        <pt x="1549" y="1148" on="0"/>
        <pt x="1525" y="1148" on="1"/>
        <pt x="1506" y="1148" on="0"/>
        <pt x="1493" y="1169" on="1"/>
        <pt x="1417" y="1287" on="0"/>
        <pt x="1252" y="1374" on="1"/>
        <pt x="1083" y="1463" on="0"/>
        <pt x="825" y="1463" on="0"/>
        <pt x="634" y="1391" on="0"/>
        <pt x="560" y="1325" on="1"/>
        <pt x="405" y="1185" on="0"/>
        <pt x="379" y="960" on="1"/>
        <pt x="1255" y="960" on="1"/>
        <pt x="1283" y="960" on="0"/>
        <pt x="1319" y="950" on="0"/>
        <pt x="1319" y="905" on="0"/>
        <pt x="1308" y="880" on="0"/>
        <pt x="1297" y="874" on="1"/>
        <pt x="1279" y="863" on="0"/>
        <pt x="1236" y="863" on="1"/>
      </contour>
    </TTGlyph>
    <TTGlyph name="F" xMin="59" yMin="-14" xMax="1291" yMax="1528">
      <contour>
        <pt x="610" y="66" on="1"/>
        <pt x="704" y="76" on="1"/>
        <pt x="720" y="76" on="0"/>
        <pt x="737" y="58" on="0"/>
        <pt x="737" y="30" on="0"/>
        <pt x="690" y="0" on="0"/>
        <pt x="624" y="0" on="0"/>
        <pt x="587" y="1" on="0"/>
        <pt x="568" y="2" on="1"/>
        <pt x="540" y="4" on="0"/>
        <pt x="497" y="9" on="0"/>
        <pt x="465" y="12" on="0"/>
        <pt x="448" y="13" on="1"/>
        <pt x="412" y="15" on="0"/>
        <pt x="383" y="15" on="1"/>
        <pt x="305" y="15" on="0"/>
        <pt x="272" y="10" on="1"/>
        <pt x="113" y="-14" on="0"/>
        <pt x="78" y="15" on="1"/>
        <pt x="59" y="30" on="0"/>
        <pt x="59" y="46" on="1"/>
        <pt x="59" y="73" on="0"/>
        <pt x="92" y="73" on="1"/>
        <pt x="156" y="66" on="1"/>
        <pt x="213" y="66" on="0"/>
        <pt x="234" y="102" on="1"/>
        <pt x="265" y="157" on="0"/>
        <pt x="272" y="279" on="0"/>
        <pt x="272" y="321" on="1"/>
        <pt x="272" y="1195" on="1"/>
        <pt x="272" y="1318" on="0"/>
        <pt x="244" y="1396" on="0"/>
        <pt x="232" y="1418" on="1"/>
        <pt x="209" y="1462" on="0"/>
        <pt x="141" y="1462" on="1"/>
        <pt x="92" y="1455" on="1"/>
        <pt x="59" y="1455" on="0"/>
        <pt x="59" y="1483" on="1"/>
        <pt x="59" y="1499" on="0"/>
        <pt x="96" y="1528" on="0"/>
        <pt x="184" y="1528" on="0"/>
        <pt x="209" y="1526" on="1"/>
        <pt x="257" y="1522" on="1"/>
        <pt x="281" y="1518" on="0"/>
        <pt x="312" y="1517" on="1"/>
        <pt x="362" y="1514" on="1"/>
        <pt x="380" y="1513" on="0"/>
        <pt x="396" y="1513" on="1"/>
        <pt x="1210" y="1513" on="1"/>
        <pt x="1221" y="1433" on="0"/>
        <pt x="1246" y="1351" on="1"/>
        <pt x="1291" y="1210" on="0"/>
        <pt x="1291" y="1161" on="0"/>
        <pt x="1259" y="1161" on="0"/>
        <pt x="1231" y="1197" on="0"/>
        <pt x="1212" y="1218" on="1"/>
        <pt x="1123" y="1317" on="0"/>
        <pt x="1073" y="1358" on="0"/>
        <pt x="1029" y="1385" on="0"/>
        <pt x="1002" y="1395" on="1"/>
        <pt x="948" y="1415" on="0"/>
        <pt x="867" y="1415" on="1"/>
        <pt x="591" y="1415" on="1"/>
        <pt x="545" y="1415" on="0"/>
        <pt x="494" y="1356" on="0"/>
        <pt x="494" y="1303" on="1"/>
        <pt x="494" y="895" on="1"/>
        <pt x="494" y="838" on="0"/>
        <pt x="585" y="838" on="1"/>
        <pt x="877" y="838" on="1"/>
        <pt x="948" y="838" on="0"/>
        <pt x="1006" y="908" on="1"/>
        <pt x="1026" y="932" on="0"/>
        <pt x="1046" y="977" on="0"/>
        <pt x="1057" y="993" on="0"/>
        <pt x="1067" y="993" on="1"/>
        <pt x="1092" y="993" on="0"/>
        <pt x="1092" y="942" on="1"/>
        <pt x="1084" y="782" on="1"/>
        <pt x="1092" y="627" on="1"/>
        <pt x="1092" y="577" on="0"/>
        <pt x="1067" y="577" on="1"/>
        <pt x="1053" y="577" on="0"/>
        <pt x="1026" y="637" on="0"/>
        <pt x="986" y="688" on="0"/>
        <pt x="964" y="705" on="1"/>
        <pt x="917" y="740" on="0"/>
        <pt x="877" y="740" on="1"/>
        <pt x="584" y="740" on="1"/>
        <pt x="541" y="740" on="0"/>
        <pt x="494" y="702" on="0"/>
        <pt x="494" y="674" on="1"/>
        <pt x="494" y="321" on="1"/>
        <pt x="494" y="197" on="0"/>
        <pt x="522" y="120" on="0"/>
        <pt x="532" y="102" on="1"/>
        <pt x="553" y="66" on="0"/>
      </contour>
    </TTGlyph>
    <TTGlyph name="G" xMin="118" yMin="-23" xMax="1693" yMax="1587">
      <contour>
        <pt x="1660" y="747" on="1"/>
        <pt x="1589" y="755" on="1"/>
        <pt x="1534" y="755" on="0"/>
        <pt x="1532" y="580" on="1"/>
        <pt x="1532" y="536" on="0"/>
        <pt x="1532" y="500" on="1"/>
        <pt x="1532" y="199" on="1"/>
        <pt x="1448" y="154" on="1"/>
        <pt x="1408" y="133" on="0"/>
        <pt x="1339" y="83" on="0"/>
        <pt x="1235" y="31" on="0"/>
        <pt x="1174" y="13" on="1"/>
        <pt x="1050" y="-23" on="0"/>
        <pt x="706" y="-23" on="0"/>
        <pt x="425" y="96" on="0"/>
        <pt x="326" y="198" on="1"/>
        <pt x="118" y="412" on="0"/>
        <pt x="118" y="729" on="1"/>
        <pt x="118" y="1088" on="0"/>
        <pt x="341" y="1324" on="1"/>
        <pt x="484" y="1475" on="0"/>
        <pt x="696" y="1532" on="1"/>
        <pt x="802" y="1561" on="0"/>
        <pt x="904" y="1561" on="1"/>
        <pt x="1080" y="1561" on="0"/>
        <pt x="1216" y="1505" on="1"/>
        <pt x="1258" y="1489" on="0"/>
        <pt x="1289" y="1489" on="0"/>
        <pt x="1300" y="1491" on="0"/>
        <pt x="1308" y="1496" on="1"/>
        <pt x="1320" y="1503" on="0"/>
        <pt x="1348" y="1531" on="1"/>
        <pt x="1377" y="1561" on="1"/>
        <pt x="1403" y="1587" on="0"/>
        <pt x="1419" y="1587" on="1"/>
        <pt x="1443" y="1587" on="0"/>
        <pt x="1443" y="1512" on="0"/>
        <pt x="1451" y="1448" on="0"/>
        <pt x="1458" y="1415" on="1"/>
        <pt x="1472" y="1342" on="0"/>
        <pt x="1485" y="1297" on="1"/>
        <pt x="1508" y="1222" on="0"/>
        <pt x="1508" y="1140" on="0"/>
        <pt x="1486" y="1140" on="1"/>
        <pt x="1467" y="1140" on="0"/>
        <pt x="1454" y="1162" on="1"/>
        <pt x="1383" y="1294" on="0"/>
        <pt x="1232" y="1374" on="1"/>
        <pt x="1085" y="1451" on="0"/>
        <pt x="779" y="1451" on="0"/>
        <pt x="565" y="1368" on="0"/>
        <pt x="490" y="1294" on="1"/>
        <pt x="332" y="1138" on="0"/>
        <pt x="332" y="889" on="1"/>
        <pt x="332" y="531" on="0"/>
        <pt x="557" y="303" on="1"/>
        <pt x="692" y="166" on="0"/>
        <pt x="872" y="116" on="1"/>
        <pt x="960" y="91" on="0"/>
        <pt x="1105" y="91" on="0"/>
        <pt x="1202" y="117" on="0"/>
        <pt x="1238" y="142" on="1"/>
        <pt x="1315" y="197" on="0"/>
        <pt x="1315" y="293" on="1"/>
        <pt x="1315" y="500" on="1"/>
        <pt x="1315" y="624" on="0"/>
        <pt x="1287" y="701" on="0"/>
        <pt x="1276" y="720" on="1"/>
        <pt x="1256" y="755" on="0"/>
        <pt x="1199" y="755" on="1"/>
        <pt x="1125" y="745" on="1"/>
        <pt x="1109" y="745" on="0"/>
        <pt x="1092" y="763" on="0"/>
        <pt x="1092" y="791" on="0"/>
        <pt x="1129" y="821" on="0"/>
        <pt x="1195" y="821" on="0"/>
        <pt x="1229" y="820" on="0"/>
        <pt x="1262" y="818" on="0"/>
        <pt x="1276" y="816" on="1"/>
        <pt x="1300" y="814" on="1"/>
        <pt x="1348" y="806" on="0"/>
        <pt x="1401" y="806" on="1"/>
        <pt x="1475" y="806" on="0"/>
        <pt x="1565" y="821" on="0"/>
        <pt x="1656" y="821" on="0"/>
        <pt x="1693" y="791" on="0"/>
        <pt x="1693" y="775" on="1"/>
        <pt x="1693" y="747" on="0"/>
      </contour>
    </TTGlyph>
    <TTGlyph name="Gbreve" xMin="118" yMin="-23" xMax="1693" yMax="2017">
      <component glyphName="G" x="0" y="0" flags="0x1204"/>
      <component glyphName="breve.cap" x="395" y="0" flags="0x1004"/>
    </TTGlyph>
    <TTGlyph name="Gcircumflex" xMin="118" yMin="-23" xMax="1693" yMax="2030">
      <component glyphName="G" x="0" y="0" flags="0x1204"/>
      <component glyphName="circumflex.cap" x="463" y="0" flags="0x1004"/>
    </TTGlyph>
    <TTGlyph name="Gcommaaccent" xMin="118" yMin="-530" xMax="1693" yMax="1587">
      <component glyphName="G" x="0" y="0" flags="0x1204"/>
      <component glyphName="commaaccent" x="590" y="0" flags="0x1004"/>
    </TTGlyph>
    <TTGlyph name="Gdotaccent" xMin="118" yMin="-23" xMax="1693" yMax="2030">
      <component glyphName="G" x="0" y="0" flags="0x1204"/>
      <component glyphName="dotaccent.cap" x="630" y="0" flags="0x1004"/>
    </TTGlyph>
    <TTGlyph name="H" xMin="90" yMin="-14" xMax="1786" yMax="1528">
      <contour>
        <pt x="705" y="73" on="1"/>
        <pt x="738" y="73" on="0"/>
        <pt x="738" y="46" on="1"/>
        <pt x="738" y="30" on="0"/>
        <pt x="701" y="0" on="0"/>
        <pt x="661" y="0" on="1"/>
        <pt x="603" y="0" on="0"/>
        <pt x="528" y="9" on="0"/>
        <pt x="496" y="12" on="0"/>
        <pt x="478" y="13" on="1"/>
        <pt x="444" y="15" on="0"/>
        <pt x="414" y="15" on="1"/>
        <pt x="336" y="15" on="0"/>
        <pt x="303" y="10" on="1"/>
        <pt x="144" y="-14" on="0"/>
        <pt x="108" y="15" on="1"/>
        <pt x="90" y="30" on="0"/>
        <pt x="90" y="46" on="1"/>
        <pt x="90" y="73" on="0"/>
        <pt x="123" y="73" on="1"/>
        <pt x="187" y="66" on="1"/>
        <pt x="244" y="66" on="0"/>
        <pt x="265" y="102" on="1"/>
        <pt x="296" y="157" on="0"/>
        <pt x="303" y="279" on="0"/>
        <pt x="303" y="321" on="1"/>
        <pt x="303" y="1207" on="1"/>
        <pt x="303" y="1331" on="0"/>
        <pt x="275" y="1408" on="0"/>
        <pt x="264" y="1426" on="1"/>
        <pt x="244" y="1462" on="0"/>
        <pt x="187" y="1462" on="1"/>
        <pt x="123" y="1455" on="1"/>
        <pt x="90" y="1455" on="0"/>
        <pt x="90" y="1482" on="1"/>
        <pt x="90" y="1498" on="0"/>
        <pt x="127" y="1528" on="0"/>
        <pt x="167" y="1528" on="1"/>
        <pt x="225" y="1528" on="0"/>
        <pt x="300" y="1519" on="0"/>
        <pt x="332" y="1516" on="0"/>
        <pt x="350" y="1515" on="1"/>
        <pt x="384" y="1513" on="0"/>
        <pt x="414" y="1513" on="1"/>
        <pt x="492" y="1513" on="0"/>
        <pt x="525" y="1518" on="1"/>
        <pt x="591" y="1528" on="0"/>
        <pt x="701" y="1528" on="0"/>
        <pt x="738" y="1498" on="0"/>
        <pt x="738" y="1482" on="1"/>
        <pt x="738" y="1455" on="0"/>
        <pt x="705" y="1455" on="1"/>
        <pt x="641" y="1462" on="1"/>
        <pt x="584" y="1462" on="0"/>
        <pt x="563" y="1426" on="1"/>
        <pt x="532" y="1371" on="0"/>
        <pt x="525" y="1249" on="0"/>
        <pt x="525" y="1207" on="1"/>
        <pt x="525" y="1005" on="1"/>
        <pt x="525" y="977" on="0"/>
        <pt x="542" y="967" on="1"/>
        <pt x="574" y="949" on="0"/>
        <pt x="635" y="949" on="1"/>
        <pt x="1241" y="949" on="1"/>
        <pt x="1351" y="949" on="0"/>
        <pt x="1351" y="1005" on="1"/>
        <pt x="1351" y="1207" on="1"/>
        <pt x="1351" y="1331" on="0"/>
        <pt x="1323" y="1408" on="0"/>
        <pt x="1312" y="1426" on="1"/>
        <pt x="1292" y="1462" on="0"/>
        <pt x="1235" y="1462" on="1"/>
        <pt x="1171" y="1455" on="1"/>
        <pt x="1138" y="1455" on="0"/>
        <pt x="1138" y="1482" on="1"/>
        <pt x="1138" y="1498" on="0"/>
        <pt x="1175" y="1528" on="0"/>
        <pt x="1215" y="1528" on="1"/>
        <pt x="1273" y="1528" on="0"/>
        <pt x="1348" y="1519" on="0"/>
        <pt x="1380" y="1516" on="0"/>
        <pt x="1398" y="1515" on="1"/>
        <pt x="1432" y="1513" on="0"/>
        <pt x="1462" y="1513" on="1"/>
        <pt x="1540" y="1513" on="0"/>
        <pt x="1573" y="1518" on="1"/>
        <pt x="1639" y="1528" on="0"/>
        <pt x="1749" y="1528" on="0"/>
        <pt x="1786" y="1498" on="0"/>
        <pt x="1786" y="1482" on="1"/>
        <pt x="1786" y="1455" on="0"/>
        <pt x="1753" y="1455" on="1"/>
        <pt x="1689" y="1462" on="1"/>
        <pt x="1632" y="1462" on="0"/>
        <pt x="1611" y="1426" on="1"/>
        <pt x="1580" y="1371" on="0"/>
        <pt x="1573" y="1249" on="0"/>
        <pt x="1573" y="1207" on="1"/>
        <pt x="1573" y="321" on="1"/>
        <pt x="1573" y="197" on="0"/>
        <pt x="1601" y="120" on="0"/>
        <pt x="1612" y="102" on="1"/>
        <pt x="1632" y="66" on="0"/>
        <pt x="1689" y="66" on="1"/>
        <pt x="1753" y="73" on="1"/>
        <pt x="1786" y="73" on="0"/>
        <pt x="1786" y="46" on="1"/>
        <pt x="1786" y="30" on="0"/>
        <pt x="1749" y="0" on="0"/>
        <pt x="1709" y="0" on="1"/>
        <pt x="1651" y="0" on="0"/>
        <pt x="1576" y="9" on="0"/>
        <pt x="1544" y="12" on="0"/>
        <pt x="1526" y="13" on="1"/>
        <pt x="1492" y="15" on="0"/>
        <pt x="1462" y="15" on="1"/>
        <pt x="1384" y="15" on="0"/>
        <pt x="1351" y="10" on="1"/>
        <pt x="1192" y="-14" on="0"/>
        <pt x="1156" y="15" on="1"/>
        <pt x="1138" y="30" on="0"/>
        <pt x="1138" y="46" on="1"/>
        <pt x="1138" y="73" on="0"/>
        <pt x="1171" y="73" on="1"/>
        <pt x="1235" y="66" on="1"/>
        <pt x="1292" y="66" on="0"/>
        <pt x="1313" y="102" on="1"/>
        <pt x="1344" y="157" on="0"/>
        <pt x="1351" y="279" on="0"/>
        <pt x="1351" y="321" on="1"/>
        <pt x="1351" y="781" on="1"/>
        <pt x="1351" y="809" on="0"/>
        <pt x="1298" y="849" on="0"/>
        <pt x="1241" y="849" on="1"/>
        <pt x="635" y="849" on="1"/>
        <pt x="577" y="849" on="0"/>
        <pt x="525" y="809" on="0"/>
        <pt x="525" y="781" on="1"/>
        <pt x="525" y="321" on="1"/>
        <pt x="525" y="197" on="0"/>
        <pt x="553" y="120" on="0"/>
        <pt x="564" y="102" on="1"/>
        <pt x="584" y="66" on="0"/>
        <pt x="641" y="66" on="1"/>
      </contour>
    </TTGlyph>
    <TTGlyph name="Hbar" xMin="78" yMin="-14" xMax="1830" yMax="1528">
      <contour>
        <pt x="705" y="73" on="1"/>
        <pt x="738" y="73" on="0"/>
        <pt x="738" y="46" on="1"/>
        <pt x="738" y="30" on="0"/>
        <pt x="701" y="0" on="0"/>
        <pt x="661" y="0" on="1"/>
        <pt x="603" y="0" on="0"/>
        <pt x="528" y="9" on="0"/>
        <pt x="496" y="12" on="0"/>
        <pt x="478" y="13" on="1"/>
        <pt x="444" y="15" on="0"/>
        <pt x="414" y="15" on="1"/>
        <pt x="336" y="15" on="0"/>
        <pt x="303" y="10" on="1"/>
        <pt x="144" y="-14" on="0"/>
        <pt x="108" y="15" on="1"/>
        <pt x="90" y="30" on="0"/>
        <pt x="90" y="46" on="1"/>
        <pt x="90" y="73" on="0"/>
        <pt x="123" y="73" on="1"/>
        <pt x="187" y="66" on="1"/>
        <pt x="244" y="66" on="0"/>
        <pt x="265" y="102" on="1"/>
        <pt x="296" y="157" on="0"/>
        <pt x="303" y="279" on="0"/>
        <pt x="303" y="321" on="1"/>
        <pt x="303" y="1094" on="1"/>
        <pt x="170" y="1094" on="1"/>
        <pt x="78" y="1094" on="0"/>
        <pt x="78" y="1146" on="1"/>
        <pt x="78" y="1191" on="0"/>
        <pt x="173" y="1191" on="1"/>
        <pt x="303" y="1191" on="1"/>
        <pt x="303" y="1207" on="1"/>
        <pt x="303" y="1331" on="0"/>
        <pt x="275" y="1408" on="0"/>
        <pt x="264" y="1426" on="1"/>
        <pt x="244" y="1462" on="0"/>
        <pt x="187" y="1462" on="1"/>
        <pt x="123" y="1455" on="1"/>
        <pt x="90" y="1455" on="0"/>
        <pt x="90" y="1482" on="1"/>
        <pt x="90" y="1498" on="0"/>
        <pt x="127" y="1528" on="0"/>
        <pt x="167" y="1528" on="1"/>
        <pt x="225" y="1528" on="0"/>
        <pt x="300" y="1519" on="0"/>
        <pt x="332" y="1516" on="0"/>
        <pt x="350" y="1515" on="1"/>
        <pt x="384" y="1513" on="0"/>
        <pt x="414" y="1513" on="1"/>
        <pt x="492" y="1513" on="0"/>
        <pt x="525" y="1518" on="1"/>
        <pt x="591" y="1528" on="0"/>
        <pt x="701" y="1528" on="0"/>
        <pt x="738" y="1498" on="0"/>
        <pt x="738" y="1482" on="1"/>
        <pt x="738" y="1455" on="0"/>
        <pt x="705" y="1455" on="1"/>
        <pt x="641" y="1462" on="1"/>
        <pt x="584" y="1462" on="0"/>
        <pt x="563" y="1426" on="1"/>
        <pt x="532" y="1371" on="0"/>
        <pt x="525" y="1249" on="0"/>
        <pt x="525" y="1207" on="1"/>
        <pt x="525" y="1191" on="1"/>
        <pt x="1351" y="1191" on="1"/>
        <pt x="1351" y="1207" on="1"/>
        <pt x="1351" y="1331" on="0"/>
        <pt x="1323" y="1408" on="0"/>
        <pt x="1312" y="1426" on="1"/>
        <pt x="1292" y="1462" on="0"/>
        <pt x="1235" y="1462" on="1"/>
        <pt x="1171" y="1455" on="1"/>
        <pt x="1138" y="1455" on="0"/>
        <pt x="1138" y="1482" on="1"/>
        <pt x="1138" y="1498" on="0"/>
        <pt x="1175" y="1528" on="0"/>
        <pt x="1215" y="1528" on="1"/>
        <pt x="1273" y="1528" on="0"/>
        <pt x="1348" y="1519" on="0"/>
        <pt x="1380" y="1516" on="0"/>
        <pt x="1398" y="1515" on="1"/>
        <pt x="1432" y="1513" on="0"/>
        <pt x="1462" y="1513" on="1"/>
        <pt x="1540" y="1513" on="0"/>
        <pt x="1573" y="1518" on="1"/>
        <pt x="1639" y="1528" on="0"/>
        <pt x="1749" y="1528" on="0"/>
        <pt x="1786" y="1498" on="0"/>
        <pt x="1786" y="1482" on="1"/>
        <pt x="1786" y="1455" on="0"/>
        <pt x="1753" y="1455" on="1"/>
        <pt x="1689" y="1462" on="1"/>
        <pt x="1632" y="1462" on="0"/>
        <pt x="1611" y="1426" on="1"/>
        <pt x="1580" y="1371" on="0"/>
        <pt x="1573" y="1249" on="0"/>
        <pt x="1573" y="1207" on="1"/>
        <pt x="1573" y="1191" on="1"/>
        <pt x="1735" y="1191" on="1"/>
        <pt x="1830" y="1191" on="0"/>
        <pt x="1830" y="1139" on="1"/>
        <pt x="1830" y="1094" on="0"/>
        <pt x="1736" y="1094" on="1"/>
        <pt x="1573" y="1094" on="1"/>
        <pt x="1573" y="321" on="1"/>
        <pt x="1573" y="197" on="0"/>
        <pt x="1601" y="120" on="0"/>
        <pt x="1612" y="102" on="1"/>
        <pt x="1632" y="66" on="0"/>
        <pt x="1689" y="66" on="1"/>
        <pt x="1753" y="73" on="1"/>
        <pt x="1786" y="73" on="0"/>
        <pt x="1786" y="46" on="1"/>
        <pt x="1786" y="30" on="0"/>
        <pt x="1749" y="0" on="0"/>
        <pt x="1709" y="0" on="1"/>
        <pt x="1651" y="0" on="0"/>
        <pt x="1576" y="9" on="0"/>
        <pt x="1544" y="12" on="0"/>
        <pt x="1526" y="13" on="1"/>
        <pt x="1492" y="15" on="0"/>
        <pt x="1462" y="15" on="1"/>
        <pt x="1384" y="15" on="0"/>
        <pt x="1351" y="10" on="1"/>
        <pt x="1192" y="-14" on="0"/>
        <pt x="1156" y="15" on="1"/>
        <pt x="1138" y="30" on="0"/>
        <pt x="1138" y="46" on="1"/>
        <pt x="1138" y="73" on="0"/>
        <pt x="1171" y="73" on="1"/>
        <pt x="1235" y="66" on="1"/>
        <pt x="1292" y="66" on="0"/>
        <pt x="1313" y="102" on="1"/>
        <pt x="1344" y="157" on="0"/>
        <pt x="1351" y="279" on="0"/>
        <pt x="1351" y="321" on="1"/>
        <pt x="1351" y="651" on="1"/>
        <pt x="1351" y="679" on="0"/>
        <pt x="1298" y="719" on="0"/>
        <pt x="1241" y="719" on="1"/>
        <pt x="635" y="719" on="1"/>
        <pt x="577" y="719" on="0"/>
        <pt x="525" y="679" on="0"/>
        <pt x="525" y="651" on="1"/>
        <pt x="525" y="321" on="1"/>
        <pt x="525" y="197" on="0"/>
        <pt x="553" y="120" on="0"/>
        <pt x="564" y="102" on="1"/>
        <pt x="584" y="66" on="0"/>
        <pt x="641" y="66" on="1"/>
      </contour>
      <contour>
        <pt x="1241" y="819" on="1"/>
        <pt x="1351" y="819" on="0"/>
        <pt x="1351" y="875" on="1"/>
        <pt x="1351" y="1094" on="1"/>
        <pt x="525" y="1094" on="1"/>
        <pt x="525" y="875" on="1"/>
        <pt x="525" y="847" on="0"/>
        <pt x="542" y="837" on="1"/>
        <pt x="574" y="819" on="0"/>
        <pt x="635" y="819" on="1"/>
      </contour>
    </TTGlyph>
    <TTGlyph name="Hcircumflex" xMin="90" yMin="-14" xMax="1786" yMax="2030">
      <component glyphName="H" x="0" y="0" flags="0x1204"/>
      <component glyphName="circumflex.cap" x="496" y="0" flags="0x1004"/>
    </TTGlyph>
    <TTGlyph name="I" xMin="103" yMin="-14" xMax="751" yMax="1528">
      <contour>
        <pt x="718" y="73" on="1"/>
        <pt x="751" y="73" on="0"/>
        <pt x="751" y="46" on="1"/>
        <pt x="751" y="30" on="0"/>
        <pt x="714" y="0" on="0"/>
        <pt x="674" y="0" on="1"/>
        <pt x="616" y="0" on="0"/>
        <pt x="541" y="9" on="0"/>
        <pt x="509" y="12" on="0"/>
        <pt x="492" y="13" on="1"/>
        <pt x="456" y="15" on="0"/>
        <pt x="427" y="15" on="1"/>
        <pt x="349" y="15" on="0"/>
        <pt x="316" y="10" on="1"/>
        <pt x="157" y="-14" on="0"/>
        <pt x="122" y="15" on="1"/>
        <pt x="103" y="30" on="0"/>
        <pt x="103" y="46" on="1"/>
        <pt x="103" y="73" on="0"/>
        <pt x="136" y="73" on="1"/>
        <pt x="200" y="66" on="1"/>
        <pt x="257" y="66" on="0"/>
        <pt x="278" y="102" on="1"/>
        <pt x="309" y="157" on="0"/>
        <pt x="316" y="279" on="0"/>
        <pt x="316" y="321" on="1"/>
        <pt x="316" y="1207" on="1"/>
        <pt x="316" y="1331" on="0"/>
        <pt x="288" y="1408" on="0"/>
        <pt x="278" y="1426" on="1"/>
        <pt x="257" y="1462" on="0"/>
        <pt x="200" y="1462" on="1"/>
        <pt x="136" y="1455" on="1"/>
        <pt x="103" y="1455" on="0"/>
        <pt x="103" y="1482" on="1"/>
        <pt x="103" y="1498" on="0"/>
        <pt x="140" y="1528" on="0"/>
        <pt x="180" y="1528" on="1"/>
        <pt x="238" y="1528" on="0"/>
        <pt x="313" y="1519" on="0"/>
        <pt x="345" y="1516" on="0"/>
        <pt x="362" y="1515" on="1"/>
        <pt x="398" y="1513" on="0"/>
        <pt x="427" y="1513" on="1"/>
        <pt x="505" y="1513" on="0"/>
        <pt x="538" y="1518" on="1"/>
        <pt x="604" y="1528" on="0"/>
        <pt x="714" y="1528" on="0"/>
        <pt x="751" y="1498" on="0"/>
        <pt x="751" y="1482" on="1"/>
        <pt x="751" y="1455" on="0"/>
        <pt x="718" y="1455" on="1"/>
        <pt x="654" y="1462" on="1"/>
        <pt x="597" y="1462" on="0"/>
        <pt x="576" y="1426" on="1"/>
        <pt x="545" y="1371" on="0"/>
        <pt x="538" y="1249" on="0"/>
        <pt x="538" y="1207" on="1"/>
        <pt x="538" y="321" on="1"/>
        <pt x="538" y="197" on="0"/>
        <pt x="566" y="120" on="0"/>
        <pt x="576" y="102" on="1"/>
        <pt x="597" y="66" on="0"/>
        <pt x="654" y="66" on="1"/>
      </contour>
    </TTGlyph>
    <TTGlyph name="IJ" xMin="103" yMin="-23" xMax="2215" yMax="1528">
      <component glyphName="I" x="0" y="0" flags="0x1004"/>
      <component glyphName="J" x="854" y="0" flags="0x1004"/>
    </TTGlyph>
    <TTGlyph name="Iacute" xMin="103" yMin="-14" xMax="751" yMax="2026">
      <component glyphName="I" x="0" y="0" flags="0x1204"/>
      <component glyphName="acute.cap" x="105" y="0" flags="0x1004"/>
    </TTGlyph>
    <TTGlyph name="Ibreve" xMin="10" yMin="-14" xMax="846" yMax="2017">
      <component glyphName="I" x="0" y="0" flags="0x1204"/>
      <component glyphName="breve.cap" x="-82" y="0" flags="0x1004"/>
    </TTGlyph>
    <TTGlyph name="Icircumflex" xMin="86" yMin="-14" xMax="770" yMax="2030">
      <component glyphName="I" x="0" y="0" flags="0x1204"/>
      <component glyphName="circumflex.cap" x="-14" y="0" flags="0x1004"/>
    </TTGlyph>
    <TTGlyph name="Idieresis" xMin="-7" yMin="-14" xMax="864" yMax="1982">
      <component glyphName="I" x="0" y="0" flags="0x1204"/>
      <component glyphName="dieresis.cap" x="-107" y="0" flags="0x1004"/>
    </TTGlyph>
    <TTGlyph name="Idotaccent" xMin="103" yMin="-14" xMax="751" yMax="2030">
      <component glyphName="I" x="0" y="0" flags="0x1204"/>
      <component glyphName="dotaccent.cap" x="152" y="0" flags="0x1004"/>
    </TTGlyph>
    <TTGlyph name="Igrave" xMin="103" yMin="-14" xMax="751" yMax="2026">
      <component glyphName="I" x="0" y="0" flags="0x1204"/>
      <component glyphName="grave.cap" x="105" y="0" flags="0x1004"/>
    </TTGlyph>
    <TTGlyph name="Imacron" xMin="16" yMin="-14" xMax="838" yMax="1938">
      <component glyphName="I" x="0" y="0" flags="0x1204"/>
      <component glyphName="macron.cap" x="938" y="0" flags="0x1004"/>
    </TTGlyph>
    <TTGlyph name="Iogonek" xMin="103" yMin="-468" xMax="751" yMax="1528">
      <contour>
        <pt x="405" y="15" on="1"/>
        <pt x="191" y="0" on="1"/>
        <pt x="140" y="0" on="0"/>
        <pt x="103" y="30" on="0"/>
        <pt x="103" y="46" on="1"/>
        <pt x="103" y="73" on="0"/>
        <pt x="136" y="73" on="1"/>
        <pt x="200" y="66" on="1"/>
        <pt x="257" y="66" on="0"/>
        <pt x="278" y="102" on="1"/>
        <pt x="309" y="157" on="0"/>
        <pt x="316" y="279" on="0"/>
        <pt x="316" y="321" on="1"/>
        <pt x="316" y="1207" on="1"/>
        <pt x="316" y="1331" on="0"/>
        <pt x="288" y="1408" on="0"/>
        <pt x="278" y="1426" on="1"/>
        <pt x="257" y="1462" on="0"/>
        <pt x="200" y="1462" on="1"/>
        <pt x="136" y="1455" on="1"/>
        <pt x="103" y="1455" on="0"/>
        <pt x="103" y="1482" on="1"/>
        <pt x="103" y="1498" on="0"/>
        <pt x="140" y="1528" on="0"/>
        <pt x="180" y="1528" on="1"/>
        <pt x="238" y="1528" on="0"/>
        <pt x="313" y="1519" on="0"/>
        <pt x="345" y="1516" on="0"/>
        <pt x="362" y="1515" on="1"/>
        <pt x="398" y="1513" on="0"/>
        <pt x="427" y="1513" on="1"/>
        <pt x="505" y="1513" on="0"/>
        <pt x="538" y="1518" on="1"/>
        <pt x="604" y="1528" on="0"/>
        <pt x="714" y="1528" on="0"/>
        <pt x="751" y="1498" on="0"/>
        <pt x="751" y="1482" on="1"/>
        <pt x="751" y="1455" on="0"/>
        <pt x="718" y="1455" on="1"/>
        <pt x="654" y="1462" on="1"/>
        <pt x="597" y="1462" on="0"/>
        <pt x="576" y="1426" on="1"/>
        <pt x="545" y="1371" on="0"/>
        <pt x="538" y="1249" on="0"/>
        <pt x="538" y="1207" on="1"/>
        <pt x="538" y="321" on="1"/>
        <pt x="538" y="197" on="0"/>
        <pt x="566" y="120" on="0"/>
        <pt x="576" y="102" on="1"/>
        <pt x="597" y="66" on="0"/>
        <pt x="654" y="66" on="1"/>
        <pt x="718" y="73" on="1"/>
        <pt x="751" y="73" on="0"/>
        <pt x="751" y="46" on="1"/>
        <pt x="751" y="30" on="0"/>
        <pt x="714" y="0" on="0"/>
        <pt x="637" y="0" on="0"/>
        <pt x="516" y="11" on="1"/>
        <pt x="456" y="-88" on="0"/>
        <pt x="456" y="-198" on="1"/>
        <pt x="456" y="-312" on="0"/>
        <pt x="592" y="-376" on="1"/>
        <pt x="640" y="-399" on="0"/>
        <pt x="730" y="-418" on="0"/>
        <pt x="744" y="-434" on="0"/>
        <pt x="744" y="-443" on="1"/>
        <pt x="744" y="-452" on="0"/>
        <pt x="728" y="-466" on="0"/>
        <pt x="715" y="-466" on="1"/>
        <pt x="493" y="-468" on="1"/>
        <pt x="359" y="-468" on="0"/>
        <pt x="315" y="-372" on="1"/>
        <pt x="299" y="-338" on="0"/>
        <pt x="299" y="-289" on="1"/>
        <pt x="299" y="-114" on="0"/>
      </contour>
    </TTGlyph>
    <TTGlyph name="Itilde" xMin="49" yMin="-14" xMax="807" yMax="1949">
      <component glyphName="I" x="0" y="0" flags="0x1204"/>
      <component glyphName="tilde.cap" x="-51" y="0" flags="0x1004"/>
    </TTGlyph>
    <TTGlyph name="J" xMin="157" yMin="-23" xMax="1361" yMax="1528">
      <contour>
        <pt x="1328" y="1455" on="1"/>
        <pt x="1264" y="1462" on="1"/>
        <pt x="1207" y="1462" on="0"/>
        <pt x="1186" y="1426" on="1"/>
        <pt x="1155" y="1371" on="0"/>
        <pt x="1148" y="1249" on="0"/>
        <pt x="1148" y="1207" on="1"/>
        <pt x="1148" y="477" on="1"/>
        <pt x="1148" y="237" on="0"/>
        <pt x="964" y="100" on="1"/>
        <pt x="801" y="-23" on="0"/>
        <pt x="573" y="-23" on="1"/>
        <pt x="426" y="-23" on="0"/>
        <pt x="267" y="44" on="1"/>
        <pt x="210" y="68" on="0"/>
        <pt x="157" y="103" on="1"/>
        <pt x="157" y="470" on="1"/>
        <pt x="157" y="565" on="0"/>
        <pt x="175" y="580" on="1"/>
        <pt x="181" y="585" on="0"/>
        <pt x="202" y="585" on="0"/>
        <pt x="214" y="561" on="0"/>
        <pt x="254" y="396" on="0"/>
        <pt x="344" y="221" on="0"/>
        <pt x="396" y="169" on="1"/>
        <pt x="491" y="75" on="0"/>
        <pt x="622" y="75" on="1"/>
        <pt x="832" y="75" on="0"/>
        <pt x="902" y="294" on="1"/>
        <pt x="926" y="371" on="0"/>
        <pt x="926" y="482" on="1"/>
        <pt x="926" y="1207" on="1"/>
        <pt x="926" y="1331" on="0"/>
        <pt x="898" y="1408" on="0"/>
        <pt x="888" y="1426" on="1"/>
        <pt x="867" y="1462" on="0"/>
        <pt x="810" y="1462" on="1"/>
        <pt x="746" y="1455" on="1"/>
        <pt x="713" y="1455" on="0"/>
        <pt x="713" y="1482" on="1"/>
        <pt x="713" y="1498" on="0"/>
        <pt x="750" y="1528" on="0"/>
        <pt x="790" y="1528" on="1"/>
        <pt x="848" y="1528" on="0"/>
        <pt x="923" y="1519" on="0"/>
        <pt x="955" y="1516" on="0"/>
        <pt x="972" y="1515" on="1"/>
        <pt x="1008" y="1513" on="0"/>
        <pt x="1037" y="1513" on="1"/>
        <pt x="1115" y="1513" on="0"/>
        <pt x="1148" y="1518" on="1"/>
        <pt x="1214" y="1528" on="0"/>
        <pt x="1324" y="1528" on="0"/>
        <pt x="1361" y="1498" on="0"/>
        <pt x="1361" y="1482" on="1"/>
        <pt x="1361" y="1455" on="0"/>
      </contour>
    </TTGlyph>
    <TTGlyph name="Jcircumflex" xMin="157" yMin="-23" xMax="1381" yMax="2030">
      <component glyphName="J" x="0" y="0" flags="0x1204"/>
      <component glyphName="circumflex.cap" x="597" y="0" flags="0x1004"/>
    </TTGlyph>
    <TTGlyph name="K" xMin="92" yMin="-14" xMax="1603" yMax="1528">
      <contour>
        <pt x="707" y="73" on="1"/>
        <pt x="740" y="73" on="0"/>
        <pt x="740" y="46" on="1"/>
        <pt x="740" y="30" on="0"/>
        <pt x="703" y="0" on="0"/>
        <pt x="663" y="0" on="1"/>
        <pt x="605" y="0" on="0"/>
        <pt x="530" y="9" on="0"/>
        <pt x="498" y="12" on="0"/>
        <pt x="480" y="13" on="1"/>
        <pt x="446" y="15" on="0"/>
        <pt x="416" y="15" on="1"/>
        <pt x="338" y="15" on="0"/>
        <pt x="305" y="10" on="1"/>
        <pt x="146" y="-14" on="0"/>
        <pt x="110" y="15" on="1"/>
        <pt x="92" y="30" on="0"/>
        <pt x="92" y="46" on="1"/>
        <pt x="92" y="73" on="0"/>
        <pt x="125" y="73" on="1"/>
        <pt x="189" y="66" on="1"/>
        <pt x="246" y="66" on="0"/>
        <pt x="267" y="102" on="1"/>
        <pt x="298" y="157" on="0"/>
        <pt x="305" y="279" on="0"/>
        <pt x="305" y="321" on="1"/>
        <pt x="305" y="1207" on="1"/>
        <pt x="305" y="1331" on="0"/>
        <pt x="277" y="1408" on="0"/>
        <pt x="266" y="1426" on="1"/>
        <pt x="246" y="1462" on="0"/>
        <pt x="189" y="1462" on="1"/>
        <pt x="125" y="1455" on="1"/>
        <pt x="92" y="1455" on="0"/>
        <pt x="92" y="1482" on="1"/>
        <pt x="92" y="1498" on="0"/>
        <pt x="129" y="1528" on="0"/>
        <pt x="169" y="1528" on="1"/>
        <pt x="227" y="1528" on="0"/>
        <pt x="302" y="1519" on="0"/>
        <pt x="334" y="1516" on="0"/>
        <pt x="352" y="1515" on="1"/>
        <pt x="386" y="1513" on="0"/>
        <pt x="416" y="1513" on="1"/>
        <pt x="494" y="1513" on="0"/>
        <pt x="527" y="1518" on="1"/>
        <pt x="593" y="1528" on="0"/>
        <pt x="703" y="1528" on="0"/>
        <pt x="740" y="1498" on="0"/>
        <pt x="740" y="1482" on="1"/>
        <pt x="740" y="1455" on="0"/>
        <pt x="707" y="1455" on="1"/>
        <pt x="643" y="1462" on="1"/>
        <pt x="586" y="1462" on="0"/>
        <pt x="565" y="1426" on="1"/>
        <pt x="534" y="1371" on="0"/>
        <pt x="527" y="1249" on="0"/>
        <pt x="527" y="1207" on="1"/>
        <pt x="527" y="864" on="1"/>
        <pt x="618" y="887" on="0"/>
        <pt x="712" y="954" on="1"/>
        <pt x="871" y="1067" on="0"/>
        <pt x="1078" y="1266" on="1"/>
        <pt x="1198" y="1386" on="0"/>
        <pt x="1198" y="1430" on="1"/>
        <pt x="1198" y="1463" on="0"/>
        <pt x="1151" y="1463" on="1"/>
        <pt x="1087" y="1455" on="1"/>
        <pt x="1054" y="1455" on="0"/>
        <pt x="1054" y="1482" on="1"/>
        <pt x="1054" y="1498" on="0"/>
        <pt x="1093" y="1528" on="0"/>
        <pt x="1168" y="1528" on="0"/>
        <pt x="1190" y="1526" on="1"/>
        <pt x="1235" y="1522" on="1"/>
        <pt x="1302" y="1514" on="0"/>
        <pt x="1330" y="1514" on="1"/>
        <pt x="1484" y="1528" on="1"/>
        <pt x="1535" y="1528" on="0"/>
        <pt x="1570" y="1498" on="0"/>
        <pt x="1570" y="1482" on="1"/>
        <pt x="1570" y="1455" on="0"/>
        <pt x="1537" y="1455" on="1"/>
        <pt x="1473" y="1462" on="1"/>
        <pt x="1420" y="1462" on="0"/>
        <pt x="1294" y="1336" on="1"/>
        <pt x="1077" y="1130" on="0"/>
        <pt x="762" y="870" on="0"/>
        <pt x="652" y="821" on="1"/>
        <pt x="858" y="787" on="0"/>
        <pt x="992" y="689" on="1"/>
        <pt x="1145" y="578" on="0"/>
        <pt x="1254" y="359" on="1"/>
        <pt x="1360" y="141" on="0"/>
        <pt x="1467" y="70" on="1"/>
        <pt x="1497" y="50" on="0"/>
        <pt x="1514" y="50" on="1"/>
        <pt x="1536" y="50" on="0"/>
        <pt x="1547" y="54" on="1"/>
        <pt x="1586" y="66" on="0"/>
        <pt x="1603" y="43" on="0"/>
        <pt x="1603" y="35" on="1"/>
        <pt x="1603" y="-12" on="0"/>
        <pt x="1401" y="-12" on="0"/>
        <pt x="1252" y="32" on="0"/>
        <pt x="1188" y="82" on="1"/>
        <pt x="1062" y="181" on="0"/>
        <pt x="955" y="412" on="1"/>
        <pt x="829" y="672" on="0"/>
        <pt x="648" y="728" on="1"/>
        <pt x="590" y="746" on="0"/>
        <pt x="527" y="750" on="1"/>
        <pt x="527" y="321" on="1"/>
        <pt x="527" y="197" on="0"/>
        <pt x="555" y="120" on="0"/>
        <pt x="566" y="102" on="1"/>
        <pt x="586" y="66" on="0"/>
        <pt x="643" y="66" on="1"/>
      </contour>
    </TTGlyph>
    <TTGlyph name="Kcommaaccent" xMin="92" yMin="-530" xMax="1603" yMax="1528">
      <component glyphName="K" x="0" y="0" flags="0x1204"/>
      <component glyphName="commaaccent" x="506" y="0" flags="0x1004"/>
    </TTGlyph>
    <TTGlyph name="L" xMin="84" yMin="-15" xMax="1353" yMax="1528">
      <contour>
        <pt x="519" y="236" on="1"/>
        <pt x="519" y="97" on="0"/>
        <pt x="616" y="97" on="1"/>
        <pt x="806" y="97" on="1"/>
        <pt x="906" y="97" on="0"/>
        <pt x="957" y="114" on="1"/>
        <pt x="1037" y="142" on="0"/>
        <pt x="1121" y="206" on="1"/>
        <pt x="1161" y="237" on="1"/>
        <pt x="1201" y="269" on="0"/>
        <pt x="1231" y="299" on="1"/>
        <pt x="1288" y="359" on="1"/>
        <pt x="1318" y="391" on="0"/>
        <pt x="1353" y="391" on="0"/>
        <pt x="1353" y="369" on="1"/>
        <pt x="1353" y="346" on="0"/>
        <pt x="1332" y="299" on="1"/>
        <pt x="1296" y="221" on="1"/>
        <pt x="1264" y="147" on="0"/>
        <pt x="1229" y="0" on="1"/>
        <pt x="475" y="0" on="1"/>
        <pt x="330" y="0" on="0"/>
        <pt x="297" y="-5" on="1"/>
        <pt x="231" y="-15" on="0"/>
        <pt x="121" y="-15" on="0"/>
        <pt x="84" y="15" on="0"/>
        <pt x="84" y="31" on="1"/>
        <pt x="84" y="58" on="0"/>
        <pt x="117" y="58" on="1"/>
        <pt x="181" y="51" on="1"/>
        <pt x="238" y="51" on="0"/>
        <pt x="259" y="86" on="1"/>
        <pt x="297" y="153" on="0"/>
        <pt x="297" y="321" on="1"/>
        <pt x="297" y="1207" on="1"/>
        <pt x="297" y="1331" on="0"/>
        <pt x="269" y="1408" on="0"/>
        <pt x="258" y="1426" on="1"/>
        <pt x="238" y="1462" on="0"/>
        <pt x="181" y="1462" on="1"/>
        <pt x="117" y="1455" on="1"/>
        <pt x="84" y="1455" on="0"/>
        <pt x="84" y="1482" on="1"/>
        <pt x="84" y="1498" on="0"/>
        <pt x="121" y="1528" on="0"/>
        <pt x="161" y="1528" on="1"/>
        <pt x="219" y="1528" on="0"/>
        <pt x="294" y="1519" on="0"/>
        <pt x="326" y="1516" on="0"/>
        <pt x="344" y="1515" on="1"/>
        <pt x="378" y="1513" on="0"/>
        <pt x="408" y="1513" on="1"/>
        <pt x="486" y="1513" on="0"/>
        <pt x="519" y="1518" on="1"/>
        <pt x="585" y="1528" on="0"/>
        <pt x="695" y="1528" on="0"/>
        <pt x="732" y="1498" on="0"/>
        <pt x="732" y="1482" on="1"/>
        <pt x="732" y="1455" on="0"/>
        <pt x="699" y="1455" on="1"/>
        <pt x="635" y="1462" on="1"/>
        <pt x="578" y="1462" on="0"/>
        <pt x="557" y="1426" on="1"/>
        <pt x="526" y="1371" on="0"/>
        <pt x="519" y="1249" on="0"/>
        <pt x="519" y="1207" on="1"/>
      </contour>
    </TTGlyph>
    <TTGlyph name="Lacute" xMin="84" yMin="-15" xMax="1353" yMax="2030">
      <component glyphName="L" x="0" y="0" flags="0x1204"/>
      <component glyphName="acute.cap" x="532" y="4" flags="0x1004"/>
    </TTGlyph>
    <TTGlyph name="Lcaron" xMin="84" yMin="-15" xMax="1353" yMax="1561">
      <contour>
        <pt x="941" y="995" on="1"/>
        <pt x="941" y="1023" on="0"/>
        <pt x="1024" y="1059" on="0"/>
        <pt x="1068" y="1102" on="0"/>
        <pt x="1080" y="1124" on="1"/>
        <pt x="1102" y="1162" on="0"/>
        <pt x="1097" y="1235" on="0"/>
        <pt x="1070" y="1265" on="0"/>
        <pt x="1000" y="1286" on="0"/>
        <pt x="962" y="1320" on="0"/>
        <pt x="952" y="1341" on="1"/>
        <pt x="938" y="1373" on="0"/>
        <pt x="938" y="1437" on="1"/>
        <pt x="938" y="1487" on="0"/>
        <pt x="985" y="1525" on="1"/>
        <pt x="1029" y="1561" on="0"/>
        <pt x="1157" y="1561" on="0"/>
        <pt x="1239" y="1442" on="0"/>
        <pt x="1239" y="1263" on="0"/>
        <pt x="1196" y="1131" on="0"/>
        <pt x="1161" y="1077" on="1"/>
        <pt x="1082" y="955" on="0"/>
        <pt x="990" y="955" on="1"/>
        <pt x="941" y="955" on="0"/>
      </contour>
      <contour>
        <pt x="519" y="236" on="1"/>
        <pt x="519" y="97" on="0"/>
        <pt x="616" y="97" on="1"/>
        <pt x="806" y="97" on="1"/>
        <pt x="906" y="97" on="0"/>
        <pt x="957" y="114" on="1"/>
        <pt x="1037" y="142" on="0"/>
        <pt x="1121" y="206" on="1"/>
        <pt x="1161" y="237" on="1"/>
        <pt x="1201" y="269" on="0"/>
        <pt x="1231" y="299" on="1"/>
        <pt x="1288" y="359" on="1"/>
        <pt x="1318" y="391" on="0"/>
        <pt x="1353" y="391" on="0"/>
        <pt x="1353" y="369" on="1"/>
        <pt x="1353" y="346" on="0"/>
        <pt x="1332" y="299" on="1"/>
        <pt x="1296" y="221" on="1"/>
        <pt x="1264" y="147" on="0"/>
        <pt x="1229" y="0" on="1"/>
        <pt x="475" y="0" on="1"/>
        <pt x="330" y="0" on="0"/>
        <pt x="297" y="-5" on="1"/>
        <pt x="231" y="-15" on="0"/>
        <pt x="121" y="-15" on="0"/>
        <pt x="84" y="15" on="0"/>
        <pt x="84" y="31" on="1"/>
        <pt x="84" y="58" on="0"/>
        <pt x="117" y="58" on="1"/>
        <pt x="181" y="51" on="1"/>
        <pt x="238" y="51" on="0"/>
        <pt x="259" y="86" on="1"/>
        <pt x="297" y="153" on="0"/>
        <pt x="297" y="321" on="1"/>
        <pt x="297" y="1207" on="1"/>
        <pt x="297" y="1331" on="0"/>
        <pt x="269" y="1408" on="0"/>
        <pt x="258" y="1426" on="1"/>
        <pt x="238" y="1462" on="0"/>
        <pt x="181" y="1462" on="1"/>
        <pt x="117" y="1455" on="1"/>
        <pt x="84" y="1455" on="0"/>
        <pt x="84" y="1482" on="1"/>
        <pt x="84" y="1498" on="0"/>
        <pt x="121" y="1528" on="0"/>
        <pt x="161" y="1528" on="1"/>
        <pt x="219" y="1528" on="0"/>
        <pt x="294" y="1519" on="0"/>
        <pt x="326" y="1516" on="0"/>
        <pt x="344" y="1515" on="1"/>
        <pt x="378" y="1513" on="0"/>
        <pt x="408" y="1513" on="1"/>
        <pt x="486" y="1513" on="0"/>
        <pt x="519" y="1518" on="1"/>
        <pt x="585" y="1528" on="0"/>
        <pt x="695" y="1528" on="0"/>
        <pt x="732" y="1498" on="0"/>
        <pt x="732" y="1482" on="1"/>
        <pt x="732" y="1455" on="0"/>
        <pt x="699" y="1455" on="1"/>
        <pt x="635" y="1462" on="1"/>
        <pt x="578" y="1462" on="0"/>
        <pt x="557" y="1426" on="1"/>
        <pt x="526" y="1371" on="0"/>
        <pt x="519" y="1249" on="0"/>
        <pt x="519" y="1207" on="1"/>
      </contour>
    </TTGlyph>
    <TTGlyph name="Lcommaaccent" xMin="84" yMin="-530" xMax="1353" yMax="1528">
      <component glyphName="L" x="0" y="0" flags="0x1204"/>
      <component glyphName="commaaccent" x="420" y="0" flags="0x1004"/>
    </TTGlyph>
    <TTGlyph name="Ldot" xMin="84" yMin="-15" xMax="1353" yMax="1528">
      <component glyphName="L" x="0" y="0" flags="0x1204"/>
      <component glyphName="period" x="896" y="797" flags="0x1004"/>
    </TTGlyph>
    <TTGlyph name="Lslash" xMin="84" yMin="-15" xMax="1353" yMax="1528">
      <contour>
        <pt x="232" y="591" on="1"/>
        <pt x="167" y="557" on="0"/>
        <pt x="127" y="557" on="0"/>
        <pt x="101" y="580" on="0"/>
        <pt x="101" y="602" on="1"/>
        <pt x="101" y="639" on="0"/>
        <pt x="160" y="671" on="1"/>
        <pt x="735" y="980" on="1"/>
        <pt x="819" y="1025" on="0"/>
        <pt x="840" y="1025" on="1"/>
        <pt x="856" y="1025" on="0"/>
        <pt x="882" y="1003" on="0"/>
        <pt x="882" y="984" on="1"/>
        <pt x="882" y="943" on="0"/>
        <pt x="801" y="900" on="1"/>
      </contour>
      <contour>
        <pt x="519" y="236" on="1"/>
        <pt x="519" y="97" on="0"/>
        <pt x="616" y="97" on="1"/>
        <pt x="806" y="97" on="1"/>
        <pt x="906" y="97" on="0"/>
        <pt x="957" y="114" on="1"/>
        <pt x="1037" y="142" on="0"/>
        <pt x="1121" y="206" on="1"/>
        <pt x="1161" y="237" on="1"/>
        <pt x="1201" y="269" on="0"/>
        <pt x="1231" y="299" on="1"/>
        <pt x="1288" y="359" on="1"/>
        <pt x="1318" y="391" on="0"/>
        <pt x="1353" y="391" on="0"/>
        <pt x="1353" y="369" on="1"/>
        <pt x="1353" y="346" on="0"/>
        <pt x="1332" y="299" on="1"/>
        <pt x="1296" y="221" on="1"/>
        <pt x="1264" y="147" on="0"/>
        <pt x="1229" y="0" on="1"/>
        <pt x="475" y="0" on="1"/>
        <pt x="330" y="0" on="0"/>
        <pt x="297" y="-5" on="1"/>
        <pt x="231" y="-15" on="0"/>
        <pt x="121" y="-15" on="0"/>
        <pt x="84" y="15" on="0"/>
        <pt x="84" y="31" on="1"/>
        <pt x="84" y="58" on="0"/>
        <pt x="117" y="58" on="1"/>
        <pt x="181" y="51" on="1"/>
        <pt x="238" y="51" on="0"/>
        <pt x="259" y="86" on="1"/>
        <pt x="297" y="153" on="0"/>
        <pt x="297" y="321" on="1"/>
        <pt x="297" y="1207" on="1"/>
        <pt x="297" y="1331" on="0"/>
        <pt x="269" y="1408" on="0"/>
        <pt x="258" y="1426" on="1"/>
        <pt x="238" y="1462" on="0"/>
        <pt x="181" y="1462" on="1"/>
        <pt x="117" y="1455" on="1"/>
        <pt x="84" y="1455" on="0"/>
        <pt x="84" y="1482" on="1"/>
        <pt x="84" y="1498" on="0"/>
        <pt x="121" y="1528" on="0"/>
        <pt x="161" y="1528" on="1"/>
        <pt x="219" y="1528" on="0"/>
        <pt x="294" y="1519" on="0"/>
        <pt x="326" y="1516" on="0"/>
        <pt x="344" y="1515" on="1"/>
        <pt x="378" y="1513" on="0"/>
        <pt x="408" y="1513" on="1"/>
        <pt x="486" y="1513" on="0"/>
        <pt x="519" y="1518" on="1"/>
        <pt x="585" y="1528" on="0"/>
        <pt x="695" y="1528" on="0"/>
        <pt x="732" y="1498" on="0"/>
        <pt x="732" y="1482" on="1"/>
        <pt x="732" y="1455" on="0"/>
        <pt x="699" y="1455" on="1"/>
        <pt x="635" y="1462" on="1"/>
        <pt x="578" y="1462" on="0"/>
        <pt x="557" y="1426" on="1"/>
        <pt x="526" y="1371" on="0"/>
        <pt x="519" y="1249" on="0"/>
        <pt x="519" y="1207" on="1"/>
      </contour>
    </TTGlyph>
    <TTGlyph name="M" xMin="60" yMin="-18" xMax="2005" yMax="1528">
      <contour>
        <pt x="542" y="0" on="1"/>
        <pt x="361" y="15" on="1"/>
        <pt x="334" y="15" on="0"/>
        <pt x="294" y="10" on="1"/>
        <pt x="92" y="-18" on="0"/>
        <pt x="92" y="46" on="1"/>
        <pt x="92" y="73" on="0"/>
        <pt x="125" y="73" on="1"/>
        <pt x="189" y="66" on="1"/>
        <pt x="246" y="66" on="0"/>
        <pt x="267" y="102" on="1"/>
        <pt x="298" y="157" on="0"/>
        <pt x="305" y="279" on="0"/>
        <pt x="305" y="321" on="1"/>
        <pt x="306" y="1143" on="1"/>
        <pt x="306" y="1244" on="0"/>
        <pt x="238" y="1339" on="1"/>
        <pt x="171" y="1436" on="0"/>
        <pt x="95" y="1469" on="1"/>
        <pt x="72" y="1479" on="0"/>
        <pt x="60" y="1493" on="0"/>
        <pt x="60" y="1503" on="1"/>
        <pt x="60" y="1528" on="0"/>
        <pt x="113" y="1528" on="1"/>
        <pt x="423" y="1517" on="1"/>
        <pt x="1070" y="509" on="1"/>
        <pt x="1591" y="1512" on="1"/>
        <pt x="1727" y="1512" on="0"/>
        <pt x="1778" y="1518" on="1"/>
        <pt x="1863" y="1528" on="0"/>
        <pt x="1916" y="1528" on="1"/>
        <pt x="2005" y="1528" on="0"/>
        <pt x="2005" y="1482" on="1"/>
        <pt x="2005" y="1454" on="0"/>
        <pt x="1972" y="1454" on="1"/>
        <pt x="1908" y="1462" on="1"/>
        <pt x="1850" y="1462" on="0"/>
        <pt x="1830" y="1426" on="1"/>
        <pt x="1801" y="1371" on="0"/>
        <pt x="1792" y="1248" on="0"/>
        <pt x="1792" y="1203" on="1"/>
        <pt x="1792" y="321" on="1"/>
        <pt x="1792" y="197" on="0"/>
        <pt x="1820" y="120" on="0"/>
        <pt x="1830" y="102" on="1"/>
        <pt x="1851" y="66" on="0"/>
        <pt x="1908" y="66" on="1"/>
        <pt x="1972" y="73" on="1"/>
        <pt x="2005" y="73" on="0"/>
        <pt x="2005" y="46" on="1"/>
        <pt x="2005" y="30" on="0"/>
        <pt x="1968" y="0" on="0"/>
        <pt x="1928" y="0" on="1"/>
        <pt x="1870" y="0" on="0"/>
        <pt x="1795" y="9" on="0"/>
        <pt x="1763" y="12" on="0"/>
        <pt x="1746" y="13" on="1"/>
        <pt x="1710" y="15" on="0"/>
        <pt x="1681" y="15" on="1"/>
        <pt x="1603" y="15" on="0"/>
        <pt x="1570" y="10" on="1"/>
        <pt x="1411" y="-14" on="0"/>
        <pt x="1376" y="15" on="1"/>
        <pt x="1357" y="30" on="0"/>
        <pt x="1357" y="46" on="1"/>
        <pt x="1357" y="73" on="0"/>
        <pt x="1390" y="73" on="1"/>
        <pt x="1454" y="66" on="1"/>
        <pt x="1511" y="66" on="0"/>
        <pt x="1532" y="102" on="1"/>
        <pt x="1563" y="157" on="0"/>
        <pt x="1570" y="279" on="0"/>
        <pt x="1570" y="321" on="1"/>
        <pt x="1570" y="1242" on="1"/>
        <pt x="1057" y="249" on="1"/>
        <pt x="1029" y="196" on="0"/>
        <pt x="1001" y="196" on="1"/>
        <pt x="987" y="196" on="0"/>
        <pt x="963" y="229" on="0"/>
        <pt x="938" y="268" on="1"/>
        <pt x="417" y="1064" on="1"/>
        <pt x="417" y="321" on="1"/>
        <pt x="417" y="197" on="0"/>
        <pt x="445" y="120" on="0"/>
        <pt x="456" y="102" on="1"/>
        <pt x="476" y="66" on="0"/>
        <pt x="533" y="66" on="1"/>
        <pt x="597" y="73" on="1"/>
        <pt x="630" y="73" on="0"/>
        <pt x="630" y="46" on="1"/>
        <pt x="630" y="30" on="0"/>
        <pt x="593" y="0" on="0"/>
      </contour>
    </TTGlyph>
    <TTGlyph name="N" xMin="82" yMin="-65" xMax="1809" yMax="1528">
      <contour>
        <pt x="603" y="0" on="1"/>
        <pt x="415" y="15" on="1"/>
        <pt x="388" y="15" on="0"/>
        <pt x="348" y="10" on="1"/>
        <pt x="146" y="-18" on="0"/>
        <pt x="146" y="46" on="1"/>
        <pt x="146" y="73" on="0"/>
        <pt x="179" y="73" on="1"/>
        <pt x="243" y="66" on="1"/>
        <pt x="300" y="66" on="0"/>
        <pt x="321" y="102" on="1"/>
        <pt x="352" y="157" on="0"/>
        <pt x="359" y="279" on="0"/>
        <pt x="359" y="321" on="1"/>
        <pt x="360" y="1153" on="1"/>
        <pt x="360" y="1202" on="0"/>
        <pt x="310" y="1308" on="0"/>
        <pt x="278" y="1352" on="0"/>
        <pt x="240" y="1393" on="0"/>
        <pt x="218" y="1412" on="1"/>
        <pt x="168" y="1454" on="0"/>
        <pt x="135" y="1466" on="1"/>
        <pt x="82" y="1485" on="0"/>
        <pt x="82" y="1528" on="0"/>
        <pt x="135" y="1528" on="1"/>
        <pt x="444" y="1517" on="1"/>
        <pt x="1484" y="418" on="1"/>
        <pt x="1484" y="1200" on="1"/>
        <pt x="1484" y="1324" on="0"/>
        <pt x="1456" y="1401" on="0"/>
        <pt x="1446" y="1420" on="1"/>
        <pt x="1425" y="1455" on="0"/>
        <pt x="1368" y="1455" on="1"/>
        <pt x="1295" y="1448" on="1"/>
        <pt x="1262" y="1448" on="0"/>
        <pt x="1262" y="1475" on="1"/>
        <pt x="1262" y="1491" on="0"/>
        <pt x="1301" y="1521" on="0"/>
        <pt x="1352" y="1521" on="1"/>
        <pt x="1540" y="1506" on="1"/>
        <pt x="1567" y="1506" on="0"/>
        <pt x="1607" y="1512" on="1"/>
        <pt x="1676" y="1521" on="0"/>
        <pt x="1772" y="1521" on="0"/>
        <pt x="1809" y="1491" on="0"/>
        <pt x="1809" y="1475" on="1"/>
        <pt x="1809" y="1448" on="0"/>
        <pt x="1776" y="1448" on="1"/>
        <pt x="1712" y="1455" on="1"/>
        <pt x="1655" y="1455" on="0"/>
        <pt x="1634" y="1419" on="1"/>
        <pt x="1603" y="1364" on="0"/>
        <pt x="1596" y="1242" on="0"/>
        <pt x="1596" y="1200" on="1"/>
        <pt x="1596" y="181" on="1"/>
        <pt x="1596" y="60" on="0"/>
        <pt x="1618" y="20" on="1"/>
        <pt x="1626" y="6" on="0"/>
        <pt x="1640" y="-6" on="1"/>
        <pt x="1660" y="-23" on="0"/>
        <pt x="1660" y="-41" on="1"/>
        <pt x="1660" y="-65" on="0"/>
        <pt x="1631" y="-65" on="1"/>
        <pt x="1592" y="-65" on="0"/>
        <pt x="1525" y="8" on="1"/>
        <pt x="471" y="1134" on="1"/>
        <pt x="471" y="321" on="1"/>
        <pt x="471" y="197" on="0"/>
        <pt x="499" y="120" on="0"/>
        <pt x="510" y="102" on="1"/>
        <pt x="530" y="66" on="0"/>
        <pt x="587" y="66" on="1"/>
        <pt x="660" y="73" on="1"/>
        <pt x="693" y="73" on="0"/>
        <pt x="693" y="46" on="1"/>
        <pt x="693" y="30" on="0"/>
        <pt x="654" y="0" on="0"/>
      </contour>
    </TTGlyph>
    <TTGlyph name="Nacute" xMin="82" yMin="-65" xMax="1809" yMax="2026">
      <component glyphName="N" x="0" y="0" flags="0x1204"/>
      <component glyphName="acute.cap" x="623" y="0" flags="0x1004"/>
    </TTGlyph>
    <TTGlyph name="Ncaron" xMin="82" yMin="-65" xMax="1809" yMax="2030">
      <component glyphName="N" x="0" y="0" flags="0x1204"/>
      <component glyphName="caron.cap" x="503" y="0" flags="0x1004"/>
    </TTGlyph>
    <TTGlyph name="Ncommaaccent" xMin="82" yMin="-530" xMax="1809" yMax="1528">
      <component glyphName="N" x="0" y="0" flags="0x1204"/>
      <component glyphName="commaaccent" x="674" y="0" flags="0x1004"/>
    </TTGlyph>
    <TTGlyph name="Ntilde" xMin="82" yMin="-65" xMax="1809" yMax="1949">
      <component glyphName="N" x="0" y="0" flags="0x1204"/>
      <component glyphName="tilde.cap" x="466" y="0" flags="0x1004"/>
    </TTGlyph>
    <TTGlyph name="O" xMin="132" yMin="-23" xMax="1748" yMax="1561">
      <contour>
        <pt x="132" y="734" on="1"/>
        <pt x="132" y="908" on="0"/>
        <pt x="248" y="1213" on="0"/>
        <pt x="356" y="1324" on="1"/>
        <pt x="587" y="1561" on="0"/>
        <pt x="966" y="1561" on="1"/>
        <pt x="1186" y="1561" on="0"/>
        <pt x="1369" y="1452" on="1"/>
        <pt x="1544" y="1349" on="0"/>
        <pt x="1646" y="1172" on="1"/>
        <pt x="1748" y="994" on="0"/>
        <pt x="1748" y="786" on="1"/>
        <pt x="1748" y="410" on="0"/>
        <pt x="1503" y="188" on="1"/>
        <pt x="1271" y="-23" on="0"/>
        <pt x="929" y="-23" on="1"/>
        <pt x="568" y="-23" on="0"/>
        <pt x="349" y="185" on="1"/>
        <pt x="132" y="392" on="0"/>
      </contour>
      <contour>
        <pt x="340" y="889" on="1"/>
        <pt x="340" y="651" on="0"/>
        <pt x="446" y="460" on="1"/>
        <pt x="544" y="286" on="0"/>
        <pt x="708" y="187" on="1"/>
        <pt x="867" y="91" on="0"/>
        <pt x="1042" y="91" on="1"/>
        <pt x="1244" y="91" on="0"/>
        <pt x="1375" y="232" on="1"/>
        <pt x="1516" y="384" on="0"/>
        <pt x="1516" y="648" on="1"/>
        <pt x="1516" y="867" on="0"/>
        <pt x="1422" y="1058" on="1"/>
        <pt x="1333" y="1236" on="0"/>
        <pt x="1180" y="1344" on="1"/>
        <pt x="1026" y="1451" on="0"/>
        <pt x="855" y="1451" on="1"/>
        <pt x="636" y="1451" on="0"/>
        <pt x="490" y="1294" on="1"/>
        <pt x="340" y="1133" on="0"/>
      </contour>
    </TTGlyph>
    <TTGlyph name="OE" xMin="132" yMin="-23" xMax="2260" yMax="1561">
      <contour>
        <pt x="1378" y="236" on="1"/>
        <pt x="1378" y="97" on="0"/>
        <pt x="1475" y="97" on="1"/>
        <pt x="1682" y="97" on="1"/>
        <pt x="1925" y="97" on="0"/>
        <pt x="2080" y="232" on="1"/>
        <pt x="2108" y="257" on="0"/>
        <pt x="2132" y="282" on="1"/>
        <pt x="2182" y="332" on="1"/>
        <pt x="2218" y="368" on="0"/>
        <pt x="2260" y="368" on="0"/>
        <pt x="2260" y="354" on="1"/>
        <pt x="2260" y="327" on="0"/>
        <pt x="2203" y="231" on="0"/>
        <pt x="2169" y="168" on="0"/>
        <pt x="2141" y="105" on="0"/>
        <pt x="2129" y="72" on="1"/>
        <pt x="2104" y="0" on="1"/>
        <pt x="1284" y="0" on="1"/>
        <pt x="1189" y="0" on="0"/>
        <pt x="1132" y="-9" on="0"/>
        <pt x="1074" y="-14" on="0"/>
        <pt x="1040" y="-16" on="1"/>
        <pt x="953" y="-23" on="0"/>
        <pt x="929" y="-23" on="1"/>
        <pt x="568" y="-23" on="0"/>
        <pt x="349" y="185" on="1"/>
        <pt x="132" y="392" on="0"/>
        <pt x="132" y="729" on="1"/>
        <pt x="132" y="1094" on="0"/>
        <pt x="356" y="1324" on="1"/>
        <pt x="587" y="1561" on="0"/>
        <pt x="966" y="1561" on="1"/>
        <pt x="1064" y="1561" on="0"/>
        <pt x="1194" y="1531" on="0"/>
        <pt x="1243" y="1522" on="0"/>
        <pt x="1274" y="1519" on="1"/>
        <pt x="1338" y="1513" on="0"/>
        <pt x="1444" y="1513" on="1"/>
        <pt x="2085" y="1513" on="1"/>
        <pt x="2093" y="1442" on="0"/>
        <pt x="2119" y="1356" on="1"/>
        <pt x="2165" y="1209" on="0"/>
        <pt x="2165" y="1161" on="0"/>
        <pt x="2149" y="1161" on="1"/>
        <pt x="2135" y="1161" on="0"/>
        <pt x="2120" y="1179" on="1"/>
        <pt x="2001" y="1314" on="0"/>
        <pt x="1947" y="1358" on="0"/>
        <pt x="1903" y="1385" on="0"/>
        <pt x="1876" y="1395" on="1"/>
        <pt x="1824" y="1415" on="0"/>
        <pt x="1742" y="1415" on="1"/>
        <pt x="1475" y="1415" on="1"/>
        <pt x="1419" y="1415" on="0"/>
        <pt x="1378" y="1368" on="0"/>
        <pt x="1378" y="1323" on="1"/>
        <pt x="1378" y="899" on="1"/>
        <pt x="1378" y="842" on="0"/>
        <pt x="1469" y="842" on="1"/>
        <pt x="1714" y="842" on="1"/>
        <pt x="1786" y="842" on="0"/>
        <pt x="1844" y="912" on="1"/>
        <pt x="1865" y="937" on="0"/>
        <pt x="1884" y="981" on="0"/>
        <pt x="1895" y="997" on="0"/>
        <pt x="1904" y="997" on="1"/>
        <pt x="1930" y="997" on="0"/>
        <pt x="1930" y="946" on="1"/>
        <pt x="1922" y="787" on="1"/>
        <pt x="1930" y="631" on="1"/>
        <pt x="1930" y="581" on="0"/>
        <pt x="1904" y="581" on="1"/>
        <pt x="1890" y="581" on="0"/>
        <pt x="1865" y="641" on="0"/>
        <pt x="1824" y="693" on="0"/>
        <pt x="1802" y="710" on="1"/>
        <pt x="1755" y="745" on="0"/>
        <pt x="1714" y="745" on="1"/>
        <pt x="1468" y="745" on="1"/>
        <pt x="1425" y="745" on="0"/>
        <pt x="1378" y="706" on="0"/>
        <pt x="1378" y="678" on="1"/>
      </contour>
      <contour>
        <pt x="1156" y="1376" on="1"/>
        <pt x="1010" y="1451" on="0"/>
        <pt x="747" y="1451" on="0"/>
        <pt x="559" y="1368" on="0"/>
        <pt x="490" y="1294" on="1"/>
        <pt x="340" y="1133" on="0"/>
        <pt x="340" y="889" on="1"/>
        <pt x="340" y="651" on="0"/>
        <pt x="446" y="460" on="1"/>
        <pt x="544" y="286" on="0"/>
        <pt x="708" y="187" on="1"/>
        <pt x="867" y="91" on="0"/>
        <pt x="1042" y="91" on="1"/>
        <pt x="1103" y="91" on="0"/>
        <pt x="1156" y="104" on="1"/>
      </contour>
    </TTGlyph>
    <TTGlyph name="Oacute" xMin="132" yMin="-23" xMax="1748" yMax="2026">
      <component glyphName="O" x="0" y="0" flags="0x1204"/>
      <component glyphName="acute.cap" x="618" y="0" flags="0x1004"/>
    </TTGlyph>
    <TTGlyph name="Obreve" xMin="132" yMin="-23" xMax="1748" yMax="2017">
      <component glyphName="O" x="0" y="0" flags="0x1204"/>
      <component glyphName="breve.cap" x="430" y="0" flags="0x1004"/>
    </TTGlyph>
    <TTGlyph name="Ocircumflex" xMin="132" yMin="-23" xMax="1748" yMax="2030">
      <component glyphName="O" x="0" y="0" flags="0x1204"/>
      <component glyphName="circumflex.cap" x="498" y="0" flags="0x1004"/>
    </TTGlyph>
    <TTGlyph name="Odieresis" xMin="132" yMin="-23" xMax="1748" yMax="1982">
      <component glyphName="O" x="0" y="0" flags="0x1204"/>
      <component glyphName="dieresis.cap" x="405" y="0" flags="0x1004"/>
    </TTGlyph>
    <TTGlyph name="Ograve" xMin="132" yMin="-23" xMax="1748" yMax="2026">
      <component glyphName="O" x="0" y="0" flags="0x1204"/>
      <component glyphName="grave.cap" x="618" y="0" flags="0x1004"/>
    </TTGlyph>
    <TTGlyph name="Ohungarumlaut" xMin="132" yMin="-23" xMax="1748" yMax="2027">
      <component glyphName="O" x="0" y="0" flags="0x1204"/>
      <component glyphName="hungarumlaut.cap" x="656" y="0" flags="0x1004"/>
    </TTGlyph>
    <TTGlyph name="Omacron" xMin="132" yMin="-23" xMax="1748" yMax="1938">
      <component glyphName="O" x="0" y="0" flags="0x1204"/>
      <component glyphName="macron.cap" x="1451" y="0" flags="0x1004"/>
    </TTGlyph>
    <TTGlyph name="Omega" xMin="142" yMin="0" xMax="1759" yMax="1553">
      <contour>
        <pt x="1099" y="0" on="1"/>
        <pt x="1056" y="0" on="0"/>
        <pt x="1058" y="72" on="1"/>
        <pt x="1059" y="141" on="0"/>
        <pt x="1099" y="166" on="1"/>
        <pt x="1253" y="261" on="0"/>
        <pt x="1421" y="611" on="0"/>
        <pt x="1421" y="857" on="1"/>
        <pt x="1421" y="1154" on="0"/>
        <pt x="1280" y="1320" on="1"/>
        <pt x="1154" y="1469" on="0"/>
        <pt x="959" y="1469" on="1"/>
        <pt x="740" y="1469" on="0"/>
        <pt x="611" y="1306" on="1"/>
        <pt x="477" y="1136" on="0"/>
        <pt x="477" y="823" on="1"/>
        <pt x="477" y="597" on="0"/>
        <pt x="591" y="406" on="1"/>
        <pt x="687" y="246" on="0"/>
        <pt x="824" y="166" on="1"/>
        <pt x="863" y="142" on="0"/>
        <pt x="868" y="72" on="1"/>
        <pt x="873" y="0" on="0"/>
        <pt x="824" y="0" on="1"/>
        <pt x="142" y="0" on="1"/>
        <pt x="142" y="361" on="1"/>
        <pt x="142" y="398" on="0"/>
        <pt x="190" y="393" on="1"/>
        <pt x="236" y="388" on="0"/>
        <pt x="241" y="368" on="1"/>
        <pt x="274" y="182" on="1"/>
        <pt x="614" y="182" on="1"/>
        <pt x="471" y="270" on="0"/>
        <pt x="373" y="430" on="1"/>
        <pt x="258" y="615" on="0"/>
        <pt x="262" y="822" on="1"/>
        <pt x="266" y="1061" on="0"/>
        <pt x="371" y="1236" on="1"/>
        <pt x="464" y="1391" on="0"/>
        <pt x="632" y="1476" on="1"/>
        <pt x="785" y="1553" on="0"/>
        <pt x="1119" y="1553" on="0"/>
        <pt x="1366" y="1462" on="0"/>
        <pt x="1455" y="1374" on="1"/>
        <pt x="1644" y="1186" on="0"/>
        <pt x="1638" y="858" on="1"/>
        <pt x="1634" y="682" on="0"/>
        <pt x="1524" y="480" on="1"/>
        <pt x="1422" y="295" on="0"/>
        <pt x="1288" y="182" on="1"/>
        <pt x="1627" y="182" on="1"/>
        <pt x="1660" y="368" on="1"/>
        <pt x="1661" y="376" on="0"/>
        <pt x="1693" y="391" on="0"/>
        <pt x="1711" y="393" on="1"/>
        <pt x="1759" y="398" on="0"/>
        <pt x="1759" y="361" on="1"/>
        <pt x="1759" y="0" on="1"/>
      </contour>
    </TTGlyph>
    <TTGlyph name="Oslash" xMin="132" yMin="-203" xMax="1748" yMax="1719">
      <contour>
        <pt x="929" y="-23" on="1"/>
        <pt x="716" y="-23" on="0"/>
        <pt x="541" y="56" on="1"/>
        <pt x="399" y="-155" on="1"/>
        <pt x="365" y="-203" on="0"/>
        <pt x="336" y="-203" on="1"/>
        <pt x="277" y="-203" on="0"/>
        <pt x="277" y="-153" on="1"/>
        <pt x="277" y="-128" on="0"/>
        <pt x="309" y="-79" on="1"/>
        <pt x="439" y="113" on="1"/>
        <pt x="292" y="211" on="0"/>
        <pt x="132" y="526" on="0"/>
        <pt x="132" y="908" on="0"/>
        <pt x="248" y="1213" on="0"/>
        <pt x="356" y="1324" on="1"/>
        <pt x="587" y="1561" on="0"/>
        <pt x="966" y="1561" on="1"/>
        <pt x="1178" y="1561" on="0"/>
        <pt x="1353" y="1462" on="1"/>
        <pt x="1494" y="1669" on="1"/>
        <pt x="1516" y="1700" on="0"/>
        <pt x="1545" y="1719" on="0"/>
        <pt x="1584" y="1719" on="0"/>
        <pt x="1614" y="1696" on="0"/>
        <pt x="1614" y="1675" on="1"/>
        <pt x="1614" y="1645" on="0"/>
        <pt x="1578" y="1590" on="1"/>
        <pt x="1449" y="1398" on="1"/>
        <pt x="1665" y="1229" on="0"/>
        <pt x="1728" y="964" on="1"/>
        <pt x="1748" y="877" on="0"/>
        <pt x="1748" y="657" on="0"/>
        <pt x="1688" y="437" on="0"/>
        <pt x="1579" y="257" on="0"/>
        <pt x="1427" y="119" on="0"/>
        <pt x="1336" y="72" on="1"/>
        <pt x="1152" y="-23" on="0"/>
      </contour>
      <contour>
        <pt x="1240" y="1295" on="1"/>
        <pt x="1065" y="1451" on="0"/>
        <pt x="855" y="1451" on="1"/>
        <pt x="636" y="1451" on="0"/>
        <pt x="490" y="1294" on="1"/>
        <pt x="340" y="1133" on="0"/>
        <pt x="340" y="889" on="1"/>
        <pt x="340" y="530" on="0"/>
        <pt x="566" y="300" on="1"/>
      </contour>
      <contour>
        <pt x="654" y="223" on="1"/>
        <pt x="833" y="91" on="0"/>
        <pt x="1042" y="91" on="1"/>
        <pt x="1244" y="91" on="0"/>
        <pt x="1375" y="232" on="1"/>
        <pt x="1516" y="384" on="0"/>
        <pt x="1516" y="648" on="1"/>
        <pt x="1516" y="973" on="0"/>
        <pt x="1322" y="1211" on="1"/>
      </contour>
    </TTGlyph>
    <TTGlyph name="Otilde" xMin="132" yMin="-23" xMax="1748" yMax="1949">
      <component glyphName="O" x="0" y="0" flags="0x1204"/>
      <component glyphName="tilde.cap" x="461" y="0" flags="0x1004"/>
    </TTGlyph>
    <TTGlyph name="P" xMin="111" yMin="-14" xMax="1426" yMax="1543">
      <contour>
        <pt x="662" y="66" on="1"/>
        <pt x="756" y="76" on="1"/>
        <pt x="772" y="76" on="0"/>
        <pt x="789" y="58" on="0"/>
        <pt x="789" y="30" on="0"/>
        <pt x="742" y="0" on="0"/>
        <pt x="676" y="0" on="0"/>
        <pt x="639" y="1" on="0"/>
        <pt x="620" y="2" on="1"/>
        <pt x="592" y="4" on="0"/>
        <pt x="549" y="9" on="0"/>
        <pt x="517" y="12" on="0"/>
        <pt x="500" y="13" on="1"/>
        <pt x="464" y="15" on="0"/>
        <pt x="435" y="15" on="1"/>
        <pt x="357" y="15" on="0"/>
        <pt x="324" y="10" on="1"/>
        <pt x="165" y="-14" on="0"/>
        <pt x="130" y="15" on="1"/>
        <pt x="111" y="30" on="0"/>
        <pt x="111" y="46" on="1"/>
        <pt x="111" y="73" on="0"/>
        <pt x="144" y="73" on="1"/>
        <pt x="208" y="66" on="1"/>
        <pt x="265" y="66" on="0"/>
        <pt x="286" y="102" on="1"/>
        <pt x="317" y="157" on="0"/>
        <pt x="324" y="279" on="0"/>
        <pt x="324" y="321" on="1"/>
        <pt x="324" y="1195" on="1"/>
        <pt x="324" y="1318" on="0"/>
        <pt x="296" y="1396" on="0"/>
        <pt x="284" y="1418" on="1"/>
        <pt x="261" y="1462" on="0"/>
        <pt x="193" y="1462" on="1"/>
        <pt x="144" y="1455" on="1"/>
        <pt x="111" y="1455" on="0"/>
        <pt x="111" y="1483" on="1"/>
        <pt x="111" y="1499" on="0"/>
        <pt x="148" y="1528" on="0"/>
        <pt x="236" y="1528" on="0"/>
        <pt x="261" y="1526" on="1"/>
        <pt x="309" y="1522" on="1"/>
        <pt x="378" y="1514" on="0"/>
        <pt x="445" y="1514" on="1"/>
        <pt x="535" y="1514" on="0"/>
        <pt x="594" y="1522" on="1"/>
        <pt x="675" y="1533" on="1"/>
        <pt x="748" y="1543" on="0"/>
        <pt x="979" y="1543" on="0"/>
        <pt x="1190" y="1480" on="0"/>
        <pt x="1266" y="1423" on="1"/>
        <pt x="1426" y="1303" on="0"/>
        <pt x="1426" y="1109" on="1"/>
        <pt x="1426" y="859" on="0"/>
        <pt x="1230" y="716" on="1"/>
        <pt x="1051" y="585" on="0"/>
        <pt x="805" y="585" on="1"/>
        <pt x="682" y="585" on="0"/>
        <pt x="546" y="625" on="1"/>
        <pt x="546" y="321" on="1"/>
        <pt x="546" y="197" on="0"/>
        <pt x="574" y="120" on="0"/>
        <pt x="584" y="102" on="1"/>
        <pt x="605" y="66" on="0"/>
      </contour>
      <contour>
        <pt x="546" y="752" on="1"/>
        <pt x="666" y="684" on="0"/>
        <pt x="826" y="684" on="1"/>
        <pt x="984" y="684" on="0"/>
        <pt x="1084" y="780" on="1"/>
        <pt x="1183" y="875" on="0"/>
        <pt x="1183" y="1020" on="1"/>
        <pt x="1183" y="1218" on="0"/>
        <pt x="1055" y="1335" on="1"/>
        <pt x="935" y="1445" on="0"/>
        <pt x="748" y="1445" on="1"/>
        <pt x="611" y="1445" on="0"/>
        <pt x="562" y="1370" on="1"/>
        <pt x="546" y="1345" on="0"/>
        <pt x="546" y="1311" on="1"/>
      </contour>
    </TTGlyph>
    <TTGlyph name="Q" xMin="121" yMin="-395" xMax="1880" yMax="1561">
      <contour>
        <pt x="706" y="-151" on="1"/>
        <pt x="678" y="-151" on="0"/>
        <pt x="678" y="-117" on="1"/>
        <pt x="678" y="-80" on="0"/>
        <pt x="758" y="-43" on="1"/>
        <pt x="851" y="-1" on="0"/>
        <pt x="1098" y="-1" on="0"/>
        <pt x="1254" y="-40" on="0"/>
        <pt x="1377" y="-103" on="0"/>
        <pt x="1426" y="-142" on="1"/>
        <pt x="1519" y="-222" on="1"/>
        <pt x="1569" y="-267" on="0"/>
        <pt x="1659" y="-317" on="0"/>
        <pt x="1698" y="-317" on="1"/>
        <pt x="1763" y="-317" on="0"/>
        <pt x="1792" y="-300" on="1"/>
        <pt x="1830" y="-278" on="1"/>
        <pt x="1840" y="-273" on="0"/>
        <pt x="1851" y="-273" on="1"/>
        <pt x="1880" y="-273" on="0"/>
        <pt x="1880" y="-301" on="1"/>
        <pt x="1880" y="-338" on="0"/>
        <pt x="1818" y="-366" on="1"/>
        <pt x="1752" y="-395" on="0"/>
        <pt x="1568" y="-395" on="0"/>
        <pt x="1432" y="-369" on="0"/>
        <pt x="1368" y="-342" on="1"/>
        <pt x="1237" y="-288" on="0"/>
        <pt x="1118" y="-172" on="1"/>
        <pt x="1056" y="-112" on="0"/>
        <pt x="1029" y="-98" on="1"/>
        <pt x="980" y="-72" on="0"/>
        <pt x="926" y="-72" on="1"/>
        <pt x="820" y="-72" on="0"/>
        <pt x="734" y="-142" on="1"/>
        <pt x="723" y="-151" on="0"/>
      </contour>
      <contour>
        <pt x="121" y="734" on="1"/>
        <pt x="121" y="908" on="0"/>
        <pt x="237" y="1213" on="0"/>
        <pt x="345" y="1324" on="1"/>
        <pt x="576" y="1561" on="0"/>
        <pt x="955" y="1561" on="1"/>
        <pt x="1175" y="1561" on="0"/>
        <pt x="1358" y="1452" on="1"/>
        <pt x="1533" y="1349" on="0"/>
        <pt x="1634" y="1172" on="1"/>
        <pt x="1737" y="994" on="0"/>
        <pt x="1737" y="786" on="1"/>
        <pt x="1737" y="410" on="0"/>
        <pt x="1492" y="188" on="1"/>
        <pt x="1260" y="-23" on="0"/>
        <pt x="918" y="-23" on="1"/>
        <pt x="557" y="-23" on="0"/>
        <pt x="338" y="185" on="1"/>
        <pt x="121" y="392" on="0"/>
      </contour>
      <contour>
        <pt x="329" y="889" on="1"/>
        <pt x="329" y="651" on="0"/>
        <pt x="436" y="460" on="1"/>
        <pt x="533" y="286" on="0"/>
        <pt x="697" y="187" on="1"/>
        <pt x="856" y="91" on="0"/>
        <pt x="1031" y="91" on="1"/>
        <pt x="1233" y="91" on="0"/>
        <pt x="1364" y="232" on="1"/>
        <pt x="1505" y="384" on="0"/>
        <pt x="1505" y="648" on="1"/>
        <pt x="1505" y="867" on="0"/>
        <pt x="1410" y="1058" on="1"/>
        <pt x="1322" y="1236" on="0"/>
        <pt x="1168" y="1344" on="1"/>
        <pt x="1015" y="1451" on="0"/>
        <pt x="844" y="1451" on="1"/>
        <pt x="625" y="1451" on="0"/>
        <pt x="478" y="1294" on="1"/>
        <pt x="329" y="1133" on="0"/>
      </contour>
    </TTGlyph>
    <TTGlyph name="R" xMin="77" yMin="-14" xMax="1530" yMax="1541">
      <contour>
        <pt x="692" y="73" on="1"/>
        <pt x="725" y="73" on="0"/>
        <pt x="725" y="46" on="1"/>
        <pt x="725" y="30" on="0"/>
        <pt x="688" y="0" on="0"/>
        <pt x="648" y="0" on="1"/>
        <pt x="590" y="0" on="0"/>
        <pt x="515" y="9" on="0"/>
        <pt x="483" y="12" on="0"/>
        <pt x="466" y="13" on="1"/>
        <pt x="430" y="15" on="0"/>
        <pt x="401" y="15" on="1"/>
        <pt x="323" y="15" on="0"/>
        <pt x="290" y="10" on="1"/>
        <pt x="131" y="-14" on="0"/>
        <pt x="96" y="15" on="1"/>
        <pt x="77" y="30" on="0"/>
        <pt x="77" y="46" on="1"/>
        <pt x="77" y="73" on="0"/>
        <pt x="110" y="73" on="1"/>
        <pt x="174" y="66" on="1"/>
        <pt x="231" y="66" on="0"/>
        <pt x="252" y="102" on="1"/>
        <pt x="283" y="157" on="0"/>
        <pt x="290" y="279" on="0"/>
        <pt x="290" y="321" on="1"/>
        <pt x="290" y="1195" on="1"/>
        <pt x="290" y="1318" on="0"/>
        <pt x="262" y="1396" on="0"/>
        <pt x="250" y="1418" on="1"/>
        <pt x="227" y="1462" on="0"/>
        <pt x="159" y="1462" on="1"/>
        <pt x="110" y="1455" on="1"/>
        <pt x="77" y="1455" on="0"/>
        <pt x="77" y="1483" on="1"/>
        <pt x="77" y="1499" on="0"/>
        <pt x="114" y="1528" on="0"/>
        <pt x="202" y="1528" on="0"/>
        <pt x="227" y="1526" on="1"/>
        <pt x="275" y="1522" on="1"/>
        <pt x="344" y="1514" on="0"/>
        <pt x="448" y="1514" on="0"/>
        <pt x="503" y="1516" on="0"/>
        <pt x="549" y="1519" on="0"/>
        <pt x="591" y="1524" on="0"/>
        <pt x="632" y="1528" on="0"/>
        <pt x="676" y="1533" on="0"/>
        <pt x="702" y="1536" on="1"/>
        <pt x="758" y="1541" on="0"/>
        <pt x="972" y="1541" on="0"/>
        <pt x="1188" y="1474" on="0"/>
        <pt x="1259" y="1418" on="1"/>
        <pt x="1401" y="1304" on="0"/>
        <pt x="1401" y="1133" on="1"/>
        <pt x="1401" y="916" on="0"/>
        <pt x="1238" y="790" on="1"/>
        <pt x="1090" y="676" on="0"/>
        <pt x="869" y="676" on="1"/>
        <pt x="834" y="676" on="1"/>
        <pt x="931" y="625" on="0"/>
        <pt x="986" y="563" on="1"/>
        <pt x="1070" y="466" on="0"/>
        <pt x="1213" y="219" on="0"/>
        <pt x="1291" y="123" on="0"/>
        <pt x="1326" y="96" on="1"/>
        <pt x="1386" y="50" on="0"/>
        <pt x="1447" y="50" on="1"/>
        <pt x="1463" y="50" on="0"/>
        <pt x="1497" y="63" on="0"/>
        <pt x="1503" y="63" on="1"/>
        <pt x="1530" y="63" on="0"/>
        <pt x="1530" y="35" on="1"/>
        <pt x="1530" y="15" on="0"/>
        <pt x="1469" y="-12" on="0"/>
        <pt x="1347" y="-12" on="0"/>
        <pt x="1229" y="5" on="0"/>
        <pt x="1128" y="48" on="0"/>
        <pt x="1037" y="122" on="0"/>
        <pt x="990" y="180" on="1"/>
        <pt x="908" y="282" on="0"/>
        <pt x="779" y="506" on="1"/>
        <pt x="706" y="632" on="0"/>
        <pt x="594" y="680" on="1"/>
        <pt x="557" y="696" on="0"/>
        <pt x="512" y="708" on="1"/>
        <pt x="512" y="321" on="1"/>
        <pt x="512" y="197" on="0"/>
        <pt x="540" y="120" on="0"/>
        <pt x="550" y="102" on="1"/>
        <pt x="571" y="66" on="0"/>
        <pt x="628" y="66" on="1"/>
      </contour>
      <contour>
        <pt x="512" y="826" on="1"/>
        <pt x="644" y="758" on="0"/>
        <pt x="830" y="758" on="1"/>
        <pt x="966" y="758" on="0"/>
        <pt x="1056" y="836" on="1"/>
        <pt x="1158" y="925" on="0"/>
        <pt x="1158" y="1074" on="1"/>
        <pt x="1158" y="1227" on="0"/>
        <pt x="1043" y="1334" on="1"/>
        <pt x="923" y="1445" on="0"/>
        <pt x="739" y="1445" on="1"/>
        <pt x="551" y="1445" on="0"/>
        <pt x="522" y="1370" on="1"/>
        <pt x="512" y="1345" on="0"/>
        <pt x="512" y="1311" on="1"/>
      </contour>
    </TTGlyph>
    <TTGlyph name="Racute" xMin="77" yMin="-14" xMax="1530" yMax="2026">
      <component glyphName="R" x="0" y="0" flags="0x1204"/>
      <component glyphName="acute.cap" x="481" y="0" flags="0x1004"/>
    </TTGlyph>
    <TTGlyph name="Rcaron" xMin="77" yMin="-14" xMax="1530" yMax="2030">
      <component glyphName="R" x="0" y="0" flags="0x1204"/>
      <component glyphName="caron.cap" x="361" y="0" flags="0x1004"/>
    </TTGlyph>
    <TTGlyph name="Rcommaaccent" xMin="77" yMin="-530" xMax="1530" yMax="1541">
      <component glyphName="R" x="0" y="0" flags="0x1204"/>
      <component glyphName="commaaccent" x="630" y="0" flags="0x1004"/>
    </TTGlyph>
    <TTGlyph name="S" xMin="203" yMin="-23" xMax="1402" yMax="1584">
      <contour>
        <pt x="1258" y="1393" on="0"/>
        <pt x="1274" y="1318" on="0"/>
        <pt x="1302" y="1204" on="0"/>
        <pt x="1302" y="1128" on="0"/>
        <pt x="1277" y="1128" on="1"/>
        <pt x="1259" y="1128" on="0"/>
        <pt x="1235" y="1181" on="1"/>
        <pt x="1098" y="1465" on="0"/>
        <pt x="786" y="1465" on="1"/>
        <pt x="620" y="1465" on="0"/>
        <pt x="517" y="1398" on="1"/>
        <pt x="415" y="1333" on="0"/>
        <pt x="415" y="1233" on="1"/>
        <pt x="415" y="1126" on="0"/>
        <pt x="498" y="1052" on="1"/>
        <pt x="596" y="964" on="0"/>
        <pt x="986" y="873" on="0"/>
        <pt x="1211" y="776" on="0"/>
        <pt x="1278" y="716" on="1"/>
        <pt x="1402" y="606" on="0"/>
        <pt x="1402" y="422" on="1"/>
        <pt x="1402" y="220" on="0"/>
        <pt x="1240" y="98" on="1"/>
        <pt x="1078" y="-23" on="0"/>
        <pt x="810" y="-23" on="1"/>
        <pt x="533" y="-23" on="0"/>
        <pt x="319" y="72" on="1"/>
        <pt x="203" y="125" on="1"/>
        <pt x="203" y="470" on="1"/>
        <pt x="203" y="585" on="0"/>
        <pt x="239" y="585" on="1"/>
        <pt x="262" y="585" on="0"/>
        <pt x="271" y="529" on="1"/>
        <pt x="293" y="331" on="0"/>
        <pt x="446" y="202" on="1"/>
        <pt x="598" y="75" on="0"/>
        <pt x="815" y="75" on="1"/>
        <pt x="1101" y="75" on="0"/>
        <pt x="1186" y="228" on="1"/>
        <pt x="1214" y="279" on="0"/>
        <pt x="1214" y="393" on="0"/>
        <pt x="1168" y="486" on="0"/>
        <pt x="1115" y="528" on="1"/>
        <pt x="1003" y="617" on="0"/>
        <pt x="760" y="670" on="1"/>
        <pt x="494" y="729" on="0"/>
        <pt x="358" y="860" on="1"/>
        <pt x="235" y="978" on="0"/>
        <pt x="235" y="1138" on="1"/>
        <pt x="235" y="1309" on="0"/>
        <pt x="376" y="1428" on="1"/>
        <pt x="534" y="1561" on="0"/>
        <pt x="797" y="1561" on="1"/>
        <pt x="944" y="1561" on="0"/>
        <pt x="1058" y="1524" on="1"/>
        <pt x="1086" y="1514" on="1"/>
        <pt x="1108" y="1507" on="0"/>
        <pt x="1118" y="1507" on="1"/>
        <pt x="1143" y="1507" on="0"/>
        <pt x="1164" y="1536" on="1"/>
        <pt x="1199" y="1584" on="0"/>
        <pt x="1213" y="1584" on="1"/>
        <pt x="1238" y="1584" on="0"/>
        <pt x="1241" y="1510" on="0"/>
        <pt x="1247" y="1456" on="0"/>
      </contour>
    </TTGlyph>
    <TTGlyph name="Sacute" xMin="203" yMin="-23" xMax="1402" yMax="2026">
      <component glyphName="S" x="0" y="0" flags="0x1204"/>
      <component glyphName="acute.cap" x="480" y="0" flags="0x1004"/>
    </TTGlyph>
    <TTGlyph name="Scaron" xMin="203" yMin="-23" xMax="1402" yMax="2030">
      <component glyphName="S" x="0" y="0" flags="0x1204"/>
      <component glyphName="caron.cap" x="360" y="0" flags="0x1004"/>
    </TTGlyph>
    <TTGlyph name="Scedilla" xMin="203" yMin="-530" xMax="1402" yMax="1584">
      <contour>
        <pt x="1258" y="1393" on="0"/>
        <pt x="1274" y="1318" on="0"/>
        <pt x="1302" y="1204" on="0"/>
        <pt x="1302" y="1128" on="0"/>
        <pt x="1277" y="1128" on="1"/>
        <pt x="1259" y="1128" on="0"/>
        <pt x="1235" y="1181" on="1"/>
        <pt x="1098" y="1465" on="0"/>
        <pt x="786" y="1465" on="1"/>
        <pt x="620" y="1465" on="0"/>
        <pt x="517" y="1398" on="1"/>
        <pt x="415" y="1333" on="0"/>
        <pt x="415" y="1233" on="1"/>
        <pt x="415" y="1126" on="0"/>
        <pt x="498" y="1052" on="1"/>
        <pt x="596" y="964" on="0"/>
        <pt x="986" y="873" on="0"/>
        <pt x="1211" y="776" on="0"/>
        <pt x="1278" y="716" on="1"/>
        <pt x="1402" y="606" on="0"/>
        <pt x="1402" y="422" on="1"/>
        <pt x="1402" y="220" on="0"/>
        <pt x="1240" y="98" on="1"/>
        <pt x="1078" y="-23" on="0"/>
        <pt x="810" y="-23" on="1"/>
        <pt x="788" y="-23" on="1"/>
        <pt x="749" y="-197" on="1"/>
        <pt x="755" y="-196" on="0"/>
        <pt x="760" y="-196" on="1"/>
        <pt x="771" y="-196" on="1"/>
        <pt x="866" y="-196" on="0"/>
        <pt x="933" y="-238" on="1"/>
        <pt x="1004" y="-282" on="0"/>
        <pt x="1004" y="-350" on="1"/>
        <pt x="1004" y="-424" on="0"/>
        <pt x="922" y="-478" on="1"/>
        <pt x="841" y="-530" on="0"/>
        <pt x="739" y="-530" on="1"/>
        <pt x="618" y="-530" on="0"/>
        <pt x="556" y="-474" on="1"/>
        <pt x="534" y="-454" on="0"/>
        <pt x="534" y="-407" on="0"/>
        <pt x="561" y="-374" on="0"/>
        <pt x="584" y="-374" on="1"/>
        <pt x="621" y="-374" on="0"/>
        <pt x="659" y="-408" on="1"/>
        <pt x="720" y="-463" on="0"/>
        <pt x="824" y="-463" on="0"/>
        <pt x="870" y="-417" on="0"/>
        <pt x="870" y="-326" on="0"/>
        <pt x="801" y="-265" on="0"/>
        <pt x="755" y="-265" on="1"/>
        <pt x="685" y="-265" on="0"/>
        <pt x="642" y="-281" on="1"/>
        <pt x="693" y="-18" on="1"/>
        <pt x="484" y="-3" on="0"/>
        <pt x="302" y="79" on="1"/>
        <pt x="203" y="125" on="1"/>
        <pt x="203" y="470" on="1"/>
        <pt x="203" y="585" on="0"/>
        <pt x="239" y="585" on="1"/>
        <pt x="262" y="585" on="0"/>
        <pt x="271" y="529" on="1"/>
        <pt x="293" y="331" on="0"/>
        <pt x="446" y="202" on="1"/>
        <pt x="598" y="75" on="0"/>
        <pt x="815" y="75" on="1"/>
        <pt x="1101" y="75" on="0"/>
        <pt x="1186" y="228" on="1"/>
        <pt x="1214" y="279" on="0"/>
        <pt x="1214" y="393" on="0"/>
        <pt x="1168" y="486" on="0"/>
        <pt x="1115" y="528" on="1"/>
        <pt x="1003" y="617" on="0"/>
        <pt x="760" y="670" on="1"/>
        <pt x="494" y="729" on="0"/>
        <pt x="358" y="860" on="1"/>
        <pt x="235" y="978" on="0"/>
        <pt x="235" y="1138" on="1"/>
        <pt x="235" y="1309" on="0"/>
        <pt x="376" y="1428" on="1"/>
        <pt x="534" y="1561" on="0"/>
        <pt x="797" y="1561" on="1"/>
        <pt x="944" y="1561" on="0"/>
        <pt x="1058" y="1524" on="1"/>
        <pt x="1086" y="1514" on="1"/>
        <pt x="1108" y="1507" on="0"/>
        <pt x="1118" y="1507" on="1"/>
        <pt x="1143" y="1507" on="0"/>
        <pt x="1164" y="1536" on="1"/>
        <pt x="1199" y="1584" on="0"/>
        <pt x="1213" y="1584" on="1"/>
        <pt x="1238" y="1584" on="0"/>
        <pt x="1241" y="1510" on="0"/>
        <pt x="1247" y="1456" on="0"/>
      </contour>
    </TTGlyph>
    <TTGlyph name="Scircumflex" xMin="203" yMin="-23" xMax="1402" yMax="2030">
      <component glyphName="S" x="0" y="0" flags="0x1204"/>
      <component glyphName="circumflex.cap" x="360" y="0" flags="0x1004"/>
    </TTGlyph>
    <TTGlyph name="Scommaaccent" xMin="203" yMin="-530" xMax="1402" yMax="1584">
      <component glyphName="S" x="0" y="0" flags="0x1204"/>
      <component glyphName="commaaccent" x="506" y="0" flags="0x1004"/>
    </TTGlyph>
    <TTGlyph name="T" xMin="53" yMin="-4" xMax="1494" yMax="1576">
      <contour>
        <pt x="987" y="66" on="1"/>
        <pt x="1081" y="76" on="1"/>
        <pt x="1097" y="76" on="0"/>
        <pt x="1114" y="58" on="0"/>
        <pt x="1114" y="30" on="0"/>
        <pt x="1067" y="0" on="0"/>
        <pt x="1001" y="0" on="0"/>
        <pt x="964" y="1" on="0"/>
        <pt x="946" y="2" on="1"/>
        <pt x="917" y="4" on="0"/>
        <pt x="874" y="9" on="0"/>
        <pt x="842" y="12" on="0"/>
        <pt x="824" y="13" on="1"/>
        <pt x="790" y="15" on="0"/>
        <pt x="760" y="15" on="1"/>
        <pt x="682" y="15" on="0"/>
        <pt x="625" y="6" on="0"/>
        <pt x="593" y="3" on="0"/>
        <pt x="574" y="2" on="1"/>
        <pt x="460" y="-4" on="0"/>
        <pt x="406" y="30" on="0"/>
        <pt x="406" y="44" on="1"/>
        <pt x="406" y="76" on="0"/>
        <pt x="439" y="76" on="1"/>
        <pt x="533" y="66" on="1"/>
        <pt x="590" y="66" on="0"/>
        <pt x="611" y="102" on="1"/>
        <pt x="642" y="157" on="0"/>
        <pt x="649" y="279" on="0"/>
        <pt x="649" y="321" on="1"/>
        <pt x="649" y="1415" on="1"/>
        <pt x="576" y="1415" on="1"/>
        <pt x="513" y="1415" on="0"/>
        <pt x="453" y="1402" on="1"/>
        <pt x="374" y="1386" on="1"/>
        <pt x="263" y="1361" on="0"/>
        <pt x="152" y="1236" on="1"/>
        <pt x="107" y="1183" on="1"/>
        <pt x="87" y="1159" on="0"/>
        <pt x="53" y="1159" on="0"/>
        <pt x="53" y="1205" on="0"/>
        <pt x="72" y="1270" on="0"/>
        <pt x="86" y="1314" on="1"/>
        <pt x="123" y="1429" on="0"/>
        <pt x="145" y="1557" on="0"/>
        <pt x="163" y="1576" on="0"/>
        <pt x="172" y="1576" on="1"/>
        <pt x="187" y="1576" on="0"/>
        <pt x="224" y="1530" on="0"/>
        <pt x="238" y="1521" on="0"/>
        <pt x="250" y="1518" on="1"/>
        <pt x="270" y="1513" on="0"/>
        <pt x="330" y="1513" on="1"/>
        <pt x="1308" y="1513" on="1"/>
        <pt x="1369" y="1513" on="0"/>
        <pt x="1434" y="1556" on="0"/>
        <pt x="1457" y="1576" on="0"/>
        <pt x="1469" y="1576" on="1"/>
        <pt x="1494" y="1576" on="0"/>
        <pt x="1494" y="1545" on="1"/>
        <pt x="1494" y="1534" on="0"/>
        <pt x="1486" y="1516" on="1"/>
        <pt x="1468" y="1474" on="1"/>
        <pt x="1417" y="1354" on="0"/>
        <pt x="1389" y="1236" on="0"/>
        <pt x="1382" y="1205" on="1"/>
        <pt x="1372" y="1156" on="0"/>
        <pt x="1353" y="1156" on="1"/>
        <pt x="1331" y="1156" on="0"/>
        <pt x="1327" y="1183" on="1"/>
        <pt x="1314" y="1246" on="0"/>
        <pt x="1258" y="1340" on="0"/>
        <pt x="1173" y="1384" on="0"/>
        <pt x="1102" y="1400" on="0"/>
        <pt x="1059" y="1405" on="1"/>
        <pt x="995" y="1412" on="0"/>
        <pt x="871" y="1415" on="1"/>
        <pt x="871" y="321" on="1"/>
        <pt x="871" y="197" on="0"/>
        <pt x="899" y="120" on="0"/>
        <pt x="910" y="102" on="1"/>
        <pt x="930" y="66" on="0"/>
      </contour>
    </TTGlyph>
    <TTGlyph name="Tbar" xMin="53" yMin="-4" xMax="1494" yMax="1576">
      <contour>
        <pt x="987" y="66" on="1"/>
        <pt x="1081" y="76" on="1"/>
        <pt x="1097" y="76" on="0"/>
        <pt x="1114" y="58" on="0"/>
        <pt x="1114" y="30" on="0"/>
        <pt x="1067" y="0" on="0"/>
        <pt x="1001" y="0" on="0"/>
        <pt x="964" y="1" on="0"/>
        <pt x="946" y="2" on="1"/>
        <pt x="917" y="4" on="0"/>
        <pt x="874" y="9" on="0"/>
        <pt x="842" y="12" on="0"/>
        <pt x="824" y="13" on="1"/>
        <pt x="790" y="15" on="0"/>
        <pt x="760" y="15" on="1"/>
        <pt x="682" y="15" on="0"/>
        <pt x="625" y="6" on="0"/>
        <pt x="593" y="3" on="0"/>
        <pt x="574" y="2" on="1"/>
        <pt x="460" y="-4" on="0"/>
        <pt x="406" y="30" on="0"/>
        <pt x="406" y="44" on="1"/>
        <pt x="406" y="76" on="0"/>
        <pt x="439" y="76" on="1"/>
        <pt x="533" y="66" on="1"/>
        <pt x="590" y="66" on="0"/>
        <pt x="611" y="102" on="1"/>
        <pt x="642" y="157" on="0"/>
        <pt x="649" y="279" on="0"/>
        <pt x="649" y="321" on="1"/>
        <pt x="649" y="873" on="1"/>
        <pt x="392" y="873" on="1"/>
        <pt x="300" y="873" on="0"/>
        <pt x="300" y="925" on="1"/>
        <pt x="300" y="970" on="0"/>
        <pt x="395" y="970" on="1"/>
        <pt x="649" y="970" on="1"/>
        <pt x="649" y="1415" on="1"/>
        <pt x="576" y="1415" on="1"/>
        <pt x="513" y="1415" on="0"/>
        <pt x="453" y="1402" on="1"/>
        <pt x="374" y="1386" on="1"/>
        <pt x="263" y="1361" on="0"/>
        <pt x="152" y="1236" on="1"/>
        <pt x="107" y="1183" on="1"/>
        <pt x="87" y="1159" on="0"/>
        <pt x="53" y="1159" on="0"/>
        <pt x="53" y="1205" on="0"/>
        <pt x="72" y="1270" on="0"/>
        <pt x="86" y="1314" on="1"/>
        <pt x="123" y="1429" on="0"/>
        <pt x="145" y="1557" on="0"/>
        <pt x="163" y="1576" on="0"/>
        <pt x="172" y="1576" on="1"/>
        <pt x="187" y="1576" on="0"/>
        <pt x="224" y="1530" on="0"/>
        <pt x="238" y="1521" on="0"/>
        <pt x="250" y="1518" on="1"/>
        <pt x="270" y="1513" on="0"/>
        <pt x="330" y="1513" on="1"/>
        <pt x="1308" y="1513" on="1"/>
        <pt x="1369" y="1513" on="0"/>
        <pt x="1434" y="1556" on="0"/>
        <pt x="1457" y="1576" on="0"/>
        <pt x="1469" y="1576" on="1"/>
        <pt x="1494" y="1576" on="0"/>
        <pt x="1494" y="1545" on="1"/>
        <pt x="1494" y="1534" on="0"/>
        <pt x="1486" y="1516" on="1"/>
        <pt x="1468" y="1474" on="1"/>
        <pt x="1417" y="1354" on="0"/>
        <pt x="1389" y="1236" on="0"/>
        <pt x="1382" y="1205" on="1"/>
        <pt x="1372" y="1156" on="0"/>
        <pt x="1353" y="1156" on="1"/>
        <pt x="1331" y="1156" on="0"/>
        <pt x="1327" y="1183" on="1"/>
        <pt x="1314" y="1246" on="0"/>
        <pt x="1258" y="1340" on="0"/>
        <pt x="1173" y="1384" on="0"/>
        <pt x="1102" y="1400" on="0"/>
        <pt x="1059" y="1405" on="1"/>
        <pt x="995" y="1412" on="0"/>
        <pt x="871" y="1415" on="1"/>
        <pt x="871" y="970" on="1"/>
        <pt x="1105" y="970" on="1"/>
        <pt x="1200" y="970" on="0"/>
        <pt x="1200" y="918" on="1"/>
        <pt x="1200" y="873" on="0"/>
        <pt x="1106" y="873" on="1"/>
        <pt x="871" y="873" on="1"/>
        <pt x="871" y="321" on="1"/>
        <pt x="871" y="197" on="0"/>
        <pt x="899" y="120" on="0"/>
        <pt x="910" y="102" on="1"/>
        <pt x="930" y="66" on="0"/>
      </contour>
    </TTGlyph>
    <TTGlyph name="Tcaron" xMin="53" yMin="-4" xMax="1494" yMax="2030">
      <component glyphName="T" x="0" y="0" flags="0x1204"/>
      <component glyphName="caron.cap" x="331" y="0" flags="0x1004"/>
    </TTGlyph>
    <TTGlyph name="Tcommaaccent" xMin="53" yMin="-530" xMax="1494" yMax="1576">
      <component glyphName="T" x="0" y="0" flags="0x1204"/>
      <component glyphName="commaaccent" x="506" y="0" flags="0x1004"/>
    </TTGlyph>
    <TTGlyph name="Thorn" xMin="111" yMin="-14" xMax="1426" yMax="1528">
      <contour>
        <pt x="662" y="66" on="1"/>
        <pt x="756" y="76" on="1"/>
        <pt x="772" y="76" on="0"/>
        <pt x="789" y="58" on="0"/>
        <pt x="789" y="30" on="0"/>
        <pt x="742" y="0" on="0"/>
        <pt x="676" y="0" on="0"/>
        <pt x="639" y="1" on="0"/>
        <pt x="620" y="2" on="1"/>
        <pt x="592" y="4" on="0"/>
        <pt x="549" y="9" on="0"/>
        <pt x="517" y="12" on="0"/>
        <pt x="500" y="13" on="1"/>
        <pt x="464" y="15" on="0"/>
        <pt x="435" y="15" on="1"/>
        <pt x="357" y="15" on="0"/>
        <pt x="324" y="10" on="1"/>
        <pt x="165" y="-14" on="0"/>
        <pt x="130" y="15" on="1"/>
        <pt x="111" y="30" on="0"/>
        <pt x="111" y="46" on="1"/>
        <pt x="111" y="73" on="0"/>
        <pt x="144" y="73" on="1"/>
        <pt x="208" y="66" on="1"/>
        <pt x="265" y="66" on="0"/>
        <pt x="286" y="102" on="1"/>
        <pt x="317" y="157" on="0"/>
        <pt x="324" y="279" on="0"/>
        <pt x="324" y="321" on="1"/>
        <pt x="324" y="1207" on="1"/>
        <pt x="324" y="1331" on="0"/>
        <pt x="296" y="1408" on="0"/>
        <pt x="286" y="1426" on="1"/>
        <pt x="265" y="1462" on="0"/>
        <pt x="208" y="1462" on="1"/>
        <pt x="144" y="1455" on="1"/>
        <pt x="111" y="1455" on="0"/>
        <pt x="111" y="1482" on="1"/>
        <pt x="111" y="1498" on="0"/>
        <pt x="148" y="1528" on="0"/>
        <pt x="188" y="1528" on="1"/>
        <pt x="246" y="1528" on="0"/>
        <pt x="321" y="1519" on="0"/>
        <pt x="353" y="1516" on="0"/>
        <pt x="370" y="1515" on="1"/>
        <pt x="406" y="1513" on="0"/>
        <pt x="435" y="1513" on="1"/>
        <pt x="513" y="1513" on="0"/>
        <pt x="570" y="1522" on="0"/>
        <pt x="602" y="1525" on="0"/>
        <pt x="620" y="1526" on="1"/>
        <pt x="658" y="1528" on="0"/>
        <pt x="742" y="1528" on="0"/>
        <pt x="789" y="1498" on="0"/>
        <pt x="789" y="1484" on="1"/>
        <pt x="789" y="1452" on="0"/>
        <pt x="756" y="1452" on="1"/>
        <pt x="662" y="1462" on="1"/>
        <pt x="605" y="1462" on="0"/>
        <pt x="584" y="1426" on="1"/>
        <pt x="553" y="1371" on="0"/>
        <pt x="546" y="1249" on="0"/>
        <pt x="546" y="1207" on="1"/>
        <pt x="546" y="1197" on="1"/>
        <pt x="686" y="1233" on="0"/>
        <pt x="965" y="1233" on="0"/>
        <pt x="1190" y="1172" on="0"/>
        <pt x="1268" y="1116" on="1"/>
        <pt x="1426" y="1001" on="0"/>
        <pt x="1426" y="804" on="1"/>
        <pt x="1426" y="645" on="0"/>
        <pt x="1332" y="530" on="1"/>
        <pt x="1208" y="377" on="0"/>
        <pt x="956" y="337" on="1"/>
        <pt x="881" y="325" on="0"/>
        <pt x="666" y="325" on="0"/>
        <pt x="546" y="355" on="1"/>
        <pt x="546" y="104" on="0"/>
        <pt x="615" y="74" on="1"/>
        <pt x="635" y="66" on="0"/>
      </contour>
      <contour>
        <pt x="546" y="483" on="1"/>
        <pt x="657" y="424" on="0"/>
        <pt x="826" y="424" on="1"/>
        <pt x="988" y="424" on="0"/>
        <pt x="1084" y="504" on="1"/>
        <pt x="1183" y="588" on="0"/>
        <pt x="1183" y="730" on="1"/>
        <pt x="1183" y="913" on="0"/>
        <pt x="1059" y="1026" on="1"/>
        <pt x="938" y="1135" on="0"/>
        <pt x="748" y="1135" on="1"/>
        <pt x="664" y="1135" on="0"/>
        <pt x="621" y="1107" on="1"/>
        <pt x="546" y="1057" on="0"/>
        <pt x="546" y="991" on="1"/>
      </contour>
    </TTGlyph>
    <TTGlyph name="U" xMin="67" yMin="-23" xMax="1768" yMax="1528">
      <contour>
        <pt x="1399" y="0" on="1"/>
        <pt x="1336" y="0" on="0"/>
        <pt x="1333" y="117" on="1"/>
        <pt x="1135" y="-23" on="0"/>
        <pt x="903" y="-23" on="1"/>
        <pt x="602" y="-23" on="0"/>
        <pt x="440" y="128" on="1"/>
        <pt x="280" y="276" on="0"/>
        <pt x="280" y="545" on="1"/>
        <pt x="280" y="1207" on="1"/>
        <pt x="280" y="1331" on="0"/>
        <pt x="252" y="1408" on="0"/>
        <pt x="242" y="1426" on="1"/>
        <pt x="221" y="1462" on="0"/>
        <pt x="164" y="1462" on="1"/>
        <pt x="100" y="1455" on="1"/>
        <pt x="67" y="1455" on="0"/>
        <pt x="67" y="1482" on="1"/>
        <pt x="67" y="1498" on="0"/>
        <pt x="104" y="1528" on="0"/>
        <pt x="144" y="1528" on="1"/>
        <pt x="202" y="1528" on="0"/>
        <pt x="277" y="1519" on="0"/>
        <pt x="309" y="1516" on="0"/>
        <pt x="326" y="1515" on="1"/>
        <pt x="362" y="1513" on="0"/>
        <pt x="391" y="1513" on="1"/>
        <pt x="469" y="1513" on="0"/>
        <pt x="502" y="1518" on="1"/>
        <pt x="568" y="1528" on="0"/>
        <pt x="678" y="1528" on="0"/>
        <pt x="715" y="1498" on="0"/>
        <pt x="715" y="1482" on="1"/>
        <pt x="715" y="1455" on="0"/>
        <pt x="682" y="1455" on="1"/>
        <pt x="618" y="1462" on="1"/>
        <pt x="561" y="1462" on="0"/>
        <pt x="540" y="1426" on="1"/>
        <pt x="509" y="1371" on="0"/>
        <pt x="502" y="1249" on="0"/>
        <pt x="502" y="1207" on="1"/>
        <pt x="502" y="505" on="1"/>
        <pt x="502" y="304" on="0"/>
        <pt x="622" y="188" on="1"/>
        <pt x="739" y="75" on="0"/>
        <pt x="1158" y="75" on="0"/>
        <pt x="1333" y="224" on="1"/>
        <pt x="1333" y="1207" on="1"/>
        <pt x="1333" y="1331" on="0"/>
        <pt x="1305" y="1408" on="0"/>
        <pt x="1294" y="1426" on="1"/>
        <pt x="1274" y="1462" on="0"/>
        <pt x="1217" y="1462" on="1"/>
        <pt x="1153" y="1455" on="1"/>
        <pt x="1120" y="1455" on="0"/>
        <pt x="1120" y="1482" on="1"/>
        <pt x="1120" y="1498" on="0"/>
        <pt x="1157" y="1528" on="0"/>
        <pt x="1197" y="1528" on="1"/>
        <pt x="1255" y="1528" on="0"/>
        <pt x="1330" y="1519" on="0"/>
        <pt x="1362" y="1516" on="0"/>
        <pt x="1380" y="1515" on="1"/>
        <pt x="1414" y="1513" on="0"/>
        <pt x="1444" y="1513" on="1"/>
        <pt x="1522" y="1513" on="0"/>
        <pt x="1555" y="1518" on="1"/>
        <pt x="1621" y="1528" on="0"/>
        <pt x="1731" y="1528" on="0"/>
        <pt x="1768" y="1498" on="0"/>
        <pt x="1768" y="1482" on="1"/>
        <pt x="1768" y="1455" on="0"/>
        <pt x="1735" y="1455" on="1"/>
        <pt x="1671" y="1462" on="1"/>
        <pt x="1614" y="1462" on="0"/>
        <pt x="1593" y="1426" on="1"/>
        <pt x="1562" y="1371" on="0"/>
        <pt x="1555" y="1249" on="0"/>
        <pt x="1555" y="1207" on="1"/>
        <pt x="1558" y="345" on="1"/>
        <pt x="1558" y="157" on="0"/>
        <pt x="1591" y="77" on="0"/>
        <pt x="1639" y="63" on="0"/>
        <pt x="1666" y="63" on="1"/>
        <pt x="1722" y="70" on="1"/>
        <pt x="1754" y="70" on="0"/>
        <pt x="1754" y="45" on="1"/>
        <pt x="1754" y="-3" on="0"/>
        <pt x="1661" y="-3" on="1"/>
        <pt x="1508" y="6" on="1"/>
        <pt x="1495" y="6" on="0"/>
        <pt x="1483" y="5" on="1"/>
        <pt x="1458" y="3" on="1"/>
        <pt x="1431" y="0" on="0"/>
      </contour>
    </TTGlyph>
    <TTGlyph name="Uacute" xMin="67" yMin="-23" xMax="1768" yMax="2026">
      <component glyphName="U" x="0" y="0" flags="0x1204"/>
      <component glyphName="acute.cap" x="595" y="0" flags="0x1004"/>
    </TTGlyph>
    <TTGlyph name="Ubreve" xMin="67" yMin="-23" xMax="1768" yMax="2017">
      <component glyphName="U" x="0" y="0" flags="0x1204"/>
      <component glyphName="breve.cap" x="407" y="0" flags="0x1004"/>
    </TTGlyph>
    <TTGlyph name="Ucircumflex" xMin="67" yMin="-23" xMax="1768" yMax="2030">
      <component glyphName="U" x="0" y="0" flags="0x1204"/>
      <component glyphName="circumflex.cap" x="475" y="0" flags="0x1004"/>
    </TTGlyph>
    <TTGlyph name="Udieresis" xMin="67" yMin="-23" xMax="1768" yMax="1982">
      <component glyphName="U" x="0" y="0" flags="0x1204"/>
      <component glyphName="dieresis.cap" x="382" y="0" flags="0x1004"/>
    </TTGlyph>
    <TTGlyph name="Ugrave" xMin="67" yMin="-23" xMax="1768" yMax="2026">
      <component glyphName="U" x="0" y="0" flags="0x1204"/>
      <component glyphName="grave.cap" x="595" y="0" flags="0x1004"/>
    </TTGlyph>
    <TTGlyph name="Uhungarumlaut" xMin="67" yMin="-23" xMax="1768" yMax="2027">
      <component glyphName="U" x="0" y="0" flags="0x1204"/>
      <component glyphName="hungarumlaut.cap" x="633" y="0" flags="0x1004"/>
    </TTGlyph>
    <TTGlyph name="Umacron" xMin="67" yMin="-23" xMax="1768" yMax="1938">
      <component glyphName="U" x="0" y="0" flags="0x1204"/>
      <component glyphName="macron.cap" x="1428" y="0" flags="0x1004"/>
    </TTGlyph>
    <TTGlyph name="Uogonek" xMin="67" yMin="-468" xMax="1768" yMax="1528">
      <contour>
        <pt x="1395" y="0" on="1"/>
        <pt x="1336" y="0" on="0"/>
        <pt x="1333" y="117" on="1"/>
        <pt x="1135" y="-23" on="0"/>
        <pt x="903" y="-23" on="1"/>
        <pt x="602" y="-23" on="0"/>
        <pt x="440" y="128" on="1"/>
        <pt x="280" y="276" on="0"/>
        <pt x="280" y="545" on="1"/>
        <pt x="280" y="1207" on="1"/>
        <pt x="280" y="1331" on="0"/>
        <pt x="252" y="1408" on="0"/>
        <pt x="242" y="1426" on="1"/>
        <pt x="221" y="1462" on="0"/>
        <pt x="164" y="1462" on="1"/>
        <pt x="100" y="1455" on="1"/>
        <pt x="67" y="1455" on="0"/>
        <pt x="67" y="1482" on="1"/>
        <pt x="67" y="1498" on="0"/>
        <pt x="104" y="1528" on="0"/>
        <pt x="144" y="1528" on="1"/>
        <pt x="202" y="1528" on="0"/>
        <pt x="277" y="1519" on="0"/>
        <pt x="309" y="1516" on="0"/>
        <pt x="326" y="1515" on="1"/>
        <pt x="362" y="1513" on="0"/>
        <pt x="391" y="1513" on="1"/>
        <pt x="469" y="1513" on="0"/>
        <pt x="502" y="1518" on="1"/>
        <pt x="568" y="1528" on="0"/>
        <pt x="678" y="1528" on="0"/>
        <pt x="715" y="1498" on="0"/>
        <pt x="715" y="1482" on="1"/>
        <pt x="715" y="1455" on="0"/>
        <pt x="682" y="1455" on="1"/>
        <pt x="618" y="1462" on="1"/>
        <pt x="561" y="1462" on="0"/>
        <pt x="540" y="1426" on="1"/>
        <pt x="509" y="1371" on="0"/>
        <pt x="502" y="1249" on="0"/>
        <pt x="502" y="1207" on="1"/>
        <pt x="502" y="505" on="1"/>
        <pt x="502" y="304" on="0"/>
        <pt x="622" y="188" on="1"/>
        <pt x="739" y="75" on="0"/>
        <pt x="1158" y="75" on="0"/>
        <pt x="1333" y="224" on="1"/>
        <pt x="1333" y="1207" on="1"/>
        <pt x="1333" y="1331" on="0"/>
        <pt x="1305" y="1408" on="0"/>
        <pt x="1294" y="1426" on="1"/>
        <pt x="1274" y="1462" on="0"/>
        <pt x="1217" y="1462" on="1"/>
        <pt x="1153" y="1455" on="1"/>
        <pt x="1120" y="1455" on="0"/>
        <pt x="1120" y="1482" on="1"/>
        <pt x="1120" y="1498" on="0"/>
        <pt x="1157" y="1528" on="0"/>
        <pt x="1197" y="1528" on="1"/>
        <pt x="1255" y="1528" on="0"/>
        <pt x="1330" y="1519" on="0"/>
        <pt x="1362" y="1516" on="0"/>
        <pt x="1380" y="1515" on="1"/>
        <pt x="1414" y="1513" on="0"/>
        <pt x="1444" y="1513" on="1"/>
        <pt x="1522" y="1513" on="0"/>
        <pt x="1555" y="1518" on="1"/>
        <pt x="1621" y="1528" on="0"/>
        <pt x="1731" y="1528" on="0"/>
        <pt x="1768" y="1498" on="0"/>
        <pt x="1768" y="1482" on="1"/>
        <pt x="1768" y="1455" on="0"/>
        <pt x="1735" y="1455" on="1"/>
        <pt x="1671" y="1462" on="1"/>
        <pt x="1614" y="1462" on="0"/>
        <pt x="1593" y="1426" on="1"/>
        <pt x="1562" y="1371" on="0"/>
        <pt x="1555" y="1249" on="0"/>
        <pt x="1555" y="1207" on="1"/>
        <pt x="1558" y="345" on="1"/>
        <pt x="1558" y="157" on="0"/>
        <pt x="1591" y="77" on="0"/>
        <pt x="1639" y="63" on="0"/>
        <pt x="1666" y="63" on="1"/>
        <pt x="1722" y="70" on="1"/>
        <pt x="1754" y="70" on="0"/>
        <pt x="1754" y="45" on="1"/>
        <pt x="1754" y="-3" on="0"/>
        <pt x="1661" y="-3" on="1"/>
        <pt x="1514" y="6" on="1"/>
        <pt x="1457" y="-88" on="0"/>
        <pt x="1457" y="-198" on="1"/>
        <pt x="1457" y="-312" on="0"/>
        <pt x="1594" y="-376" on="1"/>
        <pt x="1641" y="-399" on="0"/>
        <pt x="1731" y="-418" on="0"/>
        <pt x="1745" y="-434" on="0"/>
        <pt x="1745" y="-443" on="1"/>
        <pt x="1745" y="-452" on="0"/>
        <pt x="1729" y="-466" on="0"/>
        <pt x="1716" y="-466" on="1"/>
        <pt x="1494" y="-468" on="1"/>
        <pt x="1360" y="-468" on="0"/>
        <pt x="1316" y="-372" on="1"/>
        <pt x="1300" y="-338" on="0"/>
        <pt x="1300" y="-289" on="1"/>
        <pt x="1300" y="-126" on="0"/>
      </contour>
    </TTGlyph>
    <TTGlyph name="Uring" xMin="67" yMin="-23" xMax="1768" yMax="2020">
      <component glyphName="U" x="0" y="0" flags="0x1204"/>
      <component glyphName="ring.cap" x="588" y="0" flags="0x1004"/>
    </TTGlyph>
    <TTGlyph name="Utilde" xMin="67" yMin="-23" xMax="1768" yMax="1949">
      <component glyphName="U" x="0" y="0" flags="0x1204"/>
      <component glyphName="tilde.cap" x="438" y="0" flags="0x1004"/>
    </TTGlyph>
    <TTGlyph name="V" xMin="-27" yMin="-84" xMax="1735" yMax="1528">
      <contour>
        <pt x="1702" y="1455" on="1"/>
        <pt x="1646" y="1463" on="1"/>
        <pt x="1595" y="1463" on="0"/>
        <pt x="1565" y="1424" on="1"/>
        <pt x="1516" y="1359" on="0"/>
        <pt x="1430" y="1169" on="1"/>
        <pt x="999" y="222" on="0"/>
        <pt x="964" y="131" on="0"/>
        <pt x="958" y="110" on="1"/>
        <pt x="949" y="75" on="0"/>
        <pt x="949" y="46" on="1"/>
        <pt x="949" y="-9" on="0"/>
        <pt x="988" y="-25" on="1"/>
        <pt x="1021" y="-39" on="0"/>
        <pt x="1021" y="-84" on="0"/>
        <pt x="957" y="-84" on="0"/>
        <pt x="886" y="-46" on="0"/>
        <pt x="844" y="2" on="1"/>
        <pt x="748" y="110" on="0"/>
        <pt x="647" y="332" on="1"/>
        <pt x="222" y="1259" on="1"/>
        <pt x="143" y="1436" on="0"/>
        <pt x="93" y="1456" on="1"/>
        <pt x="77" y="1463" on="0"/>
        <pt x="61" y="1463" on="1"/>
        <pt x="6" y="1455" on="1"/>
        <pt x="-27" y="1455" on="0"/>
        <pt x="-27" y="1481" on="1"/>
        <pt x="-27" y="1499" on="0"/>
        <pt x="16" y="1528" on="0"/>
        <pt x="61" y="1528" on="1"/>
        <pt x="258" y="1514" on="1"/>
        <pt x="524" y="1528" on="1"/>
        <pt x="620" y="1528" on="0"/>
        <pt x="620" y="1481" on="1"/>
        <pt x="620" y="1456" on="0"/>
        <pt x="588" y="1456" on="1"/>
        <pt x="512" y="1465" on="1"/>
        <pt x="444" y="1465" on="0"/>
        <pt x="444" y="1414" on="1"/>
        <pt x="444" y="1376" on="0"/>
        <pt x="485" y="1284" on="1"/>
        <pt x="866" y="409" on="1"/>
        <pt x="907" y="313" on="0"/>
        <pt x="925" y="313" on="1"/>
        <pt x="938" y="313" on="0"/>
        <pt x="962" y="373" on="1"/>
        <pt x="1338" y="1245" on="1"/>
        <pt x="1387" y="1356" on="0"/>
        <pt x="1387" y="1424" on="1"/>
        <pt x="1387" y="1466" on="0"/>
        <pt x="1329" y="1466" on="1"/>
        <pt x="1243" y="1456" on="1"/>
        <pt x="1211" y="1456" on="0"/>
        <pt x="1211" y="1481" on="1"/>
        <pt x="1211" y="1500" on="0"/>
        <pt x="1255" y="1528" on="0"/>
        <pt x="1336" y="1528" on="0"/>
        <pt x="1362" y="1526" on="1"/>
        <pt x="1410" y="1521" on="1"/>
        <pt x="1466" y="1514" on="0"/>
        <pt x="1496" y="1514" on="1"/>
        <pt x="1542" y="1514" on="0"/>
        <pt x="1572" y="1518" on="1"/>
        <pt x="1618" y="1526" on="1"/>
        <pt x="1635" y="1528" on="0"/>
        <pt x="1689" y="1528" on="0"/>
        <pt x="1735" y="1503" on="0"/>
        <pt x="1735" y="1455" on="0"/>
      </contour>
    </TTGlyph>
    <TTGlyph name="W" xMin="-52" yMin="-84" xMax="2438" yMax="1528">
      <contour>
        <pt x="648" y="-84" on="1"/>
        <pt x="616" y="-84" on="0"/>
        <pt x="616" y="-59" on="1"/>
        <pt x="616" y="-44" on="0"/>
        <pt x="637" y="-31" on="0"/>
        <pt x="654" y="-23" on="1"/>
        <pt x="688" y="-6" on="0"/>
        <pt x="688" y="27" on="1"/>
        <pt x="688" y="82" on="0"/>
        <pt x="624" y="241" on="1"/>
        <pt x="196" y="1255" on="1"/>
        <pt x="142" y="1382" on="0"/>
        <pt x="84" y="1449" on="0"/>
        <pt x="52" y="1463" on="0"/>
        <pt x="36" y="1463" on="1"/>
        <pt x="-19" y="1455" on="1"/>
        <pt x="-52" y="1455" on="0"/>
        <pt x="-52" y="1481" on="1"/>
        <pt x="-52" y="1499" on="0"/>
        <pt x="-9" y="1528" on="0"/>
        <pt x="36" y="1528" on="1"/>
        <pt x="233" y="1514" on="1"/>
        <pt x="499" y="1528" on="1"/>
        <pt x="595" y="1528" on="0"/>
        <pt x="595" y="1481" on="1"/>
        <pt x="595" y="1456" on="0"/>
        <pt x="563" y="1456" on="1"/>
        <pt x="487" y="1465" on="1"/>
        <pt x="419" y="1465" on="0"/>
        <pt x="419" y="1414" on="1"/>
        <pt x="419" y="1382" on="0"/>
        <pt x="459" y="1284" on="1"/>
        <pt x="810" y="409" on="1"/>
        <pt x="846" y="313" on="0"/>
        <pt x="868" y="313" on="1"/>
        <pt x="885" y="313" on="0"/>
        <pt x="906" y="373" on="1"/>
        <pt x="1162" y="1121" on="1"/>
        <pt x="1114" y="1259" on="1"/>
        <pt x="1069" y="1388" on="0"/>
        <pt x="1015" y="1451" on="0"/>
        <pt x="977" y="1463" on="0"/>
        <pt x="955" y="1463" on="1"/>
        <pt x="900" y="1455" on="1"/>
        <pt x="867" y="1455" on="0"/>
        <pt x="867" y="1481" on="1"/>
        <pt x="867" y="1499" on="0"/>
        <pt x="910" y="1528" on="0"/>
        <pt x="955" y="1528" on="1"/>
        <pt x="1144" y="1514" on="1"/>
        <pt x="1410" y="1528" on="1"/>
        <pt x="1506" y="1528" on="0"/>
        <pt x="1506" y="1481" on="1"/>
        <pt x="1506" y="1456" on="0"/>
        <pt x="1474" y="1456" on="1"/>
        <pt x="1398" y="1465" on="1"/>
        <pt x="1334" y="1465" on="0"/>
        <pt x="1334" y="1416" on="1"/>
        <pt x="1334" y="1393" on="0"/>
        <pt x="1369" y="1284" on="1"/>
        <pt x="1650" y="409" on="1"/>
        <pt x="1679" y="313" on="0"/>
        <pt x="1703" y="313" on="1"/>
        <pt x="1715" y="313" on="0"/>
        <pt x="1733" y="354" on="0"/>
        <pt x="1740" y="373" on="1"/>
        <pt x="2041" y="1245" on="1"/>
        <pt x="2090" y="1385" on="0"/>
        <pt x="2090" y="1466" on="0"/>
        <pt x="2022" y="1466" on="1"/>
        <pt x="1946" y="1456" on="1"/>
        <pt x="1914" y="1456" on="0"/>
        <pt x="1914" y="1481" on="1"/>
        <pt x="1914" y="1500" on="0"/>
        <pt x="1958" y="1528" on="0"/>
        <pt x="2039" y="1528" on="0"/>
        <pt x="2065" y="1526" on="1"/>
        <pt x="2113" y="1521" on="1"/>
        <pt x="2169" y="1514" on="0"/>
        <pt x="2198" y="1514" on="1"/>
        <pt x="2245" y="1514" on="0"/>
        <pt x="2274" y="1518" on="1"/>
        <pt x="2321" y="1526" on="1"/>
        <pt x="2338" y="1528" on="0"/>
        <pt x="2392" y="1528" on="0"/>
        <pt x="2438" y="1503" on="0"/>
        <pt x="2438" y="1455" on="0"/>
        <pt x="2405" y="1455" on="1"/>
        <pt x="2349" y="1463" on="1"/>
        <pt x="2290" y="1463" on="0"/>
        <pt x="2258" y="1424" on="1"/>
        <pt x="2198" y="1352" on="0"/>
        <pt x="2133" y="1169" on="1"/>
        <pt x="1876" y="442" on="1"/>
        <pt x="1745" y="90" on="0"/>
        <pt x="1738" y="44" on="0"/>
        <pt x="1738" y="28" on="1"/>
        <pt x="1738" y="-10" on="0"/>
        <pt x="1779" y="-26" on="1"/>
        <pt x="1811" y="-39" on="0"/>
        <pt x="1811" y="-59" on="1"/>
        <pt x="1811" y="-84" on="0"/>
        <pt x="1740" y="-84" on="0"/>
        <pt x="1654" y="-35" on="0"/>
        <pt x="1610" y="12" on="1"/>
        <pt x="1510" y="117" on="0"/>
        <pt x="1457" y="280" on="1"/>
        <pt x="1220" y="957" on="1"/>
        <pt x="1007" y="343" on="1"/>
        <pt x="933" y="136" on="0"/>
        <pt x="818" y="14" on="1"/>
        <pt x="726" y="-84" on="0"/>
      </contour>
    </TTGlyph>
    <TTGlyph name="Wacute" xMin="-52" yMin="-84" xMax="2438" yMax="2026">
      <component glyphName="W" x="0" y="0" flags="0x1204"/>
      <component glyphName="acute.cap" x="871" y="0" flags="0x1004"/>
    </TTGlyph>
    <TTGlyph name="Wcircumflex" xMin="-52" yMin="-84" xMax="2438" yMax="2030">
      <component glyphName="W" x="0" y="0" flags="0x1204"/>
      <component glyphName="circumflex.cap" x="751" y="0" flags="0x1004"/>
    </TTGlyph>
    <TTGlyph name="Wdieresis" xMin="-52" yMin="-84" xMax="2438" yMax="1982">
      <component glyphName="W" x="0" y="0" flags="0x1204"/>
      <component glyphName="dieresis.cap" x="658" y="0" flags="0x1004"/>
    </TTGlyph>
    <TTGlyph name="Wgrave" xMin="-52" yMin="-84" xMax="2438" yMax="2026">
      <component glyphName="W" x="0" y="0" flags="0x1204"/>
      <component glyphName="grave.cap" x="871" y="0" flags="0x1004"/>
    </TTGlyph>
    <TTGlyph name="X" xMin="-31" yMin="0" xMax="1574" yMax="1528">
      <contour>
        <pt x="461" y="72" on="1"/>
        <pt x="493" y="72" on="0"/>
        <pt x="493" y="47" on="1"/>
        <pt x="493" y="28" on="0"/>
        <pt x="449" y="0" on="0"/>
        <pt x="368" y="0" on="0"/>
        <pt x="342" y="2" on="1"/>
        <pt x="294" y="7" on="1"/>
        <pt x="238" y="14" on="0"/>
        <pt x="208" y="14" on="1"/>
        <pt x="162" y="14" on="0"/>
        <pt x="132" y="10" on="1"/>
        <pt x="86" y="2" on="1"/>
        <pt x="69" y="0" on="0"/>
        <pt x="15" y="0" on="0"/>
        <pt x="-31" y="25" on="0"/>
        <pt x="-31" y="73" on="0"/>
        <pt x="2" y="73" on="1"/>
        <pt x="58" y="65" on="1"/>
        <pt x="95" y="65" on="0"/>
        <pt x="146" y="120" on="1"/>
        <pt x="166" y="141" on="0"/>
        <pt x="192" y="173" on="1"/>
        <pt x="659" y="740" on="1"/>
        <pt x="166" y="1407" on="1"/>
        <pt x="133" y="1454" on="0"/>
        <pt x="108" y="1460" on="1"/>
        <pt x="99" y="1463" on="0"/>
        <pt x="86" y="1463" on="1"/>
        <pt x="31" y="1455" on="1"/>
        <pt x="-2" y="1455" on="0"/>
        <pt x="-2" y="1481" on="1"/>
        <pt x="-2" y="1499" on="0"/>
        <pt x="41" y="1528" on="0"/>
        <pt x="86" y="1528" on="1"/>
        <pt x="86" y="1528" on="0"/>
        <pt x="283" y="1514" on="1"/>
        <pt x="549" y="1528" on="1"/>
        <pt x="645" y="1528" on="0"/>
        <pt x="645" y="1481" on="1"/>
        <pt x="645" y="1456" on="0"/>
        <pt x="613" y="1456" on="1"/>
        <pt x="537" y="1465" on="1"/>
        <pt x="469" y="1465" on="0"/>
        <pt x="469" y="1423" on="1"/>
        <pt x="469" y="1386" on="0"/>
        <pt x="527" y="1310" on="1"/>
        <pt x="827" y="904" on="1"/>
        <pt x="1047" y="1175" on="1"/>
        <pt x="1204" y="1370" on="0"/>
        <pt x="1204" y="1424" on="1"/>
        <pt x="1204" y="1466" on="0"/>
        <pt x="1136" y="1466" on="1"/>
        <pt x="1060" y="1456" on="1"/>
        <pt x="1028" y="1456" on="0"/>
        <pt x="1028" y="1481" on="1"/>
        <pt x="1028" y="1500" on="0"/>
        <pt x="1072" y="1528" on="0"/>
        <pt x="1153" y="1528" on="0"/>
        <pt x="1179" y="1526" on="1"/>
        <pt x="1227" y="1521" on="1"/>
        <pt x="1283" y="1514" on="0"/>
        <pt x="1312" y="1514" on="1"/>
        <pt x="1359" y="1514" on="0"/>
        <pt x="1388" y="1518" on="1"/>
        <pt x="1435" y="1526" on="1"/>
        <pt x="1452" y="1528" on="0"/>
        <pt x="1506" y="1528" on="0"/>
        <pt x="1552" y="1503" on="0"/>
        <pt x="1552" y="1455" on="0"/>
        <pt x="1519" y="1455" on="1"/>
        <pt x="1463" y="1463" on="1"/>
        <pt x="1426" y="1463" on="0"/>
        <pt x="1374" y="1408" on="1"/>
        <pt x="1355" y="1387" on="0"/>
        <pt x="1329" y="1355" on="1"/>
        <pt x="889" y="820" on="1"/>
        <pt x="1406" y="121" on="1"/>
        <pt x="1439" y="74" on="0"/>
        <pt x="1464" y="68" on="1"/>
        <pt x="1473" y="65" on="0"/>
        <pt x="1486" y="65" on="1"/>
        <pt x="1541" y="73" on="1"/>
        <pt x="1574" y="73" on="0"/>
        <pt x="1574" y="47" on="1"/>
        <pt x="1574" y="29" on="0"/>
        <pt x="1531" y="0" on="0"/>
        <pt x="1486" y="0" on="1"/>
        <pt x="1289" y="14" on="1"/>
        <pt x="1023" y="0" on="1"/>
        <pt x="927" y="0" on="0"/>
        <pt x="927" y="47" on="1"/>
        <pt x="927" y="72" on="0"/>
        <pt x="959" y="72" on="1"/>
        <pt x="1035" y="63" on="1"/>
        <pt x="1103" y="63" on="0"/>
        <pt x="1103" y="105" on="1"/>
        <pt x="1103" y="137" on="0"/>
        <pt x="1044" y="219" on="1"/>
        <pt x="720" y="656" on="1"/>
        <pt x="474" y="353" on="1"/>
        <pt x="317" y="158" on="0"/>
        <pt x="317" y="104" on="1"/>
        <pt x="317" y="62" on="0"/>
        <pt x="385" y="62" on="1"/>
      </contour>
    </TTGlyph>
    <TTGlyph name="Y" xMin="-52" yMin="-4" xMax="1597" yMax="1528">
      <contour>
        <pt x="991" y="66" on="1"/>
        <pt x="1085" y="76" on="1"/>
        <pt x="1101" y="76" on="0"/>
        <pt x="1118" y="58" on="0"/>
        <pt x="1118" y="30" on="0"/>
        <pt x="1071" y="0" on="0"/>
        <pt x="1005" y="0" on="0"/>
        <pt x="968" y="1" on="0"/>
        <pt x="950" y="2" on="1"/>
        <pt x="921" y="4" on="0"/>
        <pt x="878" y="9" on="0"/>
        <pt x="846" y="12" on="0"/>
        <pt x="828" y="13" on="1"/>
        <pt x="794" y="15" on="0"/>
        <pt x="764" y="15" on="1"/>
        <pt x="686" y="15" on="0"/>
        <pt x="629" y="6" on="0"/>
        <pt x="597" y="3" on="0"/>
        <pt x="578" y="2" on="1"/>
        <pt x="464" y="-4" on="0"/>
        <pt x="410" y="30" on="0"/>
        <pt x="410" y="44" on="1"/>
        <pt x="410" y="76" on="0"/>
        <pt x="443" y="76" on="1"/>
        <pt x="537" y="66" on="1"/>
        <pt x="594" y="66" on="0"/>
        <pt x="615" y="102" on="1"/>
        <pt x="646" y="157" on="0"/>
        <pt x="653" y="279" on="0"/>
        <pt x="653" y="321" on="1"/>
        <pt x="653" y="668" on="1"/>
        <pt x="125" y="1426" on="1"/>
        <pt x="110" y="1447" on="0"/>
        <pt x="73" y="1463" on="0"/>
        <pt x="36" y="1463" on="1"/>
        <pt x="-19" y="1455" on="1"/>
        <pt x="-52" y="1455" on="0"/>
        <pt x="-52" y="1481" on="1"/>
        <pt x="-52" y="1499" on="0"/>
        <pt x="-9" y="1528" on="0"/>
        <pt x="36" y="1528" on="1"/>
        <pt x="233" y="1514" on="1"/>
        <pt x="499" y="1528" on="1"/>
        <pt x="595" y="1528" on="0"/>
        <pt x="595" y="1481" on="1"/>
        <pt x="595" y="1456" on="0"/>
        <pt x="563" y="1456" on="1"/>
        <pt x="487" y="1465" on="1"/>
        <pt x="419" y="1465" on="0"/>
        <pt x="419" y="1424" on="1"/>
        <pt x="419" y="1389" on="0"/>
        <pt x="464" y="1321" on="1"/>
        <pt x="833" y="762" on="1"/>
        <pt x="1172" y="1262" on="1"/>
        <pt x="1249" y="1381" on="0"/>
        <pt x="1249" y="1466" on="0"/>
        <pt x="1181" y="1466" on="1"/>
        <pt x="1105" y="1456" on="1"/>
        <pt x="1073" y="1456" on="0"/>
        <pt x="1073" y="1481" on="1"/>
        <pt x="1073" y="1500" on="0"/>
        <pt x="1117" y="1528" on="0"/>
        <pt x="1198" y="1528" on="0"/>
        <pt x="1224" y="1526" on="1"/>
        <pt x="1272" y="1521" on="1"/>
        <pt x="1328" y="1514" on="0"/>
        <pt x="1358" y="1514" on="1"/>
        <pt x="1404" y="1514" on="0"/>
        <pt x="1434" y="1518" on="1"/>
        <pt x="1480" y="1526" on="1"/>
        <pt x="1497" y="1528" on="0"/>
        <pt x="1551" y="1528" on="0"/>
        <pt x="1597" y="1503" on="0"/>
        <pt x="1597" y="1455" on="0"/>
        <pt x="1564" y="1455" on="1"/>
        <pt x="1498" y="1463" on="1"/>
        <pt x="1443" y="1463" on="0"/>
        <pt x="1415" y="1426" on="1"/>
        <pt x="875" y="664" on="1"/>
        <pt x="875" y="321" on="1"/>
        <pt x="875" y="197" on="0"/>
        <pt x="903" y="120" on="0"/>
        <pt x="914" y="102" on="1"/>
        <pt x="934" y="66" on="0"/>
      </contour>
    </TTGlyph>
    <TTGlyph name="Yacute" xMin="-52" yMin="-4" xMax="1597" yMax="2026">
      <component glyphName="Y" x="0" y="0" flags="0x1204"/>
      <component glyphName="acute.cap" x="450" y="0" flags="0x1004"/>
    </TTGlyph>
    <TTGlyph name="Ycircumflex" xMin="-52" yMin="-4" xMax="1597" yMax="2030">
      <component glyphName="Y" x="0" y="0" flags="0x1204"/>
      <component glyphName="circumflex.cap" x="330" y="0" flags="0x1004"/>
    </TTGlyph>
    <TTGlyph name="Ydieresis" xMin="-52" yMin="-4" xMax="1597" yMax="1982">
      <component glyphName="Y" x="0" y="0" flags="0x1204"/>
      <component glyphName="dieresis.cap" x="237" y="0" flags="0x1004"/>
    </TTGlyph>
    <TTGlyph name="Ygrave" xMin="-52" yMin="-4" xMax="1597" yMax="2026">
      <component glyphName="Y" x="0" y="0" flags="0x1204"/>
      <component glyphName="grave.cap" x="450" y="0" flags="0x1004"/>
    </TTGlyph>
    <TTGlyph name="Z" xMin="99" yMin="0" xMax="1440" yMax="1576">
      <contour>
        <pt x="171" y="0" on="1"/>
        <pt x="99" y="0" on="0"/>
        <pt x="99" y="39" on="1"/>
        <pt x="99" y="58" on="0"/>
        <pt x="130" y="101" on="1"/>
        <pt x="1102" y="1415" on="1"/>
        <pt x="693" y="1415" on="1"/>
        <pt x="544" y="1415" on="0"/>
        <pt x="424" y="1368" on="0"/>
        <pt x="343" y="1317" on="0"/>
        <pt x="308" y="1289" on="1"/>
        <pt x="247" y="1239" on="0"/>
        <pt x="183" y="1159" on="0"/>
        <pt x="148" y="1159" on="0"/>
        <pt x="148" y="1205" on="0"/>
        <pt x="158" y="1238" on="1"/>
        <pt x="222" y="1451" on="0"/>
        <pt x="239" y="1557" on="0"/>
        <pt x="257" y="1576" on="0"/>
        <pt x="266" y="1576" on="1"/>
        <pt x="282" y="1576" on="0"/>
        <pt x="318" y="1530" on="0"/>
        <pt x="332" y="1521" on="0"/>
        <pt x="344" y="1518" on="1"/>
        <pt x="364" y="1513" on="0"/>
        <pt x="425" y="1513" on="1"/>
        <pt x="1361" y="1513" on="1"/>
        <pt x="1422" y="1513" on="0"/>
        <pt x="1422" y="1485" on="1"/>
        <pt x="1422" y="1465" on="0"/>
        <pt x="1393" y="1425" on="1"/>
        <pt x="423" y="97" on="1"/>
        <pt x="892" y="97" on="1"/>
        <pt x="992" y="97" on="0"/>
        <pt x="1043" y="114" on="1"/>
        <pt x="1126" y="143" on="0"/>
        <pt x="1206" y="206" on="1"/>
        <pt x="1246" y="237" on="1"/>
        <pt x="1265" y="252" on="0"/>
        <pt x="1284" y="270" on="1"/>
        <pt x="1339" y="322" on="0"/>
        <pt x="1365" y="350" on="1"/>
        <pt x="1403" y="391" on="0"/>
        <pt x="1419" y="391" on="1"/>
        <pt x="1440" y="391" on="0"/>
        <pt x="1440" y="369" on="1"/>
        <pt x="1440" y="345" on="0"/>
        <pt x="1394" y="252" on="0"/>
        <pt x="1368" y="190" on="0"/>
        <pt x="1357" y="158" on="1"/>
        <pt x="1339" y="105" on="0"/>
        <pt x="1314" y="0" on="1"/>
      </contour>
    </TTGlyph>
    <TTGlyph name="Zacute" xMin="99" yMin="0" xMax="1440" yMax="2026">
      <component glyphName="Z" x="0" y="0" flags="0x1204"/>
      <component glyphName="acute.cap" x="447" y="0" flags="0x1004"/>
    </TTGlyph>
    <TTGlyph name="Zcaron" xMin="99" yMin="0" xMax="1440" yMax="2030">
      <component glyphName="Z" x="0" y="0" flags="0x1204"/>
      <component glyphName="caron.cap" x="327" y="0" flags="0x1004"/>
    </TTGlyph>
    <TTGlyph name="Zdotaccent" xMin="99" yMin="0" xMax="1440" yMax="2030">
      <component glyphName="Z" x="0" y="0" flags="0x1204"/>
      <component glyphName="dotaccent.cap" x="494" y="0" flags="0x1004"/>
    </TTGlyph>
    <TTGlyph name="a" xMin="173" yMin="-24" xMax="1337" yMax="1039">
      <contour>
        <pt x="979" y="0" on="1"/>
        <pt x="922" y="0" on="0"/>
        <pt x="914" y="102" on="1"/>
        <pt x="826" y="11" on="0"/>
        <pt x="682" y="-16" on="1"/>
        <pt x="636" y="-24" on="0"/>
        <pt x="485" y="-24" on="0"/>
        <pt x="329" y="21" on="0"/>
        <pt x="277" y="62" on="1"/>
        <pt x="173" y="144" on="0"/>
        <pt x="173" y="293" on="1"/>
        <pt x="173" y="455" on="0"/>
        <pt x="302" y="538" on="1"/>
        <pt x="415" y="611" on="0"/>
        <pt x="771" y="611" on="0"/>
        <pt x="913" y="535" on="1"/>
        <pt x="913" y="655" on="1"/>
        <pt x="913" y="796" on="0"/>
        <pt x="830" y="872" on="1"/>
        <pt x="753" y="942" on="0"/>
        <pt x="618" y="942" on="1"/>
        <pt x="459" y="942" on="0"/>
        <pt x="330" y="766" on="1"/>
        <pt x="283" y="704" on="0"/>
        <pt x="235" y="704" on="0"/>
        <pt x="235" y="748" on="0"/>
        <pt x="248" y="786" on="1"/>
        <pt x="273" y="859" on="0"/>
        <pt x="273" y="995" on="1"/>
        <pt x="273" y="1039" on="0"/>
        <pt x="305" y="1039" on="1"/>
        <pt x="345" y="1039" on="0"/>
        <pt x="395" y="1000" on="1"/>
        <pt x="409" y="989" on="0"/>
        <pt x="419" y="989" on="1"/>
        <pt x="433" y="989" on="0"/>
        <pt x="473" y="1004" on="0"/>
        <pt x="524" y="1015" on="0"/>
        <pt x="553" y="1020" on="1"/>
        <pt x="623" y="1032" on="0"/>
        <pt x="659" y="1032" on="1"/>
        <pt x="1050" y="1032" on="0"/>
        <pt x="1114" y="787" on="1"/>
        <pt x="1133" y="714" on="0"/>
        <pt x="1133" y="631" on="1"/>
        <pt x="1133" y="345" on="1"/>
        <pt x="1133" y="200" on="0"/>
        <pt x="1147" y="132" on="0"/>
        <pt x="1166" y="86" on="0"/>
        <pt x="1222" y="62" on="0"/>
        <pt x="1249" y="62" on="1"/>
        <pt x="1305" y="70" on="1"/>
        <pt x="1337" y="70" on="0"/>
        <pt x="1337" y="44" on="1"/>
        <pt x="1337" y="-3" on="0"/>
        <pt x="1244" y="-3" on="1"/>
        <pt x="1091" y="6" on="1"/>
        <pt x="1078" y="6" on="0"/>
        <pt x="1064" y="5" on="1"/>
        <pt x="1038" y="3" on="1"/>
        <pt x="1011" y="0" on="0"/>
      </contour>
      <contour>
        <pt x="437" y="427" on="0"/>
        <pt x="406" y="355" on="0"/>
        <pt x="406" y="263" on="0"/>
        <pt x="439" y="178" on="0"/>
        <pt x="471" y="148" on="1"/>
        <pt x="537" y="86" on="0"/>
        <pt x="660" y="86" on="1"/>
        <pt x="772" y="86" on="0"/>
        <pt x="862" y="154" on="1"/>
        <pt x="891" y="176" on="0"/>
        <pt x="913" y="205" on="1"/>
        <pt x="913" y="443" on="1"/>
        <pt x="836" y="491" on="0"/>
        <pt x="728" y="510" on="1"/>
        <pt x="693" y="516" on="0"/>
        <pt x="595" y="516" on="0"/>
        <pt x="500" y="483" on="0"/>
      </contour>
    </TTGlyph>
    <TTGlyph name="aacute" xMin="173" yMin="-24" xMax="1337" yMax="1561">
      <component glyphName="a" x="0" y="0" flags="0x1204"/>
      <component glyphName="acute" x="320" y="0" flags="0x1004"/>
    </TTGlyph>
    <TTGlyph name="abreve" xMin="173" yMin="-24" xMax="1337" yMax="1604">
      <component glyphName="a" x="0" y="0" flags="0x1204"/>
      <component glyphName="breve" x="132" y="0" flags="0x1004"/>
    </TTGlyph>
    <TTGlyph name="acircumflex" xMin="173" yMin="-24" xMax="1337" yMax="1585">
      <component glyphName="a" x="0" y="0" flags="0x1204"/>
      <component glyphName="circumflex" x="200" y="0" flags="0x1004"/>
    </TTGlyph>
    <TTGlyph name="acute" xMin="100" yMin="1190" xMax="544" yMax="1561">
      <contour>
        <pt x="170" y="1205" on="1"/>
        <pt x="142" y="1190" on="0"/>
        <pt x="113" y="1190" on="0"/>
        <pt x="100" y="1207" on="0"/>
        <pt x="100" y="1228" on="0"/>
        <pt x="117" y="1248" on="1"/>
        <pt x="277" y="1447" on="1"/>
        <pt x="334" y="1518" on="0"/>
        <pt x="366" y="1536" on="1"/>
        <pt x="412" y="1561" on="0"/>
        <pt x="493" y="1561" on="0"/>
        <pt x="544" y="1516" on="0"/>
        <pt x="544" y="1462" on="0"/>
        <pt x="534" y="1427" on="0"/>
        <pt x="520" y="1408" on="1"/>
        <pt x="486" y="1366" on="0"/>
        <pt x="408" y="1327" on="1"/>
      </contour>
    </TTGlyph>
    <TTGlyph name="acute.cap" xMin="100" yMin="1655" xMax="544" yMax="2026">
      <contour>
        <pt x="170" y="1670" on="1"/>
        <pt x="142" y="1655" on="0"/>
        <pt x="113" y="1655" on="0"/>
        <pt x="100" y="1672" on="0"/>
        <pt x="100" y="1693" on="0"/>
        <pt x="117" y="1713" on="1"/>
        <pt x="277" y="1912" on="1"/>
        <pt x="354" y="2008" on="0"/>
        <pt x="416" y="2022" on="1"/>
        <pt x="436" y="2026" on="0"/>
        <pt x="493" y="2026" on="0"/>
        <pt x="544" y="1981" on="0"/>
        <pt x="544" y="1900" on="0"/>
        <pt x="482" y="1830" on="0"/>
        <pt x="408" y="1792" on="1"/>
      </contour>
    </TTGlyph>
    <TTGlyph name="adieresis" xMin="173" yMin="-24" xMax="1337" yMax="1517">
      <component glyphName="a" x="0" y="0" flags="0x1204"/>
      <component glyphName="dieresis" x="157" y="0" flags="0x1004"/>
    </TTGlyph>
    <TTGlyph name="ae" xMin="173" yMin="-24" xMax="1936" yMax="1039">
      <contour>
        <pt x="1033" y="156" on="1"/>
        <pt x="916" y="26" on="0"/>
        <pt x="732" y="-12" on="1"/>
        <pt x="672" y="-24" on="0"/>
        <pt x="504" y="-24" on="0"/>
        <pt x="342" y="21" on="0"/>
        <pt x="286" y="62" on="1"/>
        <pt x="173" y="146" on="0"/>
        <pt x="173" y="293" on="1"/>
        <pt x="173" y="433" on="0"/>
        <pt x="438" y="611" on="0"/>
        <pt x="790" y="611" on="0"/>
        <pt x="912" y="555" on="1"/>
        <pt x="903" y="858" on="0"/>
        <pt x="744" y="921" on="1"/>
        <pt x="690" y="942" on="0"/>
        <pt x="613" y="942" on="1"/>
        <pt x="459" y="942" on="0"/>
        <pt x="330" y="766" on="1"/>
        <pt x="283" y="704" on="0"/>
        <pt x="235" y="704" on="0"/>
        <pt x="235" y="748" on="0"/>
        <pt x="248" y="786" on="1"/>
        <pt x="273" y="859" on="0"/>
        <pt x="273" y="995" on="1"/>
        <pt x="273" y="1039" on="0"/>
        <pt x="305" y="1039" on="1"/>
        <pt x="327" y="1039" on="0"/>
        <pt x="354" y="1025" on="1"/>
        <pt x="404" y="999" on="0"/>
        <pt x="419" y="999" on="1"/>
        <pt x="429" y="999" on="0"/>
        <pt x="447" y="1005" on="0"/>
        <pt x="474" y="1012" on="1"/>
        <pt x="542" y="1032" on="0"/>
        <pt x="659" y="1032" on="1"/>
        <pt x="936" y="1032" on="0"/>
        <pt x="1051" y="854" on="1"/>
        <pt x="1168" y="981" on="0"/>
        <pt x="1352" y="1020" on="1"/>
        <pt x="1411" y="1032" on="0"/>
        <pt x="1471" y="1032" on="1"/>
        <pt x="1767" y="1032" on="0"/>
        <pt x="1912" y="768" on="1"/>
        <pt x="1936" y="727" on="0"/>
        <pt x="1936" y="700" on="1"/>
        <pt x="1936" y="651" on="0"/>
        <pt x="1892" y="635" on="1"/>
        <pt x="1599" y="530" on="0"/>
        <pt x="1320" y="464" on="1"/>
        <pt x="1155" y="424" on="1"/>
        <pt x="1201" y="264" on="0"/>
        <pt x="1320" y="174" on="1"/>
        <pt x="1430" y="92" on="0"/>
        <pt x="1538" y="92" on="1"/>
        <pt x="1750" y="92" on="0"/>
        <pt x="1845" y="228" on="1"/>
        <pt x="1860" y="249" on="0"/>
        <pt x="1879" y="267" on="0"/>
        <pt x="1892" y="267" on="1"/>
        <pt x="1920" y="267" on="0"/>
        <pt x="1920" y="241" on="1"/>
        <pt x="1920" y="206" on="0"/>
        <pt x="1883" y="155" on="1"/>
        <pt x="1751" y="-24" on="0"/>
        <pt x="1186" y="-24" on="0"/>
      </contour>
      <contour>
        <pt x="1139" y="508" on="1"/>
        <pt x="1464" y="587" on="0"/>
        <pt x="1675" y="660" on="1"/>
        <pt x="1699" y="668" on="0"/>
        <pt x="1699" y="708" on="0"/>
        <pt x="1683" y="759" on="0"/>
        <pt x="1653" y="815" on="0"/>
        <pt x="1609" y="870" on="0"/>
        <pt x="1580" y="892" on="1"/>
        <pt x="1516" y="940" on="0"/>
        <pt x="1384" y="940" on="0"/>
        <pt x="1272" y="894" on="0"/>
        <pt x="1229" y="850" on="1"/>
        <pt x="1134" y="753" on="0"/>
        <pt x="1134" y="591" on="1"/>
        <pt x="1134" y="558" on="0"/>
      </contour>
      <contour>
        <pt x="916" y="168" on="1"/>
        <pt x="953" y="194" on="0"/>
        <pt x="984" y="226" on="1"/>
        <pt x="922" y="332" on="0"/>
        <pt x="914" y="464" on="1"/>
        <pt x="808" y="516" on="0"/>
        <pt x="556" y="516" on="0"/>
        <pt x="406" y="395" on="0"/>
        <pt x="406" y="203" on="0"/>
        <pt x="557" y="86" on="0"/>
        <pt x="794" y="86" on="0"/>
      </contour>
    </TTGlyph>
    <TTGlyph name="aeacute" xMin="173" yMin="-24" xMax="1936" yMax="1561">
      <component glyphName="ae" x="0" y="0" flags="0x1204"/>
      <component glyphName="acute" x="732" y="0" flags="0x1004"/>
    </TTGlyph>
    <TTGlyph name="agrave" xMin="173" yMin="-24" xMax="1337" yMax="1561">
      <component glyphName="a" x="0" y="0" flags="0x1204"/>
      <component glyphName="grave" x="320" y="0" flags="0x1004"/>
    </TTGlyph>
    <TTGlyph name="amacron" xMin="173" yMin="-24" xMax="1337" yMax="1430">
      <component glyphName="a" x="0" y="0" flags="0x1204"/>
      <component glyphName="macron" x="204" y="0" flags="0x1004"/>
    </TTGlyph>
    <TTGlyph name="ampersand" xMin="130" yMin="-19" xMax="1723" yMax="1561">
      <contour>
        <pt x="1123" y="204" on="1"/>
        <pt x="904" y="-19" on="0"/>
        <pt x="626" y="-19" on="1"/>
        <pt x="400" y="-19" on="0"/>
        <pt x="262" y="94" on="1"/>
        <pt x="130" y="203" on="0"/>
        <pt x="130" y="368" on="1"/>
        <pt x="130" y="516" on="0"/>
        <pt x="216" y="617" on="1"/>
        <pt x="304" y="720" on="0"/>
        <pt x="509" y="811" on="1"/>
        <pt x="346" y="988" on="0"/>
        <pt x="320" y="1122" on="1"/>
        <pt x="312" y="1166" on="0"/>
        <pt x="312" y="1280" on="0"/>
        <pt x="368" y="1406" on="0"/>
        <pt x="424" y="1454" on="1"/>
        <pt x="545" y="1561" on="0"/>
        <pt x="759" y="1561" on="1"/>
        <pt x="945" y="1561" on="0"/>
        <pt x="1051" y="1474" on="1"/>
        <pt x="1149" y="1392" on="0"/>
        <pt x="1149" y="1261" on="1"/>
        <pt x="1149" y="989" on="0"/>
        <pt x="785" y="834" on="1"/>
        <pt x="861" y="753" on="0"/>
        <pt x="963" y="657" on="1"/>
        <pt x="1194" y="439" on="1"/>
        <pt x="1358" y="673" on="0"/>
        <pt x="1358" y="820" on="1"/>
        <pt x="1358" y="874" on="0"/>
        <pt x="1287" y="874" on="1"/>
        <pt x="1260" y="874" on="0"/>
        <pt x="1250" y="870" on="1"/>
        <pt x="1234" y="865" on="0"/>
        <pt x="1221" y="865" on="1"/>
        <pt x="1188" y="865" on="0"/>
        <pt x="1188" y="893" on="1"/>
        <pt x="1188" y="910" on="0"/>
        <pt x="1232" y="937" on="0"/>
        <pt x="1286" y="937" on="1"/>
        <pt x="1479" y="923" on="1"/>
        <pt x="1513" y="923" on="0"/>
        <pt x="1543" y="928" on="1"/>
        <pt x="1595" y="937" on="0"/>
        <pt x="1658" y="937" on="0"/>
        <pt x="1698" y="910" on="0"/>
        <pt x="1698" y="892" on="1"/>
        <pt x="1698" y="864" on="0"/>
        <pt x="1666" y="864" on="1"/>
        <pt x="1617" y="871" on="1"/>
        <pt x="1534" y="871" on="0"/>
        <pt x="1476" y="750" on="1"/>
        <pt x="1366" y="520" on="0"/>
        <pt x="1263" y="374" on="1"/>
        <pt x="1546" y="99" on="1"/>
        <pt x="1579" y="66" on="0"/>
        <pt x="1640" y="66" on="1"/>
        <pt x="1690" y="74" on="1"/>
        <pt x="1723" y="74" on="0"/>
        <pt x="1723" y="49" on="1"/>
        <pt x="1723" y="-3" on="0"/>
        <pt x="1620" y="-3" on="1"/>
        <pt x="1479" y="5" on="1"/>
        <pt x="1467" y="5" on="0"/>
        <pt x="1439" y="3" on="0"/>
        <pt x="1426" y="2" on="1"/>
        <pt x="1372" y="-2" on="0"/>
        <pt x="1340" y="8" on="0"/>
        <pt x="1324" y="19" on="1"/>
        <pt x="1289" y="42" on="0"/>
        <pt x="1227" y="102" on="1"/>
      </contour>
      <contour>
        <pt x="724" y="903" on="1"/>
        <pt x="834" y="963" on="0"/>
        <pt x="889" y="1060" on="1"/>
        <pt x="930" y="1133" on="0"/>
        <pt x="930" y="1273" on="0"/>
        <pt x="890" y="1382" on="0"/>
        <pt x="860" y="1418" on="1"/>
        <pt x="801" y="1486" on="0"/>
        <pt x="719" y="1486" on="1"/>
        <pt x="631" y="1486" on="0"/>
        <pt x="576" y="1432" on="1"/>
        <pt x="522" y="1380" on="0"/>
        <pt x="522" y="1293" on="1"/>
        <pt x="522" y="1205" on="0"/>
        <pt x="552" y="1145" on="1"/>
        <pt x="602" y="1046" on="0"/>
      </contour>
      <contour>
        <pt x="683" y="81" on="1"/>
        <pt x="859" y="81" on="0"/>
        <pt x="1054" y="272" on="1"/>
        <pt x="571" y="746" on="1"/>
        <pt x="467" y="684" on="0"/>
        <pt x="414" y="580" on="1"/>
        <pt x="372" y="495" on="0"/>
        <pt x="372" y="410" on="1"/>
        <pt x="372" y="253" on="0"/>
        <pt x="537" y="81" on="0"/>
      </contour>
    </TTGlyph>
    <TTGlyph name="aogonek" xMin="173" yMin="-468" xMax="1337" yMax="1039">
      <contour>
        <pt x="979" y="0" on="1"/>
        <pt x="922" y="0" on="0"/>
        <pt x="914" y="102" on="1"/>
        <pt x="826" y="11" on="0"/>
        <pt x="682" y="-16" on="1"/>
        <pt x="636" y="-24" on="0"/>
        <pt x="485" y="-24" on="0"/>
        <pt x="329" y="21" on="0"/>
        <pt x="277" y="62" on="1"/>
        <pt x="173" y="144" on="0"/>
        <pt x="173" y="293" on="1"/>
        <pt x="173" y="455" on="0"/>
        <pt x="302" y="538" on="1"/>
        <pt x="415" y="611" on="0"/>
        <pt x="771" y="611" on="0"/>
        <pt x="913" y="535" on="1"/>
        <pt x="913" y="655" on="1"/>
        <pt x="913" y="796" on="0"/>
        <pt x="830" y="872" on="1"/>
        <pt x="753" y="942" on="0"/>
        <pt x="618" y="942" on="1"/>
        <pt x="459" y="942" on="0"/>
        <pt x="330" y="766" on="1"/>
        <pt x="283" y="704" on="0"/>
        <pt x="235" y="704" on="0"/>
        <pt x="235" y="748" on="0"/>
        <pt x="248" y="786" on="1"/>
        <pt x="273" y="859" on="0"/>
        <pt x="273" y="995" on="1"/>
        <pt x="273" y="1039" on="0"/>
        <pt x="305" y="1039" on="1"/>
        <pt x="345" y="1039" on="0"/>
        <pt x="395" y="1000" on="1"/>
        <pt x="409" y="989" on="0"/>
        <pt x="419" y="989" on="1"/>
        <pt x="433" y="989" on="0"/>
        <pt x="473" y="1004" on="0"/>
        <pt x="524" y="1015" on="0"/>
        <pt x="553" y="1020" on="1"/>
        <pt x="623" y="1032" on="0"/>
        <pt x="659" y="1032" on="1"/>
        <pt x="1050" y="1032" on="0"/>
        <pt x="1114" y="787" on="1"/>
        <pt x="1133" y="714" on="0"/>
        <pt x="1133" y="631" on="1"/>
        <pt x="1133" y="345" on="1"/>
        <pt x="1133" y="200" on="0"/>
        <pt x="1147" y="132" on="0"/>
        <pt x="1166" y="86" on="0"/>
        <pt x="1222" y="62" on="0"/>
        <pt x="1249" y="62" on="1"/>
        <pt x="1305" y="70" on="1"/>
        <pt x="1337" y="70" on="0"/>
        <pt x="1337" y="44" on="1"/>
        <pt x="1337" y="-3" on="0"/>
        <pt x="1244" y="-3" on="1"/>
        <pt x="1216" y="-3" on="0"/>
        <pt x="1169" y="2" on="1"/>
        <pt x="1100" y="-69" on="0"/>
        <pt x="1100" y="-198" on="1"/>
        <pt x="1100" y="-313" on="0"/>
        <pt x="1204" y="-376" on="1"/>
        <pt x="1240" y="-399" on="0"/>
        <pt x="1314" y="-418" on="0"/>
        <pt x="1328" y="-434" on="0"/>
        <pt x="1328" y="-443" on="1"/>
        <pt x="1328" y="-452" on="0"/>
        <pt x="1312" y="-466" on="0"/>
        <pt x="1299" y="-466" on="1"/>
        <pt x="1077" y="-468" on="1"/>
        <pt x="943" y="-468" on="0"/>
        <pt x="943" y="-289" on="1"/>
        <pt x="943" y="-110" on="0"/>
        <pt x="1067" y="5" on="1"/>
        <pt x="1051" y="3" on="0"/>
        <pt x="1011" y="0" on="0"/>
      </contour>
      <contour>
        <pt x="437" y="427" on="0"/>
        <pt x="406" y="355" on="0"/>
        <pt x="406" y="263" on="0"/>
        <pt x="439" y="178" on="0"/>
        <pt x="471" y="148" on="1"/>
        <pt x="537" y="86" on="0"/>
        <pt x="660" y="86" on="1"/>
        <pt x="772" y="86" on="0"/>
        <pt x="862" y="154" on="1"/>
        <pt x="891" y="176" on="0"/>
        <pt x="913" y="205" on="1"/>
        <pt x="913" y="443" on="1"/>
        <pt x="836" y="491" on="0"/>
        <pt x="728" y="510" on="1"/>
        <pt x="693" y="516" on="0"/>
        <pt x="595" y="516" on="0"/>
        <pt x="500" y="483" on="0"/>
      </contour>
    </TTGlyph>
    <TTGlyph name="approxequal" xMin="115" yMin="212" xMax="1335" yMax="1090">
      <component glyphName="asciitilde" x="0" y="253" flags="0x1004"/>
      <component glyphName="asciitilde" x="0" y="-229" flags="0x1004"/>
    </TTGlyph>
    <TTGlyph name="aring" xMin="173" yMin="-24" xMax="1337" yMax="1649">
      <component glyphName="a" x="0" y="0" flags="0x1204"/>
      <component glyphName="ring" x="314" y="0" flags="0x1004"/>
    </TTGlyph>
    <TTGlyph name="asciicircum" xMin="150" yMin="973" xMax="991" yMax="1562">
      <contour>
        <pt x="538" y="1562" on="1"/>
        <pt x="598" y="1562" on="1"/>
        <pt x="991" y="973" on="1"/>
        <pt x="822" y="973" on="1"/>
        <pt x="565" y="1352" on="1"/>
        <pt x="313" y="973" on="1"/>
        <pt x="150" y="973" on="1"/>
      </contour>
    </TTGlyph>
    <TTGlyph name="asciitilde" xMin="115" yMin="441" xMax="1335" yMax="837">
      <contour>
        <pt x="449" y="700" on="1"/>
        <pt x="333" y="700" on="0"/>
        <pt x="235" y="474" on="1"/>
        <pt x="115" y="533" on="1"/>
        <pt x="161" y="659" on="0"/>
        <pt x="252" y="746" on="1"/>
        <pt x="349" y="837" on="0"/>
        <pt x="454" y="837" on="1"/>
        <pt x="583" y="837" on="0"/>
        <pt x="766" y="703" on="1"/>
        <pt x="911" y="597" on="0"/>
        <pt x="970" y="584" on="1"/>
        <pt x="994" y="578" on="0"/>
        <pt x="1044" y="578" on="0"/>
        <pt x="1095" y="602" on="0"/>
        <pt x="1120" y="629" on="1"/>
        <pt x="1175" y="687" on="0"/>
        <pt x="1215" y="803" on="1"/>
        <pt x="1335" y="745" on="1"/>
        <pt x="1225" y="441" on="0"/>
        <pt x="1004" y="441" on="1"/>
        <pt x="935" y="441" on="0"/>
        <pt x="883" y="466" on="1"/>
        <pt x="802" y="503" on="0"/>
        <pt x="726" y="558" on="1"/>
        <pt x="614" y="638" on="1"/>
        <pt x="547" y="685" on="0"/>
        <pt x="480" y="700" on="0"/>
      </contour>
    </TTGlyph>
    <TTGlyph name="asterisk" xMin="130" yMin="779" xMax="915" yMax="1561">
      <contour>
        <pt x="803" y="1123" on="1"/>
        <pt x="701" y="1127" on="1"/>
        <pt x="633" y="1127" on="0"/>
        <pt x="575" y="1117" on="1"/>
        <pt x="628" y="1058" on="0"/>
        <pt x="671" y="1029" on="1"/>
        <pt x="754" y="974" on="0"/>
        <pt x="782" y="940" on="1"/>
        <pt x="801" y="912" on="0"/>
        <pt x="800" y="859" on="0"/>
        <pt x="779" y="820" on="0"/>
        <pt x="763" y="806" on="1"/>
        <pt x="730" y="779" on="0"/>
        <pt x="669" y="779" on="0"/>
        <pt x="636" y="794" on="0"/>
        <pt x="622" y="811" on="1"/>
        <pt x="596" y="845" on="0"/>
        <pt x="572" y="944" on="0"/>
        <pt x="559" y="982" on="0"/>
        <pt x="543" y="1023" on="0"/>
        <pt x="534" y="1042" on="1"/>
        <pt x="517" y="1078" on="1"/>
        <pt x="482" y="1014" on="0"/>
        <pt x="446" y="895" on="0"/>
        <pt x="420" y="835" on="0"/>
        <pt x="406" y="818" on="1"/>
        <pt x="382" y="788" on="0"/>
        <pt x="317" y="788" on="0"/>
        <pt x="277" y="803" on="0"/>
        <pt x="262" y="816" on="1"/>
        <pt x="228" y="846" on="0"/>
        <pt x="228" y="916" on="0"/>
        <pt x="254" y="957" on="0"/>
        <pt x="293" y="990" on="0"/>
        <pt x="315" y="1004" on="1"/>
        <pt x="355" y="1029" on="1"/>
        <pt x="403" y="1061" on="0"/>
        <pt x="463" y="1121" on="1"/>
        <pt x="393" y="1135" on="0"/>
        <pt x="291" y="1133" on="0"/>
        <pt x="225" y="1134" on="0"/>
        <pt x="196" y="1143" on="1"/>
        <pt x="130" y="1164" on="0"/>
        <pt x="130" y="1228" on="1"/>
        <pt x="130" y="1304" on="0"/>
        <pt x="188" y="1334" on="1"/>
        <pt x="205" y="1342" on="0"/>
        <pt x="246" y="1342" on="0"/>
        <pt x="285" y="1326" on="0"/>
        <pt x="321" y="1301" on="0"/>
        <pt x="338" y="1287" on="1"/>
        <pt x="369" y="1261" on="1"/>
        <pt x="422" y="1221" on="0"/>
        <pt x="486" y="1187" on="1"/>
        <pt x="480" y="1265" on="0"/>
        <pt x="461" y="1322" on="1"/>
        <pt x="423" y="1431" on="0"/>
        <pt x="423" y="1511" on="0"/>
        <pt x="483" y="1561" on="0"/>
        <pt x="568" y="1561" on="0"/>
        <pt x="627" y="1514" on="0"/>
        <pt x="627" y="1434" on="0"/>
        <pt x="615" y="1403" on="1"/>
        <pt x="590" y="1337" on="1"/>
        <pt x="564" y="1272" on="0"/>
        <pt x="553" y="1182" on="1"/>
        <pt x="628" y="1216" on="0"/>
        <pt x="704" y="1277" on="0"/>
        <pt x="742" y="1304" on="0"/>
        <pt x="758" y="1313" on="1"/>
        <pt x="788" y="1330" on="0"/>
        <pt x="839" y="1330" on="0"/>
        <pt x="875" y="1311" on="0"/>
        <pt x="888" y="1296" on="1"/>
        <pt x="915" y="1261" on="0"/>
        <pt x="915" y="1174" on="0"/>
        <pt x="854" y="1123" on="0"/>
      </contour>
    </TTGlyph>
</ttFont>
